<svg xmlns="http://www.w3.org/2000/svg" viewBox="0 0 96 96" fill="none">
  <rect width="96" height="96" rx="28" fill="#F5EFE2"/>
  <rect x="9" y="9" width="78" height="78" rx="24" fill="#FFF9EF" stroke="#E0D0B4"/>
  <path d="M28 31L38 17L44 36L28 31Z" fill="#343C56"/>
  <path d="M68 31L58 17L52 36L68 31Z" fill="#343C56"/>
  <path d="M48 27C33.6 27 22 38.1 22 51.8C22 65.5 33.6 76 48 76C62.4 76 74 65.5 74 51.8C74 38.1 62.4 27 48 27Z" fill="#495471"/>
  <path d="M48 31C38.4 31 29.7 37.2 26 46.4C31 43.3 36.8 41.4 43 41H53C59.2 41.4 65 43.3 70 46.4C66.3 37.2 57.6 31 48 31Z" fill="#E8EDF4"/>
  <path d="M31 44C34.4 41.8 38.4 40.6 42.6 40.6H43.5L39.8 57.4L28.3 49.6C28.6 47.4 29.5 45.5 31 44Z" fill="#E8EDF4"/>
  <path d="M65 44C61.6 41.8 57.6 40.6 53.4 40.6H52.5L56.2 57.4L67.7 49.6C67.4 47.4 66.5 45.5 65 44Z" fill="#E8EDF4"/>
  <path d="M48 44L58 59.2L52.2 68H43.8L38 59.2L48 44Z" fill="#FBFCFE"/>
  <circle cx="39.5" cy="51" r="3" fill="#181C3A"/>
  <circle cx="56.5" cy="51" r="3" fill="#181C3A"/>
  <path d="M42.8 61.4C45.6 59.3 50.4 59.3 53.2 61.4L48 66.4L42.8 61.4Z" fill="#181C3A"/>
  <path d="M40.8 68.2C43 70.1 45.4 71 48 71C50.6 71 53 70.1 55.2 68.2" stroke="#181C3A" stroke-width="2.8" stroke-linecap="round"/>
</svg>