<?xml version="1.0" standalone="no"?>
<!DOCTYPE svg PUBLIC "-//W3C//DTD SVG 20010904//EN"
 "http://www.w3.org/TR/2001/REC-SVG-20010904/DTD/svg10.dtd">
<svg version="1.0" xmlns="http://www.w3.org/2000/svg"
 width="2816.000000pt" height="1536.000000pt" viewBox="0 0 2816.000000 1536.000000"
 preserveAspectRatio="xMidYMid meet">

<g transform="translate(0.000000,1536.000000) scale(0.100000,-0.100000)"
fill="#000000" stroke="none">
<path d="M0 7680 l0 -7680 14080 0 14080 0 0 7680 0 7680 -14080 0 -14080 0 0
-7680z m7508 6557 c29 -23 0 -87 -41 -87 -26 0 -57 28 -57 51 0 10 12 27 26
38 25 19 45 19 72 -2z m9031 -15 c16 -29 -9 -66 -45 -70 -37 -4 -57 17 -52 55
6 52 72 62 97 15z m3989 22 c24 -17 30 -62 10 -82 -19 -19 -65 -14 -81 9 -18
25 -11 55 16 74 26 19 28 19 55 -1z m-8528 -9 c10 -12 9 -22 -4 -49 -9 -19
-16 -59 -16 -91 l0 -56 -37 3 c-36 3 -38 5 -41 43 -4 49 11 103 39 139 23 29
41 33 59 11z m139 6 c11 -7 11 -19 -3 -75 -9 -36 -16 -78 -14 -93 3 -26 1 -28
-37 -28 l-40 0 3 54 c3 53 20 100 50 134 17 19 21 20 41 8z m2825 -23 c18 -52
-44 -89 -86 -51 -21 18 -23 36 -7 64 8 16 19 19 47 17 30 -2 38 -8 46 -30z
m-4465 -3 c81 -42 114 -139 74 -222 -9 -19 -63 -83 -120 -143 -56 -59 -103
-111 -103 -115 0 -3 55 -5 123 -3 l122 3 0 -40 0 -40 -190 0 -190 0 -3 28 c-3
24 14 46 126 160 71 73 137 146 146 164 34 68 7 136 -61 149 -49 9 -100 -16
-109 -53 -3 -15 -7 -32 -9 -38 -1 -5 -20 -10 -41 -10 -38 1 -39 2 -42 37 -3
32 3 44 38 82 25 27 55 48 78 55 44 12 125 5 161 -14z m7633 -7 c45 -25 94
-97 84 -123 -3 -9 -19 -15 -41 -15 -29 0 -39 5 -53 30 -23 39 -55 55 -113 54
-56 -1 -96 -24 -105 -61 -13 -49 37 -91 132 -112 72 -16 121 -40 154 -76 22
-23 25 -36 25 -95 0 -59 -3 -72 -25 -96 -40 -43 -105 -67 -181 -66 -115 0
-192 51 -206 137 l-6 35 42 0 c34 0 43 -4 51 -24 16 -44 57 -66 122 -66 52 0
63 3 89 29 53 53 31 109 -53 131 -81 22 -159 53 -184 72 -98 77 -55 227 76
267 54 16 143 6 192 -21z m3056 -17 c4 -52 -39 -151 -66 -151 -39 1 -46 15
-28 59 9 23 16 61 16 85 0 51 5 58 45 54 28 -3 30 -6 33 -47z m142 34 c23 -27
-5 -128 -48 -177 -18 -21 -22 -21 -44 -4 -17 12 -17 15 -1 47 9 18 18 58 19
89 1 30 3 56 3 58 3 9 61 -1 71 -13z m-14184 -10 c115 -34 176 -128 177 -274
2 -138 -42 -215 -148 -262 -43 -19 -69 -22 -180 -23 l-130 -1 -3 288 -2 287
118 0 c75 0 136 -5 168 -15z m5516 -20 c2 -20 2 -38 -1 -40 -2 -3 -42 -5 -87
-5 l-84 0 -2 -247 -3 -248 -45 0 -45 0 -3 248 -2 247 -84 0 c-91 0 -97 4 -88
58 l4 22 218 0 218 0 4 -35z m173 -73 c0 -102 5 -119 25 -82 27 50 113 64 180
30 67 -34 75 -61 75 -250 l0 -165 -40 0 -40 0 -5 153 c-5 153 -5 154 -33 178
-37 32 -87 32 -124 0 -28 -24 -28 -25 -33 -178 l-5 -153 -40 0 -40 0 -3 288
-2 288 42 -3 43 -3 0 -103z m1340 97 c24 -6 60 -25 79 -43 85 -75 68 -241 -31
-298 -22 -13 -61 -21 -132 -25 l-101 -6 0 -99 0 -99 -42 3 -43 3 -3 288 -2
287 115 0 c64 0 136 -5 160 -11z m-6670 -349 l0 -215 -40 0 -40 0 -3 205 c-1
112 0 210 3 218 3 9 18 12 42 10 l38 -3 0 -215z m375 204 c22 -9 50 -30 63
-48 21 -29 22 -41 22 -201 l0 -170 -42 -3 c-40 -3 -43 -1 -43 22 0 32 -10 33
-39 2 -44 -47 -151 -41 -204 12 -38 39 -47 103 -19 148 26 41 77 63 168 74 80
8 98 20 88 55 -11 36 -33 50 -79 50 -32 0 -50 -6 -70 -25 -20 -19 -35 -24 -63
-21 -20 1 -41 6 -45 11 -13 12 61 89 97 99 50 15 122 12 166 -5z m413 5 c12
-6 32 -23 44 -37 l23 -27 0 32 c0 38 5 42 53 36 l37 -5 0 -233 c0 -223 -1
-233 -23 -276 -34 -63 -75 -84 -167 -84 -86 0 -145 24 -170 69 -13 24 -13 28
0 36 34 23 57 22 82 -3 50 -50 156 -39 178 18 13 34 13 115 0 115 -5 0 -10 -5
-10 -10 0 -20 -65 -50 -109 -50 -87 0 -152 61 -171 160 -28 147 49 267 173
269 21 1 48 -4 60 -10z m355 -23 l4 -29 28 32 c23 25 37 31 69 31 47 0 50 -4
44 -47 -5 -29 -9 -33 -37 -33 -40 0 -94 -33 -101 -62 -3 -13 -6 -84 -8 -158
l-2 -135 -42 -3 -43 -3 0 214 c0 117 2 216 4 218 3 2 22 4 43 4 34 0 38 -3 41
-29z m477 14 c71 -34 79 -60 80 -250 l0 -165 -42 -3 c-40 -3 -43 -1 -43 22 0
32 -9 32 -38 2 -69 -74 -225 -21 -239 81 -11 84 49 140 164 150 82 7 103 16
103 46 0 36 -22 58 -66 64 -35 4 -46 1 -75 -24 -28 -25 -41 -29 -71 -25 -48 5
-50 26 -7 70 53 54 159 68 234 32z m269 -24 l-6 -31 35 34 c46 44 115 53 165
22 17 -12 32 -28 32 -36 0 -21 23 -19 37 5 22 34 71 53 127 47 41 -4 55 -10
83 -41 l33 -36 0 -180 0 -180 -40 0 -40 0 -1 78 c-2 164 -13 253 -34 268 -27
20 -79 17 -106 -5 -23 -18 -24 -26 -29 -178 l-5 -158 -40 0 -40 0 -5 163 c-4
147 -7 165 -24 178 -28 20 -80 17 -107 -5 -23 -18 -24 -26 -29 -178 l-5 -158
-40 0 -40 0 -3 205 c-1 112 -1 209 2 215 2 6 22 9 45 7 41 -4 42 -5 35 -36z
m4078 32 c57 -17 104 -73 118 -142 19 -95 26 -91 -143 -94 l-147 -3 0 -25 c0
-16 13 -39 34 -60 47 -47 100 -48 151 -3 31 28 40 31 67 23 42 -12 44 -25 12
-63 -39 -47 -79 -63 -150 -63 -79 0 -129 23 -169 80 -25 37 -30 55 -33 118 -5
90 13 146 61 191 53 50 121 65 199 41z m1199 -11 c64 -34 101 -97 105 -182 7
-148 -69 -237 -202 -237 -78 0 -117 20 -161 86 -31 45 -33 54 -33 135 0 80 3
91 30 135 53 84 168 112 261 63z m287 -200 l2 -218 -42 3 -43 3 -3 205 c-1
112 0 209 2 216 2 6 21 10 43 10 l38 -2 3 -217z m355 209 c36 -15 90 -72 84
-90 -7 -21 -74 -19 -96 3 -41 41 -110 37 -139 -7 -12 -19 -12 -23 10 -45 16
-16 42 -27 74 -31 139 -21 200 -100 141 -186 -35 -53 -80 -74 -156 -74 -75 0
-115 17 -155 64 -36 43 -33 57 14 65 36 6 42 4 66 -24 22 -27 32 -31 72 -31
54 0 64 5 82 39 11 22 10 27 -13 47 -15 13 -52 26 -94 34 -82 16 -111 33 -130
77 -16 40 -4 100 25 126 49 44 151 60 215 33z m477 -20 c119 -79 120 -303 1
-382 -35 -23 -52 -27 -112 -27 -61 0 -75 4 -112 29 -59 42 -79 83 -85 169 -5
86 8 133 51 182 44 50 80 64 153 60 47 -2 72 -9 104 -31z m470 15 c66 -35 75
-64 75 -251 l0 -165 -42 -3 -42 -3 -3 155 c-3 148 -4 156 -27 180 -33 35 -89
36 -128 2 l-28 -24 -3 -157 -3 -156 -42 3 -42 3 -3 213 -2 212 45 0 c42 0 45
-2 45 -27 l0 -27 28 26 c15 14 34 28 42 31 33 12 97 6 130 -12z m275 -206 l0
-210 -45 0 -45 0 -3 209 c-2 140 1 212 8 216 6 4 28 4 48 1 l37 -6 0 -210z
m403 205 c65 -40 72 -65 72 -253 l0 -168 -42 3 -43 3 -5 158 c-5 152 -6 160
-29 178 -35 29 -96 25 -126 -7 -23 -25 -25 -33 -27 -178 l-3 -151 -42 -3 -43
-3 0 215 0 216 45 0 45 0 -7 -32 -6 -33 29 26 c16 15 38 31 49 37 32 18 97 14
133 -8z m407 6 c18 -8 39 -25 46 -38 13 -23 13 -23 19 10 3 18 8 33 13 32 4 0
23 0 42 0 l35 0 0 -236 c0 -267 -4 -287 -71 -331 -52 -34 -151 -43 -214 -19
-39 15 -95 65 -95 85 0 4 16 13 35 20 33 12 38 11 66 -13 40 -34 72 -41 120
-27 47 14 69 51 69 116 0 47 -12 58 -30 26 -24 -45 -141 -53 -198 -12 -74 52
-100 212 -50 308 40 79 132 113 213 79z m1245 -8 c30 -15 53 -37 67 -63 32
-56 30 -65 -16 -65 -32 0 -43 5 -61 29 -23 33 -51 45 -95 42 -110 -7 -137
-223 -35 -276 49 -25 79 -19 122 26 33 35 43 40 68 34 40 -9 42 -15 19 -62
-28 -57 -85 -87 -164 -86 -71 1 -113 19 -149 66 -36 48 -48 84 -48 158 0 74
24 133 68 172 58 50 152 61 224 25z m447 1 c59 -28 92 -85 95 -164 l3 -60
-153 -3 c-153 -3 -153 -3 -147 -25 18 -65 58 -97 120 -97 27 0 44 8 67 31 28
27 35 29 66 22 46 -11 49 -23 16 -62 -38 -46 -79 -63 -149 -64 -77 -1 -129 24
-170 82 -24 35 -30 54 -33 112 -6 93 11 148 57 193 61 59 150 73 228 35z m273
-20 l5 -34 18 27 c35 51 130 64 188 25 61 -40 69 -71 69 -255 l0 -163 -42 3
-43 3 -5 150 c-5 161 -14 190 -59 202 -13 3 -40 2 -60 -3 -59 -15 -71 -52 -71
-217 l0 -138 -42 3 -43 3 -3 205 c-1 112 0 210 2 216 2 6 21 10 43 9 35 -2 38
-5 43 -36z m641 27 c19 -8 45 -26 59 -41 25 -26 25 -29 25 -203 l0 -177 -40 0
c-34 0 -40 3 -43 23 l-3 23 -30 -25 c-42 -36 -106 -43 -162 -18 -57 25 -81 67
-74 129 8 75 57 110 165 120 37 3 75 10 85 15 25 13 21 51 -8 78 -20 19 -31
22 -67 17 -29 -4 -49 -14 -63 -30 -17 -22 -25 -24 -59 -18 -22 3 -41 11 -43
18 -6 17 63 81 100 92 49 14 121 13 158 -3z m427 -28 c-3 -43 -3 -43 -39 -40
-27 3 -44 -3 -65 -21 l-29 -25 -5 -154 -5 -153 -45 0 c-43 0 -45 1 -44 28 0
15 1 110 2 212 l2 185 45 0 c43 0 45 -1 39 -25 -8 -33 2 -32 36 5 22 24 36 30
70 30 l41 0 -3 -42z m571 9 c101 -67 122 -248 39 -343 -43 -49 -78 -64 -147
-64 -73 0 -99 9 -140 50 -44 44 -61 91 -61 167 0 98 42 176 115 209 49 23 145
14 194 -19z m-405 -192 l0 -210 -45 0 -44 0 -3 213 -2 213 47 -3 48 -3 -1
-210z m-8896 28 l-3 -38 -392 -3 -393 -2 0 40 0 40 396 0 395 0 -3 -37z m6297
-1772 c59 -27 101 -66 127 -119 l23 -47 2 -1194 c1 -656 4 -1196 7 -1198 3 -4
2253 -7 2305 -4 10 1 12 17 9 71 -2 49 0 70 8 68 28 -7 303 -164 301 -172 -4
-11 -307 -187 -308 -178 -1 4 -2 36 -2 72 l-2 65 -1157 3 -1158 2 -2 -1392 -3
-1393 -22 -41 c-25 -48 -83 -101 -129 -120 -28 -12 -521 -14 -3106 -14 -2959
0 -3074 1 -3113 19 -55 25 -120 100 -134 156 -16 65 -14 5228 2 5270 7 17 20
44 31 61 19 32 97 89 131 97 11 3 1399 5 3085 6 2946 1 3067 0 3105 -18z
m8978 5 c57 -21 100 -58 131 -116 l29 -53 -2 -2616 c-1 -1612 -5 -2630 -11
-2652 -13 -49 -71 -112 -125 -138 l-45 -21 -2950 0 -2951 0 -42 21 c-58 29
-85 56 -113 111 l-24 47 0 2626 c0 2572 0 2627 19 2664 29 55 90 110 141 126
66 20 5885 21 5943 1z m-16686 -1248 c-3 -7 -5 -2 -5 12 0 14 2 19 5 13 2 -7
2 -19 0 -25z m10 -46 c7 -45 -2 -50 -110 -51 -56 -1 -108 3 -116 8 -8 5 24 9
85 11 128 3 123 2 122 9 -4 44 12 65 19 23z m-2069 -43 c-17 -11 -138 -10
-138 0 0 7 29 10 74 8 41 -1 70 -5 64 -8z m272 0 c0 -10 -139 -9 -145 1 -2 4
29 7 70 7 41 1 75 -3 75 -8z m870 1 c8 -5 11 -10 5 -10 -5 0 -17 5 -25 10 -8
5 -10 10 -5 10 6 0 17 -5 25 -10z m560 0 c8 -5 -95 -9 -229 -9 -148 -1 -240 2
-237 8 7 11 444 12 466 1z m-4122 -1333 c43 -23 86 -69 109 -115 17 -36 18
-125 21 -2220 l2 -2183 -21 -48 c-27 -63 -82 -115 -144 -135 -46 -15 -241 -16
-2260 -14 l-2210 3 -45 24 c-25 13 -57 37 -72 55 -62 69 -58 -83 -58 2286 0
1246 3 2178 9 2196 22 77 65 125 141 158 31 14 299 15 2265 13 2122 -2 2232
-3 2263 -20z m4422 -593 c0 -2 -9 -4 -20 -4 -11 0 -20 4 -20 9 0 5 9 7 20 4
11 -3 20 -7 20 -9z m-2290 -480 c0 -2 -7 -4 -15 -4 -8 0 -15 4 -15 10 0 5 7 7
15 4 8 -4 15 -8 15 -10z m40 0 c0 -2 -7 -4 -15 -4 -8 0 -15 4 -15 10 0 5 7 7
15 4 8 -4 15 -8 15 -10z m-83 0 c-3 -3 -12 -4 -19 -1 -8 3 -5 6 6 6 11 1 17
-2 13 -5z m16199 -2041 c37 -71 78 -145 91 -165 l23 -37 -73 -3 -72 -3 -5
-1135 c-4 -903 -8 -1143 -19 -1175 -51 -157 -180 -280 -336 -321 -41 -11 -656
-14 -3537 -14 l-3488 0 0 30 0 30 3458 0 c3725 0 3529 -2 3633 51 55 28 136
111 171 175 14 27 31 76 38 109 8 43 10 372 8 1155 l-3 1095 -68 0 c-37 0 -67
3 -67 7 0 7 173 328 177 328 1 0 32 -57 69 -127z m-9118 -1317 c151 -86 275
-142 479 -219 131 -50 357 -99 562 -123 75 -8 140 -20 145 -25 14 -13 25 -188
25 -405 1 -204 -16 -402 -50 -593 -11 -64 -23 -133 -26 -153 l-6 -38 -98 0
c-55 0 -99 3 -99 7 0 4 9 39 20 77 59 214 90 541 82 866 l-2 86 -117 13 c-182
21 -396 77 -628 166 -65 25 -211 96 -331 161 l-50 28 -91 -52 c-190 -109 -386
-188 -603 -242 -121 -30 -318 -67 -385 -72 l-40 -3 -8 -90 c-5 -49 -6 -134 -4
-188 3 -82 2 -97 -10 -92 -8 3 -48 5 -89 5 l-74 0 1 178 c1 175 10 336 19 345
3 3 52 10 110 16 288 30 538 93 785 198 91 39 268 131 323 168 20 14 47 25 60
25 12 0 57 -20 100 -44z m-102 -2554 c-11 -11 -217 117 -316 196 -86 69 -193
177 -261 265 -79 101 -139 197 -139 221 0 10 11 34 25 54 14 20 37 73 52 117
23 69 26 97 26 200 0 112 -2 126 -32 203 -18 46 -52 111 -74 145 -37 54 -68
84 -195 187 l-31 25 -3 134 -3 135 75 12 c228 36 529 137 770 258 l105 52 3
-1099 c1 -605 0 -1102 -2 -1105z m-6841 1883 l0 -110 -150 0 c-82 -1 -156 3
-162 8 -9 7 -13 42 -13 113 l0 104 163 -2 162 -3 0 -110z m483 3 l-3 -113
-212 -3 -213 -2 0 115 0 115 215 0 216 0 -3 -112z m878 4 c0 -57 -3 -105 -6
-107 -6 -4 -741 -9 -802 -6 -16 1 -18 13 -18 111 l0 110 413 -2 412 -3 1 -103z
m859 -7 l0 -110 -400 0 -400 0 -3 99 c-2 54 -1 104 2 112 5 12 69 14 403 12
l398 -3 0 -110z m3565 -579 c0 -2 -8 -10 -17 -17 -16 -13 -17 -12 -4 4 13 16
21 21 21 13z m120 -30 c0 -3 -4 -8 -10 -11 -5 -3 -10 -1 -10 4 0 6 5 11 10 11
6 0 10 -2 10 -4z m-7031 -50 c-3 -3 -11 5 -18 17 -13 21 -12 21 5 5 10 -10 16
-20 13 -22z m6961 -19 c-25 -23 -33 -28 -19 -12 14 17 32 37 40 46 8 10 16 15
19 13 2 -3 -16 -24 -40 -47z m1907 -303 c-3 -3 -12 -4 -19 -1 -8 3 -5 6 6 6
11 1 17 -2 13 -5z m-7877 -96 c0 -4 -9 -8 -21 -8 -11 0 -18 4 -15 8 3 5 12 9
21 9 8 0 15 -4 15 -9z m35 2 c3 -6 -1 -7 -9 -4 -18 7 -21 14 -7 14 6 0 13 -4
16 -10z m285 2 c0 -10 -38 -13 -44 -3 -3 3 6 8 20 9 13 1 24 -2 24 -6z m40 -4
c0 -4 -4 -8 -9 -8 -6 0 -12 4 -15 8 -3 5 1 9 9 9 8 0 15 -4 15 -9z m120 2 c0
-5 -7 -10 -15 -10 -8 0 -15 5 -15 10 0 6 7 10 15 10 8 0 15 -4 15 -10z m40 2
c0 -5 -7 -9 -15 -9 -8 0 -15 4 -15 9 0 4 7 8 15 8 8 0 15 -4 15 -8z m60 -8 c0
-2 -7 -4 -15 -4 -8 0 -15 4 -15 10 0 5 7 7 15 4 8 -4 15 -8 15 -10z m220 7 c0
-9 -38 -12 -44 -3 -2 4 7 8 20 8 13 1 24 -1 24 -5z m1130 1 c0 -10 -88 -13
-95 -3 -2 4 18 8 46 10 27 1 49 -2 49 -7z m350 -2 c0 -11 -313 -10 -331 1 -7
4 65 7 159 8 102 0 172 -4 172 -9z m5280 -74 c0 -2 -7 -9 -15 -16 -13 -11 -14
-10 -9 4 5 14 24 23 24 12z m-6703 -162 c-3 -3 -12 -4 -19 -1 -8 3 -5 6 6 6
11 1 17 -2 13 -5z m183 -2 c0 -10 -156 -10 -166 1 -4 4 32 7 79 7 48 0 87 -4
87 -8z m420 -2 c0 -11 -384 -10 -403 2 -6 4 81 8 196 8 126 0 207 -4 207 -10z
m5913 -14 c-10 -13 -20 -22 -22 -20 -4 4 29 44 36 44 2 0 -4 -11 -14 -24z
m-1219 -14 c12 -36 135 -206 209 -286 132 -145 344 -304 522 -394 l100 -50 60
30 c33 17 95 50 137 75 l77 44 38 -42 c21 -23 49 -53 63 -65 13 -13 22 -25 20
-27 -58 -53 -316 -191 -381 -204 -74 -14 -431 196 -636 375 -119 105 -278 294
-352 420 l-31 53 43 18 c23 11 58 31 77 45 42 30 47 31 54 8z m-387 -18 c-3
-3 -12 -4 -19 -1 -8 3 -5 6 6 6 11 1 17 -2 13 -5z m2641 -142 c9 -6 12 -37 10
-118 l-3 -109 -414 -3 c-297 -1 -418 1 -427 9 -17 14 -20 199 -4 215 13 13
819 18 838 6z m-7029 -42 c63 0 112 -2 110 -5 -5 -4 -368 -8 -509 -4 -63 1
-75 3 -45 8 22 3 105 5 185 4 80 -1 196 -2 259 -3z m-1332 -6 c-7 -7 -168 -6
-175 1 -3 3 37 5 88 5 51 0 91 -3 87 -6z m7313 -326 c0 -16 -3 -19 -11 -11 -6
6 -8 16 -5 22 11 17 16 13 16 -11z m-1490 -896 c32 -24 70 -80 70 -103 0 -14
-7 -19 -27 -19 -23 1 -32 9 -48 43 -19 39 -23 42 -64 45 -65 5 -87 -4 -111
-43 -18 -29 -22 -52 -23 -118 -1 -126 28 -167 117 -167 51 0 81 21 92 65 4 18
13 25 30 25 14 0 27 -6 30 -14 8 -20 -20 -69 -56 -100 -26 -22 -41 -26 -91
-26 -71 0 -108 17 -146 67 -25 32 -28 47 -32 121 -2 48 2 103 9 129 15 52 58
99 103 112 44 14 117 5 147 -17z m885 7 c35 -17 75 -73 75 -105 0 -33 -46 -34
-55 -1 -15 47 -45 67 -100 67 -59 0 -89 -23 -105 -81 -14 -47 -12 -142 2 -176
24 -57 47 -73 104 -73 45 0 56 4 73 26 12 15 21 35 21 45 0 14 7 19 30 19 24
0 30 -4 30 -21 0 -30 -27 -72 -64 -97 -24 -17 -47 -22 -91 -22 -106 0 -165 64
-173 188 -5 72 10 143 40 185 43 61 139 81 213 46z m-1298 -25 c62 -51 78 -87
78 -179 0 -97 -21 -145 -78 -183 -36 -24 -52 -27 -139 -30 l-98 -4 0 217 0
217 99 -4 c94 -3 101 -5 138 -34z m833 11 l0 -25 -105 0 -105 0 -2 -45 c-1
-25 -2 -53 -2 -62 -1 -16 12 -19 94 -23 89 -5 95 -6 98 -27 3 -22 1 -23 -92
-23 l-96 0 0 -75 0 -74 108 -3 c99 -3 107 -4 107 -23 0 -19 -8 -20 -137 -23
l-138 -3 0 216 0 215 135 0 135 0 0 -25z m12935 -42 c32 -88 71 -150 141 -223
70 -73 145 -122 237 -155 34 -13 62 -28 62 -35 0 -7 -28 -22 -62 -35 -92 -33
-167 -82 -237 -155 -71 -73 -109 -135 -142 -224 -12 -33 -27 -61 -34 -61 -7 0
-22 28 -34 61 -33 89 -71 151 -142 224 -70 73 -145 122 -237 155 -34 13 -62
28 -62 35 0 7 28 22 61 34 86 32 150 71 218 135 87 83 131 154 181 299 9 26
28 6 50 -55z m-11567 -1 c3 -39 5 -42 33 -42 42 0 41 -36 -1 -45 l-31 -7 3
-106 3 -107 30 -5 c22 -4 30 -11 30 -25 0 -17 -7 -20 -50 -20 -67 0 -75 17
-75 163 l0 112 -30 0 c-23 0 -30 4 -30 20 0 16 7 20 30 20 28 0 30 2 30 39 0
39 11 51 40 48 10 -2 16 -16 18 -45z m1052 -2 c0 -38 2 -40 30 -40 23 0 30 -4
30 -20 0 -16 -7 -20 -30 -20 l-31 0 3 -112 3 -113 26 -3 c25 -3 45 -33 31 -46
-11 -12 -79 -6 -98 8 -17 13 -19 28 -21 138 -1 95 -4 123 -15 124 -7 1 -21 2
-30 3 -11 1 -18 9 -18 21 0 16 7 20 30 20 28 0 30 2 30 40 0 38 2 40 30 40 28
0 30 -2 30 -40z m-1585 -60 c29 -24 55 -88 55 -135 0 -59 -19 -104 -59 -138
-46 -38 -126 -39 -171 -1 -43 37 -60 75 -60 134 0 83 44 150 105 162 33 6 112
-7 130 -22z m822 -14 c-4 -9 -18 -16 -34 -16 -14 0 -37 -10 -50 -22 -21 -20
-23 -29 -23 -135 l0 -114 -26 3 -26 3 0 155 c-1 154 0 155 22 158 13 2 26 -1
29 -7 5 -7 19 -6 46 4 34 11 42 11 54 0 7 -7 11 -21 8 -29z m256 5 c19 -19 23
-36 27 -139 3 -64 8 -123 10 -131 7 -20 -27 -26 -55 -11 -17 9 -28 9 -43 1
-11 -6 -40 -11 -64 -11 -90 0 -132 98 -70 160 27 27 45 32 142 42 31 4 30 34
-3 61 -26 23 -74 16 -99 -13 -17 -21 -53 -27 -62 -11 -10 16 44 70 77 79 45
12 115 -2 140 -27z m340 -11 c35 -39 36 -70 3 -70 -17 0 -29 9 -38 27 -18 38
-68 52 -103 29 -35 -23 -48 -60 -43 -123 6 -69 27 -93 84 -93 33 0 46 5 61 24
23 31 56 38 61 13 2 -11 -10 -32 -32 -53 -31 -30 -41 -34 -90 -34 -45 0 -60 5
-87 27 -60 51 -76 140 -40 220 39 85 161 104 224 33z m-1239 24 c5 -14 8 -14
28 0 13 9 43 16 71 16 38 0 53 -5 72 -25 24 -23 25 -29 25 -160 l0 -135 -25 0
-25 0 0 108 c0 129 -4 146 -37 161 -35 16 -91 -3 -98 -32 -3 -12 -6 -69 -8
-127 l-2 -105 -27 -3 -28 -3 0 160 0 161 24 0 c13 0 27 -7 30 -16z"/>
<path d="M6960 13941 l0 -208 73 4 c90 6 119 17 157 59 35 40 44 80 38 173 -7
122 -72 181 -201 181 l-67 0 0 -209z"/>
<path d="M13994 14137 c-3 -8 -3 -56 -2 -108 l3 -94 82 0 c75 0 85 2 107 25
36 36 43 96 16 138 -11 18 -32 37 -46 42 -39 15 -154 13 -160 -3z"/>
<path d="M7848 13855 c-3 -3 -31 -10 -63 -15 -64 -10 -95 -32 -95 -65 0 -33
31 -55 78 -55 57 0 100 39 104 94 3 35 -9 56 -24 41z"/>
<path d="M8193 13995 c-12 -8 -29 -35 -39 -60 -15 -39 -15 -53 -5 -99 16 -71
48 -101 107 -101 61 0 95 35 102 104 10 110 -25 171 -100 171 -24 0 -53 -7
-65 -15z"/>
<path d="M9088 13855 c-3 -3 -31 -10 -63 -15 -64 -10 -95 -32 -95 -66 0 -36
26 -54 80 -54 42 0 52 4 74 31 33 39 37 137 4 104z"/>
<path d="M13364 14011 c-28 -12 -64 -59 -64 -82 0 -17 9 -19 105 -19 98 0 105
1 105 20 0 11 -12 33 -27 50 -30 33 -82 46 -119 31z"/>
<path d="M14506 13985 c-44 -47 -52 -148 -18 -212 32 -59 110 -72 155 -25 54
57 55 185 2 238 -35 35 -107 34 -139 -1z"/>
<path d="M15607 13985 c-60 -61 -52 -202 15 -249 44 -31 123 -11 145 37 23 50
26 116 8 162 -21 55 -47 75 -101 75 -31 0 -48 -6 -67 -25z"/>
<path d="M17273 14009 c-111 -32 -102 -253 11 -275 72 -13 126 45 126 136 0
72 -22 118 -64 135 -20 8 -37 15 -38 14 -2 0 -18 -5 -35 -10z"/>
<path d="M18893 14001 c-33 -21 -53 -49 -53 -75 0 -14 16 -16 106 -16 l106 0
-7 28 c-16 66 -94 99 -152 63z"/>
<path d="M19917 13853 c-4 -3 -33 -10 -64 -14 -83 -11 -112 -55 -71 -106 18
-23 103 -16 133 10 32 27 49 117 23 117 -8 0 -18 -3 -21 -7z"/>
<path d="M20766 13986 c-31 -35 -44 -84 -36 -143 7 -59 31 -100 66 -113 45
-18 75 -11 109 23 58 58 56 191 -3 238 -37 29 -107 26 -136 -5z"/>
<path d="M11725 12052 c-23 -15 -50 -47 -62 -72 l-23 -44 0 -2596 c1 -2763 -1
-2639 47 -2692 10 -11 35 -29 55 -39 36 -19 114 -19 3093 -19 2544 0 3061 2
3088 14 43 18 94 77 107 125 7 27 9 841 8 2627 -3 2172 -5 2593 -17 2614 -7
14 -25 38 -40 53 -56 61 186 57 -3155 57 l-3061 -1 -40 -27z m1945 -861 c0
-163 -2 -190 -16 -195 -9 -3 -20 -4 -25 0 -10 6 -13 367 -2 377 3 4 15 7 25 7
17 0 18 -12 18 -189z m1044 121 c-1 -60 0 -63 20 -57 12 4 38 9 58 12 32 4 42
0 67 -24 50 -51 54 -166 6 -220 -19 -24 -30 -27 -71 -26 -27 2 -66 3 -86 3
l-38 0 0 191 0 190 23 -3 c20 -3 22 -8 21 -66z m571 -122 l0 -185 -28 -3 -27
-3 0 184 c1 102 4 188 8 191 3 4 15 6 27 4 19 -3 20 -9 20 -188z m-1785 155
c33 -17 65 -69 56 -91 -10 -25 -35 -15 -50 20 -28 67 -124 65 -159 -4 -14 -27
-17 -51 -14 -109 4 -69 7 -77 36 -103 40 -36 83 -37 116 -3 14 13 25 31 25 40
0 9 9 15 25 15 30 0 31 -14 5 -57 -38 -63 -120 -81 -180 -40 -51 34 -69 66
-76 132 -8 79 9 140 51 182 29 29 40 33 84 33 29 0 65 -7 81 -15z m417 -99
c27 -23 28 -29 33 -135 4 -88 2 -112 -9 -116 -7 -3 -19 -1 -26 5 -9 7 -27 7
-59 -2 -40 -11 -51 -10 -74 3 -94 53 -43 159 77 159 44 0 51 12 31 51 -15 27
-75 26 -92 -1 -7 -11 -23 -20 -36 -20 -34 0 -25 29 17 57 46 31 101 30 138 -1z
m275 -6 c16 -17 28 -36 25 -43 -7 -22 -38 -19 -58 7 -30 39 -99 29 -99 -14 0
-14 13 -22 56 -35 61 -18 104 -52 104 -84 0 -11 -11 -33 -24 -48 -21 -25 -31
-28 -80 -27 -44 0 -61 5 -81 24 -27 26 -33 60 -10 60 8 0 25 -11 39 -25 42
-41 114 -27 104 21 -4 21 -20 30 -76 44 -82 21 -104 70 -53 121 24 24 38 29
76 29 38 0 52 -5 77 -30z m265 -5 c40 -46 11 -75 -30 -31 -38 41 -107 31 -107
-15 0 -12 18 -23 62 -38 73 -25 98 -45 98 -81 0 -45 -41 -74 -105 -74 -43 0
-59 4 -80 24 -27 26 -34 60 -10 60 8 0 25 -11 39 -25 16 -15 36 -25 55 -25 28
0 61 22 61 40 0 15 -42 38 -82 45 -44 8 -88 46 -88 75 0 12 14 35 30 52 28 28
35 30 82 26 40 -4 57 -11 75 -33z m672 8 c29 -27 30 -31 33 -136 l3 -109 -32
5 c-18 3 -45 1 -61 -5 -62 -24 -125 18 -120 79 4 47 40 74 107 81 60 5 69 14
47 47 -22 33 -65 33 -100 0 -15 -14 -31 -25 -36 -25 -18 0 -21 21 -6 42 39 55
118 65 165 21z m391 12 c35 -18 39 -30 42 -158 l3 -99 -32 5 c-18 3 -45 1 -61
-5 -97 -37 -168 82 -83 139 22 15 49 23 77 23 51 0 61 12 40 45 -20 31 -68 33
-96 5 -18 -18 -60 -28 -60 -14 0 16 24 45 48 58 35 20 86 20 122 1z m158 3 c9
-9 18 -9 37 0 46 21 81 15 109 -19 24 -28 26 -37 26 -133 0 -57 -3 -105 -6
-108 -3 -3 -14 -4 -25 -1 -17 5 -19 15 -19 101 0 75 -4 99 -17 114 -20 22 -51
23 -81 2 -20 -14 -22 -23 -22 -114 0 -70 -4 -100 -12 -103 -34 -11 -38 4 -38
132 0 70 3 131 7 134 10 11 28 8 41 -5z m395 1 c29 -15 56 -50 57 -71 0 -28
-34 -21 -58 12 -42 56 -106 32 -119 -43 -16 -100 62 -166 121 -102 26 28 56
33 56 10 0 -22 -43 -63 -74 -71 -73 -18 -139 30 -151 110 -17 114 78 201 168
155z m287 -16 c22 -21 32 -40 36 -75 l7 -48 -92 0 c-85 0 -91 -1 -91 -20 0
-30 44 -70 77 -70 16 0 39 7 52 16 16 12 26 13 33 6 27 -27 -58 -69 -117 -58
-37 7 -81 52 -91 92 -10 38 2 104 24 133 42 57 113 68 162 24z m-1297 -1673
c81 -46 147 -87 147 -91 0 -4 -44 -33 -97 -64 -54 -32 -123 -72 -153 -90 l-55
-33 -3 74 -3 74 -219 0 -220 0 0 35 0 35 221 0 220 0 -1 68 c-2 84 -2 84 8 80
5 -1 75 -41 155 -88z m-1926 -600 l2 -535 58 -3 58 -3 0 536 0 536 383 2 c249
1 382 -1 382 -8 0 -5 1 -247 2 -537 l3 -528 170 -2 170 -3 0 -25 0 -25 -1100
0 c-605 0 -1112 2 -1127 4 -22 2 -28 9 -28 27 l0 24 130 0 131 0 -1 533 c0
292 -1 534 0 537 0 3 172 5 383 5 l382 -1 2 -534z m4241 -540 l172 0 0 -30 0
-30 -1127 3 -1128 2 0 25 0 25 270 5 c149 3 578 4 955 2 377 -1 763 -2 858 -2z
m-4465 -260 c35 0 57 -58 57 -148 0 -120 -20 -152 -95 -152 -75 0 -95 32 -95
150 0 114 33 169 95 155 11 -3 28 -5 38 -5z m902 -21 c15 -15 21 -37 26 -97 9
-133 -16 -182 -95 -182 -33 0 -48 6 -67 26 -21 22 -24 37 -27 113 -6 131 25
177 108 164 19 -3 44 -14 55 -24z m2333 -6 c22 -24 24 -33 20 -130 -3 -97 -5
-106 -27 -124 -18 -15 -36 -19 -69 -17 -64 4 -82 32 -89 135 -9 123 27 179
107 167 20 -3 45 -16 58 -31z m624 10 c28 -25 32 -63 8 -95 l-21 -29 20 -26
c49 -61 8 -133 -74 -133 -35 0 -52 6 -70 25 -27 26 -33 55 -12 55 7 0 23 -11
35 -25 24 -27 69 -34 90 -13 34 34 -2 98 -55 98 -14 0 -23 6 -23 15 0 9 9 15
25 15 25 0 65 31 65 51 0 51 -61 66 -100 24 -41 -44 -69 -25 -32 22 33 43 104
51 144 16z m209 17 c54 -15 72 -59 67 -160 -4 -103 -25 -134 -91 -138 -64 -4
-93 24 -102 101 -14 108 10 180 65 200 22 8 22 8 61 -3z m-4253 -16 c-2 -13
-16 -17 -63 -18 l-60 -1 -3 -38 c-3 -36 -2 -37 22 -31 41 10 75 -4 96 -39 28
-45 25 -89 -6 -126 -22 -26 -33 -31 -70 -31 -34 0 -51 6 -69 25 -26 25 -33 55
-14 55 7 0 22 -11 35 -25 30 -32 69 -33 89 -1 22 34 15 75 -17 99 -24 18 -28
18 -58 3 -18 -8 -36 -13 -41 -10 -11 6 -11 43 -3 108 l7 46 79 0 c68 0 79 -2
76 -16z m531 9 c0 -5 -26 -78 -57 -163 -43 -117 -62 -156 -76 -158 -23 -5 -25
-13 43 168 28 74 53 141 56 148 5 13 35 17 34 5z m341 -8 c0 -12 -13 -15 -60
-15 -33 0 -60 -4 -60 -9 0 -5 -3 -22 -6 -39 -6 -30 -6 -30 32 -25 69 9 119
-57 100 -132 -17 -66 -112 -90 -161 -40 -27 26 -33 55 -12 55 7 0 23 -11 35
-25 39 -45 102 -22 102 38 0 54 -50 84 -99 58 -32 -18 -41 0 -34 77 l6 72 78
0 c64 0 79 -3 79 -15z m2340 5 c0 -5 -13 -37 -29 -72 -16 -35 -45 -98 -64
-140 -27 -59 -41 -78 -56 -78 -18 0 -14 13 40 126 32 69 59 130 59 135 0 5
-36 9 -80 9 -64 0 -80 3 -80 15 0 12 18 15 105 15 60 0 105 -4 105 -10z m468
-147 c-33 -87 -65 -164 -73 -172 -31 -31 -26 3 12 101 37 93 69 182 79 216 2
6 12 12 22 12 17 0 12 -18 -40 -157z m-3140 -525 c3 -16 -5 -18 -55 -18 l-58
0 0 -162 0 -163 -23 0 -23 0 -2 160 -2 160 -57 3 c-55 3 -72 15 -51 36 4 3 66
5 137 4 115 -3 131 -5 134 -20z m527 3 c0 -8 -8 -19 -17 -25 -22 -13 -44 5
-34 29 7 20 51 16 51 -4z m400 -6 c0 -30 -39 -27 -43 3 -3 20 0 23 20 20 15
-2 23 -10 23 -23z m949 11 c18 -8 46 -30 61 -51 24 -31 29 -48 33 -113 3 -68
1 -81 -20 -112 -36 -54 -99 -81 -178 -78 -45 2 -65 7 -64 16 1 6 2 89 3 182
l1 170 65 0 c36 0 81 -6 99 -14z m506 -45 c0 -23 5 -30 23 -33 12 -2 22 -10
22 -18 0 -8 -10 -16 -22 -18 -21 -3 -23 -9 -24 -60 0 -31 -2 -66 -5 -77 -7
-35 5 -63 29 -67 33 -5 28 -33 -8 -36 -54 -4 -60 7 -65 125 -5 103 -6 108 -28
111 -29 4 -26 37 3 37 14 0 20 7 21 25 2 39 2 40 29 40 21 0 25 -5 25 -29z
m972 -3 c-2 -22 2 -29 23 -34 31 -8 33 -31 3 -36 -21 -3 -23 -9 -26 -78 -4
-95 2 -118 31 -122 33 -5 28 -32 -8 -36 -59 -6 -70 14 -70 129 -1 101 -1 103
-25 109 -34 8 -36 28 -3 32 21 2 27 8 25 22 -5 30 6 48 30 44 18 -2 22 -9 20
-30z m-3285 -43 c5 -14 8 -14 29 0 37 24 64 20 64 -10 0 -21 -5 -25 -29 -25
-16 0 -33 -6 -39 -13 -6 -7 -13 -58 -14 -113 -3 -91 -5 -99 -23 -99 -19 0 -20
8 -23 124 -1 69 0 131 2 138 7 18 25 16 33 -2z m311 -21 c19 -22 22 -36 22
-119 0 -51 3 -100 6 -109 7 -19 -26 -22 -44 -4 -9 9 -18 9 -37 0 -105 -48
-195 72 -101 134 14 9 49 19 78 23 45 5 53 9 50 26 -7 45 -75 61 -107 25 -10
-11 -26 -20 -37 -20 -21 0 -22 4 -7 31 28 53 135 61 177 13z m137 -104 c0
-128 -1 -135 -20 -135 -19 0 -20 8 -23 124 -3 138 0 154 25 149 16 -3 18 -18
18 -138z m120 123 c11 -15 14 -15 36 0 36 26 76 21 110 -13 30 -29 30 -29 27
-137 -3 -100 -4 -108 -23 -108 -18 0 -20 8 -25 108 -5 114 -11 127 -58 127
-42 0 -57 -32 -62 -138 -5 -89 -7 -97 -25 -97 -19 0 -20 8 -23 124 -1 69 0
131 2 138 7 18 26 16 41 -4z m290 -123 c0 -128 -1 -135 -20 -135 -19 0 -20 8
-23 124 -3 138 0 154 25 149 16 -3 18 -18 18 -138z m240 130 c37 -14 51 -60
50 -170 0 -91 -1 -95 -22 -98 -23 -3 -23 -1 -23 95 0 133 -22 164 -90 130 -24
-12 -25 -18 -30 -117 -5 -100 -6 -105 -27 -108 -23 -3 -23 -3 -23 132 0 127 1
136 19 136 11 0 21 -6 24 -12 3 -10 11 -9 33 4 34 20 53 22 89 8z m265 -7 c17
-12 25 -13 28 -5 2 7 12 12 23 12 18 0 19 -9 19 -145 0 -154 -9 -193 -49 -215
-47 -24 -161 0 -161 35 0 24 19 27 46 6 46 -36 94 -23 113 30 13 38 7 48 -19
31 -24 -15 -75 -16 -102 -1 -25 13 -57 84 -58 126 0 104 89 175 160 126z m786
-15 c20 -21 23 -34 25 -133 3 -100 1 -110 -15 -113 -10 -2 -22 2 -27 9 -6 10
-13 10 -34 1 -63 -29 -135 3 -135 59 0 62 30 87 114 98 44 6 51 9 48 26 -2 11
-9 26 -14 33 -16 19 -66 14 -88 -8 -20 -20 -60 -28 -60 -12 0 11 50 58 70 65
30 12 93 -1 116 -25z m419 18 c43 -18 55 -58 55 -178 0 -78 -2 -88 -18 -88
-10 0 -23 5 -29 11 -8 8 -17 8 -31 0 -60 -32 -142 6 -142 66 0 57 52 93 138
93 25 0 32 4 32 19 0 52 -64 66 -112 25 -21 -16 -34 -22 -41 -15 -15 15 -1 39
35 61 39 24 67 25 113 6z m270 0 c34 -15 61 -49 50 -66 -10 -17 -30 -11 -53
15 -37 42 -110 27 -100 -21 2 -12 23 -24 61 -35 87 -26 112 -58 91 -114 -9
-24 -58 -45 -103 -45 -45 0 -101 39 -101 71 0 26 24 24 54 -6 31 -31 76 -33
102 -4 19 21 18 21 -5 40 -13 10 -29 19 -37 19 -32 0 -92 33 -102 56 -15 31 2
70 37 89 33 18 63 18 106 1z m275 -3 c32 -19 47 -46 56 -103 l7 -40 -92 0
c-84 0 -91 -1 -91 -20 0 -51 79 -78 129 -44 17 12 26 13 34 5 19 -19 -25 -53
-75 -58 -58 -7 -105 17 -124 62 -53 127 52 260 156 198z"/>
<path d="M14730 11203 c-19 -24 -21 -36 -16 -83 14 -127 136 -118 136 10 0 90
-72 134 -120 73z"/>
<path d="M13825 11122 c-47 -9 -59 -46 -26 -76 38 -34 101 -2 101 52 0 21 -35
31 -75 24z"/>
<path d="M15051 11121 c-18 -3 -40 -16 -48 -28 -13 -19 -12 -24 6 -42 12 -12
30 -21 41 -21 30 0 72 46 68 73 -3 24 -16 28 -67 18z"/>
<path d="M15460 11122 c-45 -5 -62 -19 -58 -51 2 -18 12 -29 31 -35 37 -13 82
19 82 59 0 31 -4 33 -55 27z"/>
<path d="M16242 11207 c-12 -13 -22 -31 -22 -40 0 -14 10 -17 68 -14 61 2 67
4 64 22 -10 55 -72 73 -110 32z"/>
<path d="M12840 8130 c-17 -17 -20 -33 -20 -103 0 -92 15 -127 55 -127 40 0
55 35 55 127 0 70 -3 86 -20 103 -11 11 -27 20 -35 20 -8 0 -24 -9 -35 -20z"/>
<path d="M13730 8143 c-31 -11 -40 -37 -40 -118 0 -95 15 -125 61 -125 43 0
63 51 56 144 -4 57 -9 73 -27 88 -23 19 -26 20 -50 11z"/>
<path d="M16059 8143 c-25 -6 -39 -48 -39 -121 0 -89 15 -117 60 -117 31 0 36
4 47 35 25 74 7 186 -32 200 -11 3 -27 5 -36 3z"/>
<path d="M16919 8131 c-21 -17 -24 -29 -27 -98 -3 -95 10 -127 55 -131 47 -5
63 25 63 121 0 69 -3 81 -25 102 -29 30 -36 31 -66 6z"/>
<path d="M15029 7463 c0 -5 -1 -69 -1 -143 0 -133 1 -135 23 -138 13 -2 40 1
62 8 55 16 77 57 77 144 0 64 -2 70 -34 102 -29 29 -41 34 -80 34 -25 0 -46
-3 -47 -7z"/>
<path d="M13515 7257 c-13 -10 -16 -21 -11 -40 13 -54 101 -43 117 15 4 15 4
29 1 32 -11 11 -89 6 -107 -7z"/>
<path d="M14615 7355 c-30 -29 -34 -98 -10 -145 13 -25 22 -30 50 -30 58 0 75
27 71 107 -3 49 -9 70 -22 80 -27 20 -62 15 -89 -12z"/>
<path d="M15356 7254 c-21 -20 -20 -37 2 -57 39 -35 102 -8 102 44 0 28 -2 29
-44 29 -27 0 -51 -6 -60 -16z"/>
<path d="M15802 7258 c-7 -7 -12 -21 -12 -33 0 -44 49 -59 95 -29 17 11 25 26
25 45 0 28 -2 29 -48 29 -26 0 -53 -5 -60 -12z"/>
<path d="M16352 7357 c-40 -43 -30 -56 43 -56 58 0 65 2 65 20 0 26 -35 59
-63 59 -13 0 -33 -10 -45 -23z"/>
<path d="M20985 12064 c-43 -22 -64 -44 -86 -86 -19 -37 -19 -101 -17 -2657
l3 -2619 30 -38 c17 -20 46 -45 65 -55 34 -18 130 -19 2967 -19 2052 0 2940 3
2960 11 38 14 71 46 94 92 20 37 20 84 23 2620 1 1420 -1 2600 -6 2622 -10 50
-60 113 -104 131 -28 12 -499 14 -2966 14 -2640 0 -2936 -2 -2963 -16z m1529
-512 c3 -5 6 -100 7 -213 1 -187 0 -204 -16 -207 -10 -2 -21 2 -26 10 -7 10
-12 11 -29 1 -11 -7 -37 -13 -59 -13 -58 0 -96 36 -112 104 -15 69 -5 118 32
161 37 42 78 52 120 31 18 -9 34 -16 36 -16 1 0 3 31 3 68 0 38 3 72 7 75 9
10 31 9 37 -1z m441 -207 l0 -210 -25 0 c-23 0 -25 3 -23 45 1 25 2 121 2 213
l1 168 23 -3 22 -3 0 -210z m1903 -3 c2 -170 0 -212 -11 -212 -7 0 -18 5 -25
12 -9 9 -18 9 -37 0 -63 -29 -126 -8 -155 53 -44 90 -11 208 66 234 36 13 44
12 74 -2 18 -10 35 -17 37 -17 1 0 3 31 3 68 0 72 4 85 30 80 13 -3 15 -33 18
-216z m-3254 60 c27 -70 56 -143 64 -162 l15 -35 15 35 c8 19 38 94 66 165 50
126 52 130 81 130 l30 0 3 -203 2 -203 -22 3 c-22 3 -23 6 -28 153 -3 95 -8
143 -13 130 -5 -11 -32 -78 -60 -149 -29 -71 -58 -131 -65 -133 -23 -10 -40
18 -93 157 -30 77 -56 140 -60 140 -3 0 -5 -66 -5 -147 1 -146 1 -148 -21
-151 -20 -3 -23 1 -23 35 -1 21 -2 111 -3 200 -2 98 1 164 7 166 5 2 21 1 35
-1 23 -4 31 -18 75 -130z m1621 108 c0 -29 -32 -41 -41 -16 -9 24 4 48 23 44
12 -2 18 -12 18 -28z m756 11 c43 -16 69 -58 69 -110 0 -84 -50 -121 -164
-121 l-65 0 -3 -77 c-3 -76 -4 -78 -28 -78 l-25 0 -3 190 c-1 104 0 195 3 203
4 10 26 12 98 8 51 -2 104 -9 118 -15z m1799 4 c10 -12 10 -18 0 -30 -25 -30
-61 -7 -46 30 3 8 12 15 19 15 8 0 20 -7 27 -15z m-168 -52 c3 -33 6 -38 28
-38 37 0 35 -39 -2 -43 l-28 -3 0 -98 c0 -100 9 -126 41 -119 8 2 14 -5 14
-17 0 -29 -57 -33 -84 -6 -19 19 -21 33 -21 131 l0 110 -26 0 c-21 0 -25 4
-22 23 2 14 10 22 23 22 16 0 21 8 23 38 3 31 7 37 27 37 20 0 24 -6 27 -37z
m-3434 -77 c29 -28 34 -42 39 -92 7 -74 -13 -126 -59 -154 -62 -38 -153 -19
-181 38 -48 94 -14 217 66 241 50 15 98 3 135 -33z m585 30 c44 -18 67 -55 70
-113 l2 -48 -97 -3 c-101 -3 -107 -6 -86 -45 26 -49 86 -62 129 -28 26 19 49
18 49 -4 0 -28 -51 -55 -105 -55 -84 0 -135 56 -135 150 0 87 52 152 128 159
7 0 27 -5 45 -13z m736 -1 c39 -20 43 -34 46 -162 3 -119 -2 -137 -31 -131
-17 3 -19 15 -22 118 -1 63 -8 120 -14 127 -19 23 -74 16 -96 -12 -17 -22 -20
-38 -17 -125 2 -90 1 -100 -16 -105 -10 -4 -23 -3 -29 0 -6 4 -10 64 -10 151
l0 144 24 0 c13 0 26 -5 28 -12 3 -9 13 -8 39 5 42 21 62 21 98 2z m759 -12
c3 -19 -1 -23 -23 -23 -14 0 -37 -11 -50 -24 -22 -22 -24 -30 -21 -120 3 -82
1 -98 -13 -106 -10 -5 -21 -6 -27 -2 -5 4 -9 70 -9 147 0 127 2 140 18 143 10
2 25 -2 33 -9 12 -10 18 -9 32 5 23 23 56 17 60 -11z m242 -1 c78 -58 79 -207
1 -259 -45 -30 -107 -31 -152 0 -62 42 -77 169 -27 232 43 55 123 67 178 27z
m913 14 c59 -25 93 -88 51 -94 -14 -2 -24 5 -32 22 -14 32 -68 49 -97 31 -30
-19 -45 -55 -45 -113 0 -43 5 -58 25 -77 36 -37 106 -28 120 14 7 22 39 29 50
11 9 -14 -24 -59 -56 -76 -41 -21 -101 -18 -133 7 -39 30 -56 71 -56 131 0 68
25 118 70 140 42 22 61 22 103 4z m647 -14 c74 -54 80 -195 11 -256 -13 -12
-41 -21 -74 -23 -97 -7 -154 56 -145 165 5 61 29 99 79 125 40 21 91 17 129
-11z m317 8 c39 -23 45 -50 41 -185 -3 -92 -5 -100 -23 -100 -19 0 -20 8 -25
112 -4 87 -9 116 -22 129 -26 26 -68 21 -96 -12 -23 -27 -24 -33 -19 -119 7
-96 1 -119 -29 -113 -18 3 -19 14 -19 148 0 134 1 145 19 148 10 2 22 -2 27
-10 7 -11 13 -10 36 4 38 22 72 22 110 -2z m-3149 -137 l-3 -148 -25 0 c-17 0
-25 5 -24 18 0 9 1 76 2 147 l2 130 25 0 26 0 -3 -147z m1762 34 c0 -101 2
-116 20 -132 14 -13 28 -16 51 -11 56 11 59 18 59 142 l0 114 25 0 25 0 0
-145 c0 -121 -3 -147 -15 -151 -8 -4 -22 -1 -29 6 -11 8 -20 8 -35 1 -22 -12
-80 -15 -106 -5 -33 13 -45 59 -45 179 l0 115 25 0 25 0 0 -113z m788 -34 c-3
-145 -3 -148 -25 -151 -23 -3 -23 -3 -23 147 l0 151 25 0 26 0 -3 -147z
m-1681 -743 c82 -49 117 -167 94 -317 -8 -49 -14 -96 -15 -106 -1 -15 14 -17
175 -20 169 -2 177 -3 212 -27 60 -41 83 -124 52 -184 -14 -26 -14 -33 1 -71
18 -49 8 -104 -27 -149 -16 -21 -19 -34 -14 -68 7 -49 -6 -92 -39 -128 -16
-17 -25 -41 -28 -76 -5 -57 -29 -95 -73 -119 -26 -14 -69 -16 -330 -13 l-300
3 -58 27 c-53 25 -58 26 -64 10 -3 -9 -15 -27 -26 -39 -20 -22 -27 -23 -183
-23 l-162 0 -26 31 -26 31 0 310 c0 409 -10 392 228 386 123 -3 143 -5 162
-23 22 -19 22 -19 41 5 36 46 176 255 193 287 10 20 20 74 25 140 7 98 10 108
35 130 35 30 107 31 153 3z m-1539 -1632 c8 -8 12 -65 12 -190 0 -153 -2 -179
-16 -185 -8 -3 -20 -1 -26 5 -8 8 -17 8 -32 0 -24 -13 -79 -13 -105 1 -68 37
-66 213 2 250 30 16 77 17 105 2 22 -11 22 -11 22 52 0 76 10 93 38 65z m402
-190 l0 -189 -22 3 c-23 3 -23 5 -25 183 -2 179 3 210 33 198 11 -4 14 -40 14
-195z m1835 6 l0 -189 -24 -3 c-13 -2 -27 2 -31 8 -6 9 -13 9 -28 1 -35 -18
-88 -13 -117 12 -52 45 -53 173 -2 225 27 27 72 34 115 19 21 -8 22 -6 22 52
0 54 2 60 23 64 12 2 27 3 32 2 6 -1 10 -73 10 -191z m-1569 172 c15 -12 17
-18 8 -33 -16 -27 -50 -28 -64 -3 -9 16 -8 25 1 36 15 18 30 18 55 0z m2451 6
c33 -21 6 -73 -31 -59 -19 7 -22 53 -3 60 17 8 21 8 34 -1z m-1748 -11 c12 0
38 -16 57 -35 28 -28 34 -42 34 -76 0 -34 -6 -48 -34 -76 -34 -34 -35 -35
-146 -38 -24 -1 -25 -4 -28 -68 l-3 -68 -34 0 -35 0 0 178 c0 98 2 181 5 184
4 4 104 4 184 -1z m-2191 -143 c31 -76 59 -138 62 -138 4 0 32 62 63 138 53
132 56 137 86 140 l31 3 0 -180 c0 -174 -1 -181 -20 -181 -19 0 -20 7 -20 137
0 77 -4 133 -9 128 -4 -6 -22 -46 -40 -90 -89 -225 -93 -225 -165 -38 -28 73
-54 133 -57 133 -3 0 -3 -61 -1 -135 l5 -135 -27 0 -26 0 0 181 0 180 31 -3
c30 -3 33 -8 87 -140z m3790 85 c2 -25 8 -33 23 -33 14 0 19 -7 19 -25 0 -19
-5 -25 -17 -23 -16 3 -18 -8 -21 -84 -3 -84 -2 -87 20 -90 15 -2 24 -11 26
-25 3 -21 -1 -23 -42 -23 -64 0 -76 21 -76 132 0 86 -1 89 -26 98 -30 12 -27
34 4 38 18 3 22 10 22 38 0 34 1 35 33 32 28 -3 32 -7 35 -35z m-3313 -37
c108 -45 99 -229 -12 -264 -35 -11 -46 -11 -77 2 -67 28 -96 120 -63 199 17
40 38 57 80 67 17 4 33 8 35 9 1 1 18 -5 37 -13z m1274 -1 c16 -8 31 -22 35
-30 3 -9 6 -66 6 -126 l0 -109 -30 0 -30 0 0 99 c0 92 -2 101 -22 115 -26 18
-37 19 -58 6 -11 -7 -16 -36 -20 -112 l-5 -103 -30 0 -30 0 0 130 c0 129 0
130 24 133 13 2 27 -1 30 -7 5 -7 19 -6 46 4 51 18 50 18 84 0z m731 -24 c0
-24 -4 -28 -25 -28 -47 0 -55 -17 -55 -119 l0 -94 -30 0 -30 0 0 135 c0 134 0
135 23 135 13 0 28 -5 33 -10 7 -7 20 -6 39 4 35 18 45 13 45 -23z m238 12
c68 -43 67 -191 -1 -236 -32 -21 -108 -22 -146 -2 -32 16 -61 77 -61 126 0
106 119 170 208 112z m899 0 c23 -15 47 -69 34 -77 -13 -8 -44 0 -55 16 -6 8
-21 20 -34 27 -19 10 -28 10 -48 -3 -13 -9 -27 -28 -30 -42 -8 -31 1 -91 17
-110 17 -21 66 -17 86 6 17 19 53 27 66 14 11 -11 -24 -61 -50 -73 -13 -6 -44
-11 -69 -11 -39 0 -51 5 -80 34 -31 31 -34 40 -34 90 0 108 55 164 145 148 16
-2 40 -11 52 -19z m601 -1 c33 -22 52 -64 52 -117 0 -89 -45 -135 -131 -135
-44 0 -55 4 -84 33 -19 19 -36 48 -40 69 -14 72 32 160 88 171 33 6 89 -4 115
-21z m320 -9 c8 -11 12 -53 12 -120 0 -57 1 -106 3 -110 1 -5 -13 -9 -30 -11
l-33 -3 0 100 c0 96 -1 101 -25 117 -23 15 -27 15 -50 0 -24 -16 -25 -21 -25
-117 l0 -100 -32 3 c-37 3 -34 -15 -30 173 2 92 3 95 25 95 13 0 28 -5 35 -12
8 -8 15 -8 24 -1 31 26 102 18 126 -14z m-3470 11 c28 -19 38 -39 47 -91 l7
-43 -97 0 c-95 0 -96 0 -89 -22 16 -56 58 -75 111 -53 49 21 73 13 48 -15 -44
-48 -134 -43 -179 11 -46 54 -31 173 26 213 29 20 97 20 126 0z m422 -119 l0
-135 -29 0 -30 0 -3 131 c-2 72 -1 133 1 135 2 2 17 4 33 4 l28 0 0 -135z
m1700 37 c0 -107 7 -122 51 -122 51 0 61 23 58 124 l-4 91 33 3 32 3 0 -135
c0 -135 0 -136 -23 -136 -13 0 -28 5 -34 11 -8 8 -17 8 -31 0 -33 -18 -87 -13
-116 10 -25 20 -26 23 -26 135 l0 114 30 0 30 0 0 -98z m764 81 c-1 -7 -2 -67
-2 -133 l-2 -120 -30 0 -30 0 0 136 0 135 33 -3 c18 -2 32 -8 31 -15z m-1574
-458 c0 -60 9 -80 25 -55 10 16 78 12 104 -6 53 -37 68 -146 28 -205 -12 -19
-35 -40 -51 -48 -24 -11 -34 -11 -70 3 -25 10 -42 12 -44 6 -2 -5 -12 -10 -23
-10 -18 0 -19 9 -19 190 l0 190 25 0 c24 0 25 -2 25 -65z m730 -125 c0 -183
-1 -190 -20 -190 -11 0 -20 4 -20 9 0 5 -17 3 -38 -6 -34 -13 -43 -13 -75 0
-53 23 -72 69 -68 169 1 15 15 43 33 64 28 32 36 35 72 32 23 -3 49 -8 59 -12
15 -7 17 -1 17 58 0 59 2 66 20 66 19 0 20 -7 20 -190z m250 -1 l0 -190 -22 3
c-22 3 -23 6 -26 176 -2 95 -1 179 2 187 3 8 15 15 26 15 19 0 20 -6 20 -191z
m-1800 151 c0 -10 -6 -20 -12 -23 -21 -7 -38 4 -38 23 0 10 6 20 13 23 20 7
37 -4 37 -23z m-1435 -95 c14 -13 25 -34 25 -47 0 -13 1 -62 3 -111 2 -73 -1
-87 -13 -87 -9 0 -21 5 -26 10 -7 7 -21 5 -42 -6 -41 -20 -85 -11 -112 23 -27
34 -25 66 4 100 20 23 34 29 82 33 42 3 60 9 62 20 9 48 -76 73 -109 32 -18
-23 -44 -29 -53 -13 -3 5 7 23 23 40 25 27 36 31 80 31 42 0 57 -5 76 -25z
m147 14 c3 -9 9 -9 25 0 37 19 91 14 118 -13 48 -48 56 -157 14 -210 -30 -38
-81 -51 -120 -32 -18 9 -34 16 -36 16 -1 0 -3 -27 -3 -60 0 -53 -2 -60 -20
-60 -18 0 -19 9 -22 181 -2 99 -1 183 1 185 9 9 40 3 43 -7z m286 -1 c9 -9 15
-9 24 0 20 20 95 15 118 -8 48 -48 55 -153 15 -213 -23 -34 -30 -37 -71 -37
-25 0 -54 5 -65 10 -18 10 -19 7 -19 -49 0 -60 -7 -75 -32 -66 -10 4 -13 46
-15 190 -2 170 -1 185 16 185 9 0 22 -5 29 -12z m288 1 c4 -8 9 -8 17 0 6 6
24 11 39 11 21 0 28 -5 28 -20 0 -14 -7 -20 -23 -20 -46 0 -61 -32 -61 -133
-1 -88 -2 -92 -23 -95 -23 -3 -23 -3 -23 132 0 128 1 136 19 136 11 0 23 -5
27 -11z m288 1 c62 -23 87 -140 46 -208 -67 -110 -220 -53 -220 82 0 53 19 93
56 121 22 17 81 19 118 5z m151 -2 c2 -7 16 -53 31 -101 15 -48 29 -85 33 -82
3 4 20 48 36 98 25 77 34 93 53 95 12 2 22 2 22 0 0 -3 -16 -49 -36 -104 -20
-54 -41 -114 -47 -132 -8 -24 -16 -32 -30 -30 -15 2 -29 31 -63 123 -24 66
-44 126 -44 133 0 6 9 12 20 12 11 0 23 -6 25 -12z m273 -125 l3 -133 -26 0
-25 0 0 136 c0 135 0 135 23 132 21 -3 22 -7 25 -135z m118 122 c5 -13 8 -13
27 0 31 22 93 19 116 -4 26 -26 33 -67 29 -166 -3 -74 -5 -80 -25 -83 -23 -3
-23 -2 -23 102 0 95 -2 106 -21 119 -23 16 -55 12 -81 -11 -15 -12 -18 -32
-18 -114 0 -97 0 -99 -22 -96 -22 3 -23 7 -26 136 -2 128 -2 132 18 132 11 0
23 -7 26 -15z m385 4 c15 -7 24 -7 34 1 32 27 37 7 36 -150 -2 -153 -2 -155
-28 -182 -32 -33 -79 -44 -127 -28 -43 14 -58 31 -46 50 8 13 13 12 39 -3 42
-25 76 -22 100 9 18 23 29 64 18 64 -2 0 -18 -7 -36 -16 -42 -21 -95 -4 -122
40 -36 60 -20 187 28 215 24 14 79 14 104 0z m733 -11 c23 -22 25 -30 28 -135
3 -97 1 -113 -12 -113 -9 0 -21 5 -28 12 -8 8 -15 8 -27 -2 -8 -7 -34 -12 -57
-12 -34 1 -48 7 -65 27 -28 32 -29 74 -3 103 22 23 84 44 121 40 31 -4 36 25
10 51 -28 28 -53 26 -89 -4 -17 -14 -35 -25 -40 -25 -25 0 -21 23 8 50 42 39
115 43 154 8z m820 1 c58 -46 72 -123 35 -189 -22 -39 -48 -58 -84 -61 -49 -4
-69 3 -100 34 -85 85 -35 237 79 237 29 0 52 -7 70 -21z m291 -4 c23 -22 25
-32 25 -119 0 -52 3 -101 6 -110 5 -12 0 -16 -19 -16 -14 0 -28 4 -32 9 -3 6
-19 4 -39 -4 -40 -17 -100 -4 -116 25 -11 21 -13 60 -4 85 10 25 58 45 109 45
41 0 45 2 45 24 0 29 -24 56 -50 56 -10 0 -32 -12 -49 -26 -36 -30 -69 -27
-51 5 18 34 52 51 103 51 38 0 53 -5 72 -25z m141 10 c5 -13 8 -13 27 0 27 19
87 19 112 1 21 -15 33 -83 34 -189 1 -65 0 -68 -21 -65 -22 3 -23 8 -26 102
-1 55 -8 106 -14 113 -15 18 -68 16 -90 -4 -15 -13 -18 -32 -18 -115 0 -98 0
-98 -25 -98 l-25 0 0 128 c0 71 3 132 7 135 11 12 33 7 39 -8z m409 -10 c14
-13 25 -31 25 -40 0 -22 -37 -19 -50 5 -8 15 -21 20 -49 20 -73 0 -79 -52 -7
-70 88 -22 119 -52 109 -102 -14 -71 -142 -85 -193 -21 -39 50 -2 64 45 18 27
-28 62 -32 89 -12 21 15 18 46 -4 58 -8 5 -34 13 -58 19 -80 20 -106 77 -57
125 19 20 34 25 75 25 41 0 56 -5 75 -25z"/>
<path d="M22350 11365 c-20 -21 -24 -36 -24 -86 1 -48 5 -64 24 -84 29 -30 68
-32 103 -5 23 19 25 24 20 92 -3 58 -9 77 -25 91 -29 25 -70 21 -98 -8z"/>
<path d="M24683 11363 c-12 -18 -18 -46 -18 -86 0 -52 3 -61 29 -84 23 -19 36
-23 59 -19 51 10 57 22 57 106 0 89 -14 110 -73 110 -29 0 -40 -6 -54 -27z"/>
<path d="M23820 11410 l0 -80 64 0 c83 0 111 20 111 80 0 60 -28 80 -111 80
l-64 0 0 -80z"/>
<path d="M22036 11371 c-42 -47 -38 -154 7 -186 23 -16 54 -19 82 -9 44 17 60
125 25 182 -17 27 -25 32 -58 32 -26 0 -45 -7 -56 -19z"/>
<path d="M22660 11358 c-11 -18 -20 -36 -20 -40 0 -5 34 -8 75 -8 83 0 91 7
54 54 -31 40 -83 37 -109 -6z"/>
<path d="M24394 11386 c-61 -27 -72 -148 -19 -193 55 -48 123 -12 132 70 7 58
-11 103 -48 122 -33 18 -26 18 -65 1z"/>
<path d="M25938 11371 c-31 -27 -33 -34 -33 -91 0 -55 3 -64 28 -86 35 -30 68
-31 102 -1 52 44 42 162 -15 192 -39 20 -45 19 -82 -14z"/>
<path d="M23993 10488 c-6 -7 -13 -54 -16 -105 -4 -50 -12 -104 -19 -120 -21
-46 -157 -253 -215 -326 l-54 -67 0 -231 c-1 -160 3 -234 11 -244 6 -8 42 -25
78 -39 67 -26 71 -26 348 -26 255 0 282 2 296 18 30 33 30 58 2 91 -21 26 -24
34 -14 46 7 8 22 15 34 15 30 0 66 40 66 72 0 15 -12 40 -26 57 -28 34 -25 51
10 51 34 0 66 40 66 83 0 29 -6 41 -30 59 -16 12 -30 25 -30 29 0 4 14 21 30
37 45 45 40 101 -11 127 -22 12 -73 15 -234 15 -138 0 -205 3 -205 11 0 6 12
56 26 112 38 146 26 281 -28 324 -23 19 -74 25 -85 11z"/>
<path d="M23342 9918 c-9 -9 -12 -91 -12 -309 l0 -298 108 -3 c59 -2 123 -1
142 2 l35 5 3 294 c2 208 -1 298 -9 307 -15 19 -249 20 -267 2z"/>
<path d="M22417 8750 c-48 -38 -44 -136 6 -173 26 -20 28 -20 62 -4 l35 17 0
75 0 76 -35 15 c-43 17 -37 18 -68 -6z"/>
<path d="M24646 8739 c-22 -17 -26 -28 -26 -73 0 -59 19 -86 61 -86 39 0 49
18 49 90 0 62 -2 68 -25 78 -32 15 -28 16 -59 -9z"/>
<path d="M23809 8835 c0 -3 -1 -29 -1 -57 l-1 -53 61 -3 c56 -3 62 -1 77 22
18 27 14 56 -11 81 -14 14 -123 23 -125 10z"/>
<path d="M22126 8747 c-71 -71 -9 -222 72 -176 38 21 54 56 48 109 -3 32 -11
51 -31 67 -33 29 -60 29 -89 0z"/>
<path d="M24346 8739 c-22 -17 -26 -28 -26 -73 0 -38 5 -57 18 -68 44 -38 86
-26 103 31 14 46 6 84 -21 111 -25 25 -41 25 -74 -1z"/>
<path d="M25847 8739 c-23 -17 -27 -28 -27 -72 0 -58 5 -69 37 -86 35 -18 70
1 84 48 26 87 -34 158 -94 110z"/>
<path d="M22706 8749 c-14 -11 -26 -29 -26 -40 0 -17 7 -19 65 -19 74 0 83 13
40 55 -29 30 -45 31 -79 4z"/>
<path d="M24151 8234 c-31 -13 -31 -14 -31 -87 0 -81 6 -93 57 -103 44 -9 73
31 73 100 0 83 -37 116 -99 90z"/>
<path d="M24696 8221 c-23 -26 -32 -93 -16 -130 16 -40 59 -57 97 -39 26 12
28 18 31 82 2 53 -1 72 -14 87 -22 25 -76 25 -98 0z"/>
<path d="M21753 8130 c-17 -7 -23 -18 -23 -39 0 -35 12 -44 52 -43 40 1 70 29
66 61 -3 22 -9 26 -38 28 -19 1 -45 -2 -57 -7z"/>
<path d="M22027 8222 c-12 -13 -17 -37 -17 -85 0 -57 3 -68 22 -81 32 -23 65
-20 93 9 33 32 35 110 4 149 -25 32 -77 36 -102 8z"/>
<path d="M22316 8224 c-12 -11 -16 -35 -16 -84 0 -60 3 -71 22 -84 84 -59 153
64 92 162 -17 27 -74 30 -98 6z"/>
<path d="M22792 8239 c-30 -12 -56 -73 -48 -119 6 -39 46 -80 77 -80 11 0 34
14 51 30 28 28 30 35 26 81 -7 72 -52 110 -106 88z"/>
<path d="M23711 8214 c-37 -47 -20 -154 28 -169 28 -9 70 4 81 25 6 10 10 46
10 79 0 51 -3 62 -22 75 -34 24 -73 20 -97 -10z"/>
<path d="M24430 8133 c-20 -8 -30 -24 -30 -50 0 -27 14 -36 52 -35 39 1 68 28
68 64 0 26 -3 28 -37 27 -21 0 -45 -3 -53 -6z"/>
<path d="M25244 8232 c-21 -14 -34 -51 -34 -97 0 -54 32 -95 75 -95 14 0 37
11 50 25 33 32 36 120 5 153 -21 22 -73 30 -96 14z"/>
<path d="M25522 8124 c-30 -21 -25 -55 10 -72 23 -11 32 -10 56 2 34 17 43 35
35 65 -4 17 -13 21 -42 21 -20 0 -47 -7 -59 -16z"/>
<path d="M1257 9406 c-48 -18 -74 -41 -98 -88 -18 -36 -19 -98 -19 -2211 l0
-2173 28 -42 c18 -29 44 -51 77 -68 l51 -24 2194 2 2195 3 51 27 c36 19 57 38
70 65 18 37 19 101 19 2218 l0 2180 -23 37 c-13 20 -40 47 -60 60 l-37 23
-2205 2 c-1842 2 -2211 0 -2243 -11z m3083 -3056 c0 -44 3 -80 8 -80 4 0 16 7
26 15 26 20 70 19 113 -2 89 -42 100 -227 18 -291 -34 -27 -100 -29 -134 -6
-22 16 -24 16 -33 0 -5 -9 -18 -16 -28 -16 -19 0 -20 9 -20 230 l0 230 25 0
c25 0 25 -1 25 -80z m-1640 35 c0 -24 -1 -24 -107 -27 l-108 -3 -3 -67 -3 -67
93 -3 c85 -3 93 -5 93 -23 0 -19 -7 -20 -90 -20 l-90 0 0 -75 0 -75 108 -3
c106 -3 107 -3 107 -27 l0 -25 -135 0 -135 0 0 220 0 220 135 0 135 0 0 -25z
m375 0 c0 -18 -8 -20 -67 -23 l-68 -3 -2 -192 -3 -192 -25 0 -25 0 -3 193 -2
192 -70 0 c-68 0 -70 1 -70 25 l0 25 168 -2 c159 -3 167 -4 167 -23z m121
-170 l1 -190 102 -3 c100 -3 101 -3 101 -27 l0 -25 -130 0 -130 0 0 221 0 220
28 -3 27 -3 1 -190z m654 20 c0 -196 -7 -222 -62 -251 -22 -12 -48 -15 -91
-12 -50 4 -64 9 -83 32 -27 31 -41 73 -28 86 14 14 54 0 54 -20 0 -49 93 -71
134 -31 20 20 21 34 24 196 l4 175 24 0 24 0 0 -175z m302 40 c48 -33 73 -96
65 -166 -11 -95 -66 -143 -155 -136 -56 4 -91 27 -118 79 -21 41 -18 136 6
176 44 72 134 93 202 47z"/>
<path d="M4380 6243 c-37 -25 -40 -32 -40 -109 0 -76 9 -93 60 -112 61 -22
104 27 104 119 0 57 -17 93 -51 108 -32 15 -44 14 -73 -6z"/>
<path d="M4040 6247 c-32 -16 -60 -71 -60 -118 0 -72 68 -131 125 -109 37 14
55 49 55 108 0 67 -20 107 -61 121 -18 6 -32 11 -33 11 -1 0 -12 -6 -26 -13z"/>
<path d="M13130 1385 l0 -165 53 0 c98 0 147 55 147 165 0 110 -49 165 -147
165 l-53 0 0 -165z"/>
<path d="M14843 1438 c-46 -22 -63 -137 -26 -186 16 -21 30 -28 65 -30 64 -4
88 27 88 110 0 52 -3 63 -29 89 -31 30 -60 35 -98 17z"/>
<path d="M15940 1321 c-23 -4 -39 -14 -47 -31 -18 -37 3 -64 55 -68 33 -3 43
1 61 24 24 31 28 74 7 74 -8 0 -20 2 -28 4 -7 2 -29 1 -48 -3z"/>
</g>
</svg>
