<?xml version="1.0" standalone="no"?>
<!DOCTYPE svg PUBLIC "-//W3C//DTD SVG 20010904//EN"
 "http://www.w3.org/TR/2001/REC-SVG-20010904/DTD/svg10.dtd">
<svg version="1.0" xmlns="http://www.w3.org/2000/svg"
 width="2752.000000pt" height="1536.000000pt" viewBox="0 0 2752.000000 1536.000000"
 preserveAspectRatio="xMidYMid meet">

<g transform="translate(0.000000,1536.000000) scale(0.100000,-0.100000)"
fill="#000000" stroke="none">
<path d="M0 7680 l0 -7680 13760 0 13760 0 0 7680 0 7680 -13760 0 -13760 0 0
-7680z m5504 6119 c31 -14 40 -47 20 -76 -20 -31 -67 -31 -88 -1 -20 29 -20
30 5 62 23 29 28 31 63 15z m15882 -20 c38 -42 -23 -107 -71 -75 -38 25 -42
56 -12 82 29 25 56 23 83 -7z m-11526 -1 c0 -5 -6 -19 -12 -31 -7 -12 -15 -56
-18 -97 l-5 -75 -30 1 c-16 1 -36 2 -43 3 -22 2 -12 91 19 157 26 57 30 60 59
56 16 -2 30 -9 30 -14z m141 12 c23 -13 24 -28 3 -52 -12 -12 -19 -43 -22 -92
l-5 -75 -31 5 c-59 10 -59 11 -51 60 7 48 19 79 50 131 22 36 27 38 56 23z
m2949 -17 c47 -19 70 -41 91 -88 13 -28 15 -43 7 -52 -15 -18 -55 -16 -70 3
-55 68 -65 74 -126 74 -52 0 -64 -4 -91 -29 -21 -19 -31 -39 -31 -58 0 -50 24
-71 118 -99 48 -15 103 -35 124 -45 99 -50 123 -173 52 -259 -105 -124 -356
-75 -389 77 -5 28 -3 32 17 35 44 7 63 -3 81 -43 20 -43 57 -59 136 -59 86 0
147 106 90 158 -11 11 -64 34 -117 51 -152 48 -192 88 -192 189 0 45 4 55 43
96 65 71 159 89 257 49z m2288 15 c16 -16 15 -63 0 -76 -29 -22 -57 -23 -77
-3 -25 25 -27 54 -5 75 18 19 65 21 82 4z m1370 0 c21 -21 14 -66 -13 -84 -30
-20 -62 -11 -77 22 -17 37 6 74 47 74 17 0 36 -5 43 -12z m-11457 -14 c66 -20
133 -83 158 -148 44 -118 35 -263 -22 -353 -28 -44 -47 -61 -103 -91 -37 -20
-56 -22 -178 -22 l-136 0 0 314 0 314 118 0 c68 0 136 -6 163 -14z m3349 -299
l0 -315 -44 0 -44 0 -1 256 c0 141 -3 259 -6 262 -3 3 -18 -6 -33 -19 -35 -33
-78 -59 -95 -59 -10 0 -12 10 -8 39 5 33 15 45 72 89 47 36 78 52 105 55 22 2
42 4 47 5 4 1 7 -140 7 -313z m2015 271 l0 -39 -90 -1 -90 -1 -2 -270 -1 -270
-41 -3 -41 -3 -2 272 -3 271 -90 2 -90 1 -3 28 c-7 59 -12 58 230 55 l223 -3
0 -39z m170 -74 c-1 -104 1 -112 15 -95 31 38 64 53 115 53 60 0 103 -24 133
-71 19 -31 21 -51 22 -216 l1 -183 -41 0 -40 0 0 161 c0 133 -3 166 -17 190
-27 46 -79 56 -139 27 -39 -19 -46 -53 -45 -220 l1 -158 -45 0 -45 0 0 313 0
314 43 -1 42 -1 0 -113z m4270 92 c22 -11 53 -40 70 -63 24 -34 30 -54 33
-110 4 -60 1 -73 -22 -109 -14 -22 -41 -53 -61 -68 -32 -24 -47 -27 -142 -33
l-106 -6 2 -107 2 -108 -45 0 -46 0 0 316 0 316 138 -4 c115 -2 143 -6 177
-24z m1450 -291 l0 -313 -42 0 -43 0 0 316 0 315 42 -3 42 -3 1 -312z m1780
304 c54 -16 101 -61 119 -114 20 -58 20 -86 1 -149 -27 -93 -98 -134 -231
-134 l-84 0 0 -110 0 -110 -45 0 -45 0 0 315 0 316 125 -2 c69 0 141 -6 160
-12z m4357 -47 c-2 -38 -12 -71 -31 -105 -31 -54 -46 -63 -75 -42 -17 13 -17
14 3 48 15 25 21 51 21 97 l0 63 43 -3 42 -3 -3 -55z m147 51 c10 -7 12 -22 7
-62 -8 -58 -22 -90 -58 -132 -21 -24 -26 -26 -43 -13 -19 13 -19 14 0 57 13
28 20 65 20 101 l-1 58 31 0 c16 0 36 -4 44 -9z m-10574 -206 l0 -205 43 0 42
0 0 -39 c0 -40 0 -40 -42 -43 l-43 -3 -1 -60 -1 -60 -41 -3 -42 -3 0 65 0 66
-135 0 -135 0 0 44 c0 44 8 58 236 424 12 18 23 22 67 22 l52 0 0 -205z m1151
152 c3 -9 4 -34 2 -55 l-3 -37 48 -3 47 -3 0 -40 0 -39 -45 0 c-29 0 -45 -4
-46 -12 0 -7 0 -73 1 -147 1 -147 6 -161 58 -161 22 0 31 -6 36 -22 10 -40 7
-47 -31 -54 -43 -8 -113 23 -132 59 -6 13 -12 87 -14 182 l-2 160 -30 0 c-28
0 -30 3 -30 35 0 24 5 35 15 36 8 1 23 2 33 3 14 1 17 11 17 54 0 30 2 56 5
58 2 3 18 5 35 4 20 0 32 -6 36 -18z m-7748 -336 l2 -231 -40 0 -40 0 0 228
c0 126 2 231 5 234 3 3 20 4 38 3 l32 -2 3 -232z m379 223 c19 -9 45 -31 58
-48 26 -35 30 -72 27 -278 l-2 -128 -41 0 c-32 0 -40 3 -38 18 3 32 -1 33 -28
8 -33 -31 -71 -40 -130 -31 -96 14 -149 112 -108 199 22 47 56 64 150 76 94
12 115 23 115 58 0 47 -33 72 -95 72 -28 0 -45 -8 -69 -32 -31 -31 -35 -32
-67 -21 -38 13 -39 26 -6 62 52 56 164 78 234 45z m432 2 c15 -8 34 -22 42
-32 13 -16 14 -15 19 12 5 26 9 29 45 29 l40 0 0 -260 c0 -240 -2 -263 -20
-300 -53 -107 -244 -124 -334 -31 -38 39 -38 38 4 60 27 14 31 14 50 -4 28
-26 69 -40 116 -40 52 0 98 42 100 92 1 38 -1 71 -6 77 -2 1 -19 -9 -38 -23
-43 -33 -125 -36 -174 -6 -74 45 -110 151 -89 263 14 70 24 93 58 124 56 52
131 68 187 39z m339 -24 l3 -31 35 34 c29 30 42 35 80 35 38 0 45 -3 40 -16
-3 -9 -6 -27 -6 -40 0 -21 -5 -24 -36 -24 -47 0 -91 -27 -104 -63 -5 -17 -10
-97 -10 -178 l0 -149 -40 0 -40 0 0 233 0 234 38 -2 c34 -2 37 -5 40 -33z
m482 22 c22 -9 50 -30 63 -48 21 -29 22 -43 25 -218 l4 -188 -41 0 c-37 0 -41
2 -41 25 0 32 -5 31 -35 -2 -21 -25 -30 -28 -88 -28 -79 0 -111 16 -144 73
-28 48 -28 91 3 137 24 36 60 53 145 66 102 16 119 23 119 54 0 40 -41 75 -90
75 -31 0 -48 -7 -78 -34 -36 -33 -39 -34 -70 -21 -38 17 -39 26 -9 61 50 59
156 80 237 48z m280 -16 l0 -31 23 20 c34 32 62 43 106 43 33 0 49 -7 79 -35
l38 -34 31 31 c63 63 184 45 223 -33 18 -34 20 -59 20 -219 l0 -180 -40 0 -40
0 0 168 c0 189 -6 211 -60 225 -46 12 -95 -14 -110 -57 -5 -17 -9 -98 -7 -181
l2 -150 -42 -3 -41 -3 -1 172 c-1 187 -7 211 -55 223 -38 9 -94 -18 -107 -51
-7 -16 -12 -96 -13 -185 l-1 -158 -40 0 -40 0 -3 225 c-1 124 0 230 3 235 4 6
22 10 41 10 32 0 34 -2 34 -32z m3902 22 c74 -21 133 -119 126 -211 l-3 -41
-155 -1 -155 -2 4 -25 c16 -113 162 -159 224 -70 11 16 21 19 45 14 38 -8 41
-28 9 -65 -62 -73 -153 -89 -244 -43 -56 27 -80 59 -107 142 -13 39 -16 66
-11 104 22 160 125 237 267 198z m2381 -4 c71 -29 125 -135 115 -223 l-3 -28
-153 3 c-174 3 -178 1 -143 -71 25 -52 58 -72 117 -72 35 0 49 6 78 34 33 32
37 33 65 21 17 -7 31 -15 31 -19 0 -18 -66 -83 -97 -96 -122 -51 -257 24 -285
158 -23 109 21 243 90 278 64 32 132 38 185 15z m291 -24 c-2 -33 10 -43 20
-17 9 25 69 55 109 55 74 0 140 -47 171 -122 17 -40 23 -153 11 -203 -23 -91
-95 -155 -176 -155 -48 0 -105 28 -117 58 -4 9 -9 -37 -12 -103 l-5 -120 -37
-3 c-28 -2 -37 1 -42 15 -6 21 -5 615 1 626 2 4 21 6 41 4 35 -3 37 -5 36 -35z
m1236 -203 l0 -229 -42 0 -43 0 1 228 c0 125 1 229 2 232 1 3 20 4 42 2 l40
-4 0 -229z m196 206 c-4 -19 -5 -35 -2 -35 2 0 20 16 40 36 35 35 39 36 94 32
87 -6 124 -29 157 -95 22 -42 29 -74 33 -133 4 -69 2 -83 -23 -131 -14 -30
-34 -62 -43 -72 -25 -28 -79 -47 -131 -47 -37 0 -54 6 -83 30 l-37 31 -3 -113
-3 -113 -39 0 -39 0 -1 318 c-1 175 1 320 3 323 2 2 22 4 44 4 l39 0 -6 -35z
m666 25 c38 -11 92 -64 108 -106 5 -13 12 -53 16 -88 l7 -65 -157 4 c-179 3
-181 2 -147 -68 25 -52 58 -72 117 -72 35 0 49 6 76 33 37 35 55 39 83 19 17
-13 17 -16 -8 -52 -77 -113 -269 -96 -336 30 -22 43 -26 63 -26 135 0 71 4 93
25 134 45 88 138 125 242 96z m506 -228 l2 -232 -40 0 -40 0 0 236 0 235 38
-3 37 -4 3 -232z m194 201 c-3 -41 5 -41 37 -2 20 24 37 32 72 36 71 8 116
-11 150 -65 l29 -46 0 -178 0 -178 -40 0 -40 0 0 158 c0 178 -6 197 -64 226
-39 19 -40 19 -75 0 -55 -30 -61 -50 -61 -227 l0 -158 -40 3 -41 3 0 208 c0
114 1 219 1 233 0 23 3 25 38 22 35 -3 37 -5 34 -35z m661 23 c71 -29 117
-111 117 -208 l0 -47 -157 1 -158 1 3 -23 c12 -106 143 -154 214 -78 23 25 33
29 58 23 16 -4 32 -10 35 -15 9 -14 -59 -87 -98 -104 -100 -44 -212 -2 -265
98 -35 68 -38 188 -5 251 52 99 159 142 256 101z m1025 -24 l3 -32 33 35 c29
30 40 35 80 35 l47 0 -3 -37 c-3 -38 -4 -38 -50 -41 -71 -5 -93 -36 -103 -146
-4 -47 -5 -121 -3 -163 l3 -78 -43 -3 -42 -3 0 236 0 236 38 -3 c34 -3 37 -6
40 -36z m474 28 c38 -11 85 -57 115 -113 24 -45 23 -188 -2 -237 -78 -154
-279 -162 -355 -15 -21 42 -25 63 -25 140 0 75 4 96 22 125 59 96 140 129 245
100z m487 -24 c35 -33 43 -33 39 2 -3 26 -1 27 40 28 l42 1 0 -258 c0 -305 -4
-322 -78 -365 -90 -50 -238 -30 -286 38 -22 31 -21 35 15 54 30 15 32 15 59
-11 55 -52 165 -43 195 16 15 27 21 129 9 129 -4 0 -22 -14 -42 -31 -32 -29
-40 -31 -93 -27 -109 8 -169 76 -177 204 -7 112 32 193 110 233 58 30 128 24
167 -13z m311 -1 c0 -19 5 -35 10 -35 6 0 10 5 10 10 0 6 12 22 26 35 21 20
38 25 77 25 46 0 49 -1 43 -22 -3 -13 -6 -33 -6 -44 0 -20 -4 -21 -45 -16 -40
4 -47 2 -75 -28 l-30 -32 0 -164 0 -164 -39 0 -39 0 -4 228 c-2 125 -2 230 0
235 2 4 19 7 38 7 32 0 34 -2 34 -35z m489 15 c22 -11 49 -31 60 -46 26 -33
51 -115 51 -167 l0 -39 -157 3 -158 4 2 -29 c3 -38 52 -98 89 -108 44 -13 93
0 123 32 21 23 32 27 59 23 38 -6 40 -16 10 -60 -67 -98 -248 -95 -320 7 -74
102 -54 284 38 358 58 46 139 55 203 22z m450 -1 c38 -23 70 -58 71 -76 0 -7
-15 -15 -34 -18 -27 -6 -38 -2 -59 19 -47 47 -134 29 -151 -30 -9 -29 30 -59
92 -73 114 -24 162 -64 162 -135 0 -86 -72 -145 -178 -146 -61 0 -119 25 -151
66 -28 35 -26 52 5 64 36 14 54 12 54 -5 0 -8 15 -24 33 -35 52 -33 141 -12
153 34 10 42 -11 63 -73 76 -87 18 -140 45 -163 82 -25 39 -22 90 6 133 40 61
166 85 233 44z m391 14 c30 -6 110 -72 110 -91 0 -4 -15 -12 -34 -18 -30 -9
-36 -7 -65 18 -38 34 -87 37 -125 7 -32 -25 -34 -63 -3 -83 12 -8 44 -20 72
-26 132 -29 180 -80 155 -165 -15 -49 -34 -71 -82 -96 -45 -23 -109 -24 -171
-3 -37 12 -52 25 -72 57 l-24 42 22 12 c33 18 45 16 75 -16 59 -65 172 -39
172 38 0 28 -30 47 -94 60 -32 7 -73 19 -92 27 -66 28 -85 120 -38 182 42 55
106 73 194 55z m290 -224 c0 -120 0 -222 0 -226 0 -5 -18 -9 -40 -11 l-40 -3
0 229 c0 126 2 231 5 233 2 3 20 3 40 1 l35 -4 0 -219z m400 209 c73 -37 110
-110 110 -219 0 -106 -43 -182 -129 -228 -32 -18 -118 -13 -160 9 -137 69
-163 289 -48 408 54 56 150 68 227 30z m285 -11 c-1 -33 2 -33 36 -1 57 54
173 39 221 -28 22 -31 23 -43 26 -220 l4 -188 -41 0 -41 0 0 160 c0 98 -4 169
-11 184 -18 38 -72 60 -114 46 -69 -23 -75 -42 -75 -226 l0 -164 -40 0 -40 0
0 234 0 234 38 -2 c33 -2 37 -5 37 -29z m-12585 -167 l0 -40 -325 0 -325 0 0
40 0 40 325 0 325 0 0 -40z m3058 -4 l-3 -41 -127 -3 -128 -3 0 46 0 45 131
-1 130 -2 -3 -41z m-5931 -1836 c18 -10 45 -38 60 -61 l28 -43 2 -1638 c2
-1083 0 -1638 -7 -1639 -13 -2 -48 -2 -57 0 -5 0 -7 729 -5 1618 1 1195 -1
1625 -9 1646 -7 15 -23 37 -37 47 -24 20 -56 20 -2818 20 l-2794 0 0 35 0 35
2803 0 c2764 0 2802 0 2834 -20z m6695 4 c18 -9 40 -26 50 -38 50 -57 48 32
48 -1716 l0 -1630 -35 0 -35 0 0 1632 c0 1771 4 1658 -52 1690 -19 10 -584 13
-2838 15 -2652 2 -2818 2 -2849 -15 -19 -9 -43 -33 -53 -52 -17 -33 -18 -70
-18 -640 0 -333 0 -948 0 -1367 l0 -763 -30 0 -30 0 0 1385 c0 1168 2 1390 14
1413 14 28 58 71 92 90 14 8 788 11 2862 12 2604 0 2846 -1 2874 -16z m6595
-4 c18 -10 45 -38 60 -61 l28 -43 3 -1638 2 -1638 -35 0 -35 0 0 1620 c0 1757
3 1656 -52 1694 -20 14 -304 16 -2855 16 l-2833 0 -32 -29 -33 -29 -3 -1387
-2 -1386 -35 3 -35 3 0 1378 c0 1347 1 1379 20 1416 10 21 38 53 62 70 l42 31
2850 0 c2813 0 2851 0 2883 -20z m6571 -12 l-3 -33 -2785 0 c-2681 0 -2787 -1
-2814 -18 -59 -39 -56 36 -56 -1452 l0 -1365 -30 0 -30 0 0 1379 c0 848 4
1389 10 1405 13 36 50 75 90 97 34 18 125 18 2828 19 l2793 0 -3 -32z m-17400
-820 c36 -35 96 -95 134 -135 l68 -72 0 -563 c0 -432 -3 -569 -13 -588 -10
-21 -21 -26 -60 -28 l-47 -3 0 -40 c0 -50 -27 -79 -75 -79 -34 0 -35 -1 -35
-38 0 -27 -7 -45 -21 -58 -20 -18 -46 -19 -551 -22 -466 -2 -534 -1 -554 13
l-24 15 0 695 c0 694 0 695 21 716 16 16 29 20 55 16 34 -6 34 -6 34 34 0 50
27 79 75 79 34 0 35 1 35 38 0 39 14 66 40 75 8 3 204 6 434 6 l419 1 65 -62z
m12535 -798 c-43 -26 -51 -44 -55 -131 l-3 -74 35 -6 35 -6 -37 -2 c-32 -1
-39 3 -44 25 -4 14 -4 55 -1 92 5 58 10 71 37 95 17 15 38 27 48 27 11 0 6 -7
-15 -20z m-12022 -146 c55 -52 141 -135 190 -185 48 -49 92 -89 96 -89 4 0 19
16 33 35 14 19 28 35 32 35 3 0 16 -33 27 -72 12 -40 29 -95 37 -122 8 -26 14
-50 12 -52 -2 -2 -44 8 -93 22 -50 14 -105 28 -122 31 -18 3 -33 9 -33 13 0 4
16 20 35 35 l36 27 -29 31 c-15 18 -98 99 -183 182 -84 82 -158 156 -162 163
-10 15 -2 42 12 42 6 0 56 -43 112 -96z m13445 -9 c21 -41 41 -75 44 -75 3 0
22 34 43 75 31 64 41 75 62 75 l26 0 -3 -147 c-3 -134 -5 -148 -21 -151 -17
-4 -18 5 -16 112 1 64 0 118 -2 120 -3 3 -22 -31 -44 -75 -21 -43 -42 -79 -47
-79 -4 0 -26 36 -48 80 -22 44 -41 80 -43 80 -1 0 -2 -53 -2 -117 0 -111 -1
-118 -20 -118 -19 0 -20 7 -22 135 -1 74 0 141 2 148 2 6 15 12 28 12 20 0 31
-13 63 -75z m385 -24 c21 -21 29 -39 29 -64 l0 -35 -71 2 c-75 3 -94 -9 -68
-40 25 -31 45 -34 83 -14 31 15 38 16 43 4 15 -40 -67 -67 -123 -41 -24 12
-36 26 -45 56 -35 119 71 212 152 132z m117 17 c9 -9 15 -9 24 0 17 17 58 15
79 -4 16 -15 20 -15 41 0 32 23 65 20 94 -9 23 -23 25 -31 22 -112 -2 -70 -6
-88 -18 -88 -12 0 -16 16 -18 70 -3 90 -8 111 -28 119 -9 4 -27 -1 -40 -9 -22
-14 -24 -22 -24 -101 0 -76 -2 -85 -17 -82 -15 3 -18 16 -21 73 -3 93 -8 112
-32 118 -41 11 -59 -21 -62 -108 -2 -63 -6 -80 -18 -80 -12 0 -16 20 -18 113
-2 88 0 112 11 112 7 0 18 -5 25 -12z m471 -20 c25 -26 31 -40 31 -75 0 -50
-21 -97 -49 -113 -56 -30 -133 10 -145 76 -22 112 88 188 163 112z m111 16 c0
-13 3 -13 29 2 30 18 66 13 59 -8 -3 -7 -19 -16 -37 -20 -39 -11 -42 -18 -44
-110 -2 -66 -4 -73 -22 -73 -13 0 -20 6 -19 18 0 9 1 60 2 112 2 77 5 95 17
95 8 0 15 -7 15 -16z m165 -70 c31 -95 31 -95 65 8 12 36 28 69 37 72 23 9 27
0 15 -31 -6 -15 -16 -47 -22 -71 -20 -80 -76 -189 -100 -197 -14 -5 -25 -2
-31 6 -10 18 -2 29 22 29 27 0 25 45 -4 123 -50 132 -52 147 -23 147 7 0 25
-38 41 -86z m-1888 -64 c72 -43 113 -155 113 -306 0 -147 -39 -247 -116 -294
-37 -23 -13 -22 -436 -28 -110 -2 -116 -3 -111 -22 5 -18 15 -20 161 -22 l157
-3 -4 -85 c-4 -113 -16 -134 -99 -173 -62 -29 -76 -32 -198 -35 -162 -5 -225
10 -287 68 l-42 39 -3 199 c-4 225 2 251 60 296 49 36 114 46 308 45 159 -2
170 -1 211 22 34 18 50 37 71 79 24 48 27 67 28 148 l0 92 78 0 c59 0 85 -5
109 -20z m-1093 -26 c-21 -15 -44 -34 -51 -43 -7 -9 -13 -11 -13 -5 0 18 69
73 94 74 5 0 -9 -12 -30 -26z m-71 -79 c-3 -9 -8 -14 -10 -11 -3 3 -2 9 2 15
9 16 15 13 8 -4z m-11609 -192 c134 -132 178 -174 215 -207 l22 -20 34 39 33
39 7 -29 c4 -17 20 -73 35 -125 15 -52 26 -97 25 -98 -4 -4 -246 65 -253 72
-2 3 12 15 32 28 20 13 36 28 36 33 0 6 -81 91 -180 190 -99 99 -180 185 -180
192 0 7 10 13 22 13 14 0 66 -43 152 -127z m11581 -16 c0 -72 -3 -118 -6 -102
-12 55 -8 235 5 235 0 0 1 -60 1 -133z m-3709 70 c16 -12 158 -153 316 -312
238 -241 287 -296 292 -325 4 -19 5 -237 4 -485 l-3 -450 -63 -3 c-44 -2 -64
1 -67 10 -2 7 -6 202 -7 433 l-3 420 -194 3 c-107 1 -199 6 -205 11 -6 4 -23
11 -37 14 -36 9 -102 77 -128 132 -19 41 -21 62 -21 240 l0 195 -740 0 -740 0
0 -1485 0 -1485 43 0 c23 -1 344 -1 713 0 l671 0 7 -46 c3 -26 6 -60 6 -76 l0
-29 -739 3 c-729 3 -740 3 -767 24 -15 11 -37 33 -48 48 -21 27 -21 30 -24
1548 l-2 1520 22 40 c46 82 -8 77 889 78 l795 0 30 -23z m-13290 1 c8 -12 7
-2628 0 -2636 -3 -2 -250 -5 -333 -3 l-33 1 0 1318 c0 725 3 1321 6 1325 3 3
84 6 179 7 131 0 175 -3 181 -12z m20640 -63 c-4 -21 -1 -37 8 -44 8 -7 134
-12 382 -13 l369 -3 0 -215 0 -215 43 -3 c23 -2 42 -8 42 -13 0 -6 -12 -31
-26 -57 -15 -26 -36 -65 -48 -86 -12 -22 -26 -41 -33 -43 -7 -3 -30 31 -53 79
-23 46 -45 87 -51 93 -21 21 -10 34 23 24 18 -5 36 -5 40 -1 5 5 7 96 6 203
l-3 194 -350 0 -350 0 2 -42 c1 -24 -2 -43 -7 -43 -9 0 -43 19 -143 78 l-58
34 43 27 c24 15 50 30 58 34 8 4 33 17 55 31 22 13 44 21 48 19 4 -3 6 -20 3
-38z m-691 19 c40 -15 48 -34 53 -115 l5 -79 147 0 c134 0 150 -2 174 -21 l26
-21 -2 -1460 -3 -1460 -25 -20 c-23 -19 -36 -20 -170 -17 l-145 4 -2 -55 c-2
-30 -5 -69 -8 -87 -11 -66 14 -63 -530 -63 -586 0 -538 -11 -544 125 l-3 87
-149 -3 c-144 -3 -149 -2 -174 21 l-25 23 0 1450 0 1450 26 24 c26 24 30 24
173 22 l146 -2 3 69 c3 98 8 112 45 129 27 13 100 14 497 11 256 -3 474 -8
485 -12z m-21137 -561 l2 -393 -190 0 -190 0 0 395 0 395 188 -2 187 -3 3
-392z m12659 295 c-2 -59 -4 -63 -27 -66 -14 -2 -29 -7 -33 -11 -8 -8 -13
-2989 -5 -2996 2 -3 399 -5 881 -5 l877 -1 6 -27 c3 -15 12 -46 19 -69 l14
-43 -925 0 -925 0 -40 38 c-30 28 -43 49 -49 81 -12 68 -12 2998 1 3046 20 77
71 115 157 115 l52 0 -3 -62z m-4465 -56 c108 -53 218 -183 316 -373 l47 -91
120 -3 c142 -3 244 -23 333 -65 176 -82 250 -205 239 -394 -8 -140 -76 -322
-149 -401 -34 -36 -32 -58 10 -126 21 -35 47 -82 57 -104 10 -22 24 -47 31
-55 42 -50 70 -291 45 -378 -22 -76 -88 -155 -171 -208 -104 -66 -254 -98
-437 -92 -62 1 -113 0 -113 -5 0 -4 -14 -35 -31 -70 -30 -60 -78 -126 -127
-177 l-25 -25 8 25 c7 25 7 25 -24 -4 -47 -45 -37 -20 17 43 67 77 156 210
148 219 -4 3 -49 14 -99 23 -90 16 -116 23 -262 69 -104 33 -114 33 -192 7
-40 -14 -73 -22 -73 -19 0 4 35 19 79 35 66 23 83 26 107 16 113 -43 374 -104
374 -86 0 3 -31 15 -70 26 -45 14 -70 27 -70 36 0 8 5 15 11 15 5 0 7 -4 4
-10 -3 -6 1 -7 9 -4 29 11 17 22 -39 39 -61 17 -98 49 -89 77 3 10 2 18 -3 18
-5 0 -10 12 -11 26 -2 22 0 25 13 14 8 -7 12 -16 9 -21 -3 -5 2 -9 11 -9 9 0
14 4 10 9 -3 5 -1 12 5 16 5 3 10 -2 11 -12 0 -10 3 -13 6 -5 2 6 16 12 29 12
14 0 22 4 19 10 -3 6 3 10 14 10 11 0 22 4 25 9 3 4 -6 6 -21 3 -18 -3 -24 -1
-19 7 4 6 2 11 -4 11 -6 0 -10 -8 -8 -17 2 -14 -3 -18 -27 -16 -16 1 -43 3
-60 4 -16 1 -60 -9 -97 -23 l-66 -26 -69 32 c-96 45 -136 67 -130 72 3 3 13 1
24 -5 55 -30 158 -71 177 -71 56 0 384 185 561 316 102 75 101 74 108 190 7
116 -8 450 -22 486 -8 21 -147 128 -240 185 -157 95 -370 203 -400 203 -31 0
-260 -106 -328 -152 -23 -15 -44 -28 -47 -28 -5 0 -33 -18 -129 -83 -48 -32
-53 -13 -6 24 74 60 337 209 417 237 44 15 40 29 -10 42 -24 6 -52 15 -63 19
-11 5 -51 17 -90 26 -38 9 -79 19 -90 21 -11 3 -38 8 -61 11 l-41 5 -35 -98
c-20 -55 -42 -121 -49 -149 -16 -66 -31 -82 -28 -30 2 22 6 45 9 50 17 25 29
75 18 75 -7 0 -5 6 4 13 21 17 32 61 12 53 -8 -3 -14 -1 -14 3 0 5 6 11 14 14
12 5 12 11 3 30 -6 14 -17 22 -24 20 -24 -9 -61 -110 -65 -176 -1 -21 -6 -41
-10 -43 -4 -3 -8 -14 -8 -25 0 -10 -4 -19 -9 -19 -5 0 -12 -8 -15 -17 -3 -10
-3 4 -1 31 5 47 37 170 55 211 20 46 21 63 3 67 -10 2 -29 1 -43 -3 -14 -4
-56 -10 -95 -12 -67 -5 -68 -5 -20 5 127 24 131 27 30 22 -55 -3 -120 -10
-144 -15 -24 -5 -46 -8 -48 -5 -11 10 113 29 224 33 74 3 126 10 131 17 4 6
17 31 27 56 10 25 31 64 47 88 15 24 28 45 28 48 0 11 81 113 130 162 108 109
190 144 331 139 84 -2 103 -6 161 -35z m10258 7 c0 -11 -4 -18 -10 -14 -5 3
-7 12 -3 20 7 21 13 19 13 -6z m-4231 -383 c7 -8 11 -27 9 -43 -2 -22 -9 -29
-38 -35 -19 -4 -233 -7 -476 -7 -379 0 -443 2 -462 15 -24 17 -27 35 -12 65
10 18 26 19 489 19 404 0 480 -2 490 -14z m-14826 -158 c6 -43 6 -2568 0
-2584 -3 -10 -49 -12 -191 -8 l-187 4 -2 1310 -3 1310 189 0 189 0 5 -32z
m1207 -362 c0 -367 -1 -395 -17 -400 -10 -3 -96 -4 -190 -3 l-173 2 -2 393
c-2 217 -1 396 1 398 2 2 89 4 193 4 l188 0 0 -394z m6499 379 c-9 -9 -79 -35
-79 -30 0 3 15 12 33 20 32 14 55 19 46 10z m11758 -270 l2 -230 153 -5 c84
-3 221 -5 303 -5 l150 0 -3 43 c-2 23 1 42 6 42 16 0 190 -95 193 -105 2 -5
-34 -31 -79 -56 -46 -25 -88 -51 -94 -57 -22 -22 -28 -13 -28 38 l0 51 -127
-1 c-71 -1 -217 -1 -325 -1 l-198 1 0 261 0 260 23 -3 22 -3 2 -230z m3781
212 c54 -26 190 -103 332 -187 52 -31 102 -59 110 -63 33 -14 184 -113 187
-122 1 -5 -19 -22 -45 -36 -127 -69 -218 -123 -227 -133 -5 -6 -57 -38 -115
-69 -124 -69 -111 -61 -275 -155 -224 -129 -237 -135 -246 -120 -12 19 -22 93
-17 133 2 22 0 31 -5 26 -19 -19 -10 -145 12 -189 56 -109 211 -155 328 -96
28 15 64 39 79 55 l27 28 96 -51 c53 -28 98 -53 100 -55 8 -6 -19 -53 -54 -91
-41 -46 -148 -113 -220 -137 -63 -22 -216 -22 -281 0 -151 51 -283 174 -332
307 -22 62 -26 209 -9 291 18 83 1 74 -19 -10 -27 -113 -11 -247 38 -335 12
-21 20 -39 17 -41 -2 -2 -62 -36 -133 -76 -92 -52 -132 -69 -139 -62 -8 8 -11
133 -12 396 l0 384 38 39 c21 21 55 48 75 59 20 11 89 51 152 88 373 219 421
245 461 245 16 0 51 -10 77 -23z m-15548 9 c0 -2 -7 -7 -16 -10 -8 -3 -12 -2
-9 4 6 10 25 14 25 6z m-2938 -28 c7 -7 45 -40 83 -72 39 -33 95 -83 126 -110
31 -28 96 -85 145 -127 192 -165 325 -278 433 -369 l112 -95 -24 -20 c-13 -11
-39 -31 -57 -45 -18 -14 -47 -38 -66 -55 -80 -73 -113 -102 -154 -135 -24 -19
-50 -42 -59 -50 -31 -29 -193 -165 -215 -180 -11 -8 -23 -19 -25 -23 -2 -5
-27 -27 -56 -50 -29 -23 -100 -84 -158 -134 -59 -51 -108 -93 -110 -93 -2 0
-4 108 -3 240 l1 240 -585 2 -585 3 0 25 0 25 615 0 615 0 -1 -202 c-1 -112 3
-203 8 -203 4 0 39 29 76 64 37 35 90 81 117 101 28 21 68 54 91 74 22 20 69
62 105 93 35 32 132 115 214 185 83 71 150 133 150 140 0 11 -96 98 -223 201
-36 29 -84 69 -107 90 -42 38 -54 48 -165 142 -36 30 -86 73 -111 95 -66 58
-147 125 -151 125 -2 0 -3 -93 -3 -207 l0 -208 -615 0 -615 0 0 30 0 30 575 2
c316 1 580 3 587 3 8 0 11 65 10 240 -1 132 1 240 5 240 4 0 13 -6 20 -12z
m6724 -80 c58 -51 124 -109 147 -128 23 -19 94 -80 158 -135 63 -55 129 -111
145 -125 115 -98 322 -275 338 -290 18 -17 16 -19 -36 -58 -30 -22 -75 -61
-100 -86 -26 -25 -51 -46 -57 -46 -6 0 -15 -8 -20 -18 -6 -11 -34 -37 -63 -59
-29 -22 -70 -56 -90 -74 -20 -19 -56 -50 -80 -69 -47 -39 -189 -162 -291 -253
-98 -87 -150 -126 -159 -121 -4 3 -6 108 -5 234 l2 230 -585 2 -585 3 0 25 0
25 612 3 613 2 2 -209 3 -209 80 76 c44 41 103 93 131 116 80 64 434 366 482
411 24 22 48 42 53 43 22 8 4 33 -63 90 -184 155 -235 198 -333 284 -166 146
-335 288 -343 288 -6 0 -10 -78 -10 -202 l0 -203 -607 0 c-549 0 -609 2 -618
16 -6 9 -7 24 -4 33 6 15 54 17 589 16 l583 -1 0 240 c0 133 1 241 3 241 1 0
50 -42 108 -92z m6571 50 c12 -12 41 -40 65 -60 24 -20 66 -56 93 -80 28 -24
75 -63 105 -88 29 -25 79 -67 110 -95 86 -77 202 -176 251 -215 87 -70 224
-193 226 -204 2 -6 -22 -31 -52 -56 -71 -58 -232 -196 -315 -270 -36 -32 -94
-82 -130 -111 -36 -30 -79 -66 -95 -80 -17 -15 -55 -48 -85 -74 -30 -26 -66
-57 -80 -69 -43 -39 -139 -116 -145 -116 -3 0 -5 106 -5 235 l0 235 -452 1
c-249 0 -513 0 -585 -1 l-133 -1 0 31 0 30 615 0 615 0 0 -205 c0 -130 4 -205
10 -205 6 0 10 4 10 8 0 5 79 75 176 158 97 82 186 158 198 170 11 12 82 72
156 134 150 126 210 181 210 191 0 4 -24 26 -52 49 -29 23 -91 74 -137 113
-298 257 -446 384 -545 470 l-21 19 -5 -209 -5 -208 -610 0 -610 0 0 30 0 30
580 2 580 2 3 241 c2 225 4 240 20 231 9 -5 27 -20 39 -33z m-2819 -10 c18
-18 15 -53 -7 -72 -17 -15 -70 -17 -687 -14 -622 3 -670 4 -686 20 -22 22 -23
42 -2 62 14 14 90 16 693 16 513 0 680 -3 689 -12z m-7176 -144 c-3 -16 -8
-22 -14 -16 -5 5 -6 21 -2 37 8 33 23 15 16 -21z m-5 -66 c-3 -7 -5 -2 -5 12
0 14 2 19 5 13 2 -7 2 -19 0 -25z m-570 -20 c-3 -7 -5 -2 -5 12 0 14 2 19 5
13 2 -7 2 -19 0 -25z m-2520 -64 c31 -27 78 -67 103 -90 50 -45 167 -143 225
-189 21 -16 48 -40 59 -53 12 -13 43 -40 69 -60 26 -20 46 -42 45 -48 -2 -7
-64 -63 -138 -125 -74 -62 -155 -132 -180 -155 -25 -23 -61 -55 -80 -70 -36
-29 -164 -139 -188 -161 -7 -7 -16 -13 -20 -13 -4 0 -6 76 -4 170 l3 170 -648
2 -648 3 1 75 c0 41 2 124 2 183 l2 108 643 -3 642 -3 3 173 2 173 25 -19 c13
-10 50 -41 82 -68z m6686 -49 c77 -66 154 -131 172 -145 18 -14 90 -74 160
-135 l126 -110 -42 -35 c-24 -19 -95 -80 -159 -135 -63 -55 -155 -134 -205
-175 -49 -41 -92 -77 -95 -80 -17 -18 -109 -90 -114 -90 -4 0 -6 73 -5 163 l1
162 -641 3 -641 2 0 185 0 186 636 -1 c350 -1 638 1 641 3 2 3 4 80 3 172 -1
132 2 165 12 159 7 -4 75 -62 151 -129z m6712 -70 c155 -137 217 -190 249
-215 18 -14 52 -42 76 -62 43 -38 43 -38 24 -59 -10 -12 -86 -78 -169 -147
-82 -69 -161 -137 -174 -149 -14 -13 -63 -56 -110 -96 -47 -40 -97 -82 -111
-95 l-25 -22 -5 172 -5 172 -641 -3 -641 -3 2 184 2 183 639 1 639 1 3 172 2
172 83 -67 c45 -38 118 -100 162 -139z m-17757 -12 l-3 -188 -187 -3 -188 -2
0 190 0 190 190 0 190 0 -2 -187z m6879 155 c-3 -8 -6 -5 -6 6 -1 11 2 17 5
13 3 -3 4 -12 1 -19z m480 -35 c-4 -52 -8 -61 -47 -99 -24 -24 -48 -40 -53
-37 -5 3 10 22 32 42 33 28 43 44 47 76 10 88 27 103 21 18z m7267 38 c22 -18
20 -58 -3 -71 -13 -6 -247 -10 -690 -10 l-671 0 -17 26 c-25 39 -8 58 58 64
30 3 336 5 681 4 499 0 630 -3 642 -13z m-7191 -112 c-5 -5 -7 7 -4 29 5 34 6
35 9 8 2 -16 0 -32 -5 -37z m-196 -84 c0 -8 -7 -15 -15 -15 -12 0 -12 3 -2 15
7 8 13 15 15 15 1 0 2 -7 2 -15z m-42 -42 c-2 -10 -4 -19 -4 -21 -1 -2 -6 0
-11 3 -8 5 -7 11 1 21 15 18 18 18 14 -3z m8032 -169 c15 -11 38 -36 51 -54
22 -33 22 -37 22 -366 0 -205 -4 -334 -10 -334 -15 0 -60 23 -60 31 0 10 -58
29 -91 29 -16 0 -70 -22 -121 -48 -90 -46 -170 -83 -252 -116 -34 -14 -132
-16 -810 -16 -752 0 -772 1 -804 20 -18 11 -41 34 -52 52 -19 31 -20 51 -20
373 0 384 1 389 76 432 l39 23 1002 -3 c999 -2 1002 -2 1030 -23z m7758 -4 c0
-21 5 -26 33 -28 28 -3 32 -7 32 -33 0 -25 -4 -29 -29 -29 -25 0 -30 -4 -33
-27 -4 -38 -49 -40 -58 -3 -4 18 -14 26 -33 28 -22 3 -27 8 -27 32 0 24 5 29
28 32 21 2 28 9 30 31 3 24 7 28 30 25 21 -2 27 -8 27 -28z m213 -2 c3 -22 9
-28 28 -28 20 0 24 -5 24 -30 0 -25 -4 -30 -25 -30 -18 0 -25 -5 -25 -19 0
-44 -56 -53 -62 -9 -2 17 -11 24 -31 26 -25 3 -28 7 -25 35 2 27 7 32 28 32
18 0 25 6 26 20 1 11 2 24 3 28 1 5 13 7 29 5 21 -2 28 -9 30 -30z m-23198
-562 l0 -395 -182 -3 c-101 -2 -186 -2 -190 0 -5 2 -8 181 -8 398 l0 394 190
0 190 0 0 -394z m7255 344 c3 -5 1 -10 -4 -10 -6 0 -11 5 -11 10 0 6 2 10 4
10 3 0 8 -4 11 -10z m162 -37 c-3 -10 -5 -2 -5 17 0 19 2 27 5 18 2 -10 2 -26
0 -35z m12206 -44 l49 -26 -51 -32 c-28 -17 -53 -31 -56 -31 -2 0 -21 -11 -41
-25 -53 -36 -64 -33 -64 20 l0 45 -300 0 -300 0 0 -220 c0 -191 -2 -221 -16
-227 -8 -3 -19 -2 -24 3 -5 5 -10 115 -10 244 l-1 235 328 5 328 5 -3 49 -4
49 59 -34 c32 -18 80 -45 106 -60z m-12013 -194 c21 -18 97 -62 150 -87 25
-12 39 -23 33 -25 -13 -5 -177 90 -223 128 l-25 20 25 -12 c14 -6 32 -17 40
-24z m-3928 -1316 c1 -951 -1 -1232 -11 -1261 -15 -45 -68 -93 -118 -108 -26
-7 -167 -10 -428 -8 l-390 3 -3 33 -3 32 398 0 c376 0 400 1 430 20 17 10 38
29 45 42 10 19 14 259 16 1250 l3 1228 29 -3 30 -4 2 -1224z m6708 -11 c0
-1204 0 -1230 -20 -1268 -19 -37 -55 -70 -92 -83 -10 -3 -201 -7 -424 -7
l-407 -2 -3 31 -4 31 390 0 c314 0 397 3 425 14 70 29 65 -70 66 1287 1 673 3
1227 5 1230 2 3 17 4 34 1 l30 -4 0 -1230z m6571 1232 c18 0 19 -29 19 -1220
0 -1335 3 -1259 -57 -1322 -55 -57 -71 -59 -503 -56 l-395 3 -3 33 -3 32 396
0 c374 0 398 1 434 20 26 13 43 30 50 51 8 23 11 383 11 1252 0 1108 1 1219
16 1213 9 -3 24 -6 35 -6z m-1686 -286 c66 -37 154 -80 195 -97 96 -38 264
-87 302 -87 45 0 75 -37 77 -96 5 -111 3 -307 -3 -371 -25 -236 -129 -484
-271 -644 -46 -52 -176 -161 -231 -194 -65 -39 -185 -95 -204 -95 -22 0 -153
68 -235 122 -90 58 -213 181 -269 266 -37 57 -82 142 -118 227 -28 66 -59 203
-73 322 -19 152 -17 393 2 429 9 15 32 25 95 38 158 33 338 102 493 190 55 31
104 56 110 56 5 0 64 -30 130 -66z m-14677 -345 l-3 -391 -180 1 c-99 0 -183
1 -187 1 -5 0 -8 176 -8 390 l0 390 190 0 191 0 -3 -391z m18129 255 c-3 -3
-12 -4 -19 -1 -8 3 -5 6 6 6 11 1 17 -2 13 -5z m3893 -156 c25 -50 46 -95 48
-99 2 -4 -16 -9 -40 -11 l-43 -3 -3 -227 -2 -228 -378 -2 -377 -3 3 -42 c1
-32 -2 -43 -12 -43 -8 0 -16 4 -18 8 -1 5 -42 30 -90 56 -49 26 -88 50 -88 54
1 4 24 18 53 32 29 13 68 34 87 47 57 36 64 34 61 -15 l-3 -42 359 2 358 3 3
203 2 202 -40 0 c-22 0 -40 2 -40 5 0 16 96 195 105 195 5 0 30 -41 55 -92z
m-18110 -930 c0 -906 1 -975 18 -1008 9 -19 28 -40 42 -47 19 -10 126 -13 428
-13 l402 0 0 -30 0 -30 -419 0 -418 0 -34 23 c-18 12 -44 40 -56 62 l-23 40 0
988 0 987 30 0 30 0 0 -972z m6590 -5 c0 -951 1 -979 20 -1010 13 -21 31 -35
57 -42 24 -7 185 -11 426 -11 l388 0 -3 -32 -3 -33 -415 0 -415 0 -42 30 c-23
17 -51 46 -62 66 -21 36 -21 46 -21 1023 l0 986 35 0 35 0 0 -977z m6700 2 c0
-1071 -3 -1017 60 -1050 24 -13 90 -15 423 -15 216 0 396 -2 399 -5 3 -3 3
-17 0 -30 l-4 -25 -413 0 -412 0 -40 29 c-78 56 -73 -19 -73 1077 0 539 0 982
0 987 0 4 14 7 30 7 l30 0 0 -975z m-10222 940 c-3 -3 -9 2 -12 12 -6 14 -5
15 5 6 7 -7 10 -15 7 -18z m-633 -2 c-4 -10 -20 -62 -35 -117 -16 -54 -31
-100 -34 -103 -2 -3 -18 10 -34 28 l-30 33 -43 -39 c-24 -22 -43 -41 -41 -43
1 -1 -12 -15 -30 -30 -18 -15 -79 -75 -137 -134 -102 -106 -126 -122 -137 -94
-9 24 5 40 181 216 l167 167 -36 28 c-20 15 -36 31 -36 35 0 7 24 15 160 51
87 22 94 23 85 2z m11582 -35 c-2 -13 -4 -5 -4 17 -1 22 1 32 4 23 2 -10 2
-28 0 -40z m-12400 -131 l133 -134 0 -573 c0 -648 5 -610 -77 -610 -42 0 -43
-1 -44 -32 -1 -18 -1 -38 0 -44 1 -6 -10 -21 -24 -34 -18 -17 -31 -21 -55 -17
-16 4 -30 3 -31 -1 -5 -62 -11 -98 -20 -107 -6 -6 -195 -11 -549 -13 -530 -2
-540 -2 -560 18 -20 20 -20 30 -20 712 0 775 -5 728 72 728 37 0 38 1 38 34 0
49 27 78 75 79 l40 2 -3 40 c-2 40 11 67 38 78 8 3 204 6 434 6 l419 1 134
-133z m2154 -28 c-30 -27 -61 -49 -69 -49 -7 0 8 17 35 38 26 21 54 46 62 56
8 9 17 14 20 10 3 -3 -18 -28 -48 -55z m-6 41 c-3 -5 -11 -10 -16 -10 -6 0 -7
5 -4 10 3 6 11 10 16 10 6 0 7 -4 4 -10z m-5643 -39 l33 -29 3 -144 c3 -122 1
-148 -14 -176 -17 -31 -17 -35 -1 -62 14 -23 17 -55 17 -178 l0 -149 46 -18
c54 -21 152 -112 181 -170 56 -111 55 -238 -3 -345 -44 -80 -74 -112 -139
-149 -112 -63 -223 -66 -346 -9 -81 38 -149 106 -183 183 -9 22 -20 46 -24 53
-6 11 -77 13 -365 12 -322 -1 -361 1 -387 17 -45 26 -54 62 -54 213 0 116 2
140 19 167 18 31 18 33 2 45 -15 11 -17 33 -18 156 -2 134 0 146 21 174 l22
30 -20 19 c-26 24 -37 105 -28 217 7 94 26 144 59 160 15 7 209 11 584 11
l563 1 32 -29z m16745 -1 c88 -53 135 -229 108 -402 -19 -125 -89 -218 -163
-218 -503 -4 -497 -4 -500 -27 -3 -22 -2 -23 155 -25 l158 -3 0 -92 c0 -84 -2
-94 -25 -118 -26 -28 -87 -58 -152 -75 -57 -16 -234 -14 -290 3 -68 21 -135
67 -148 101 -5 16 -10 111 -10 217 0 211 6 237 65 278 51 34 93 41 288 41 190
0 230 8 268 52 42 50 52 82 57 186 l5 102 76 0 c58 0 84 -5 108 -20z m-11581
-38 c-6 -5 -55 31 -56 41 0 4 13 -2 30 -14 16 -13 28 -24 26 -27z m197 11 c-7
-2 -19 -2 -25 0 -7 3 -2 5 12 5 14 0 19 -2 13 -5z m160 0 c-7 -2 -21 -2 -30 0
-10 3 -4 5 12 5 17 0 24 -2 18 -5z m37 -37 c0 -2 -7 -7 -16 -10 -8 -3 -12 -2
-9 4 6 10 25 14 25 6z m-313 -12 c-3 -3 -12 -4 -19 -1 -8 3 -5 6 6 6 11 1 17
-2 13 -5z m-907 -189 c-26 -81 -33 -107 -39 -144 -1 -2 -16 13 -35 35 l-34 39
-48 -47 c-27 -25 -114 -110 -192 -188 -79 -77 -149 -139 -155 -137 -38 12 -11
48 168 227 l186 185 -31 27 c-16 15 -30 31 -30 35 0 5 35 18 78 31 42 12 95
28 117 35 22 7 41 9 43 5 2 -4 -11 -50 -28 -103z m11217 83 c-3 -8 -6 -5 -6 6
-1 11 2 17 5 13 3 -3 4 -12 1 -19z m-10 -105 c-2 -16 -4 -3 -4 27 0 30 2 43 4
28 2 -16 2 -40 0 -55z m0 -55 c-3 -8 -6 -5 -6 6 -1 11 2 17 5 13 3 -3 4 -12 1
-19z m1840 -393 c21 -41 40 -75 43 -75 3 0 22 34 43 75 31 64 41 75 62 75 l25
0 0 -151 c0 -138 -1 -150 -17 -147 -16 3 -18 16 -18 111 0 59 -3 107 -7 107
-4 0 -25 -31 -45 -70 -21 -38 -40 -70 -43 -70 -3 0 -24 33 -45 73 l-40 72 -5
-115 c-4 -93 -8 -115 -20 -115 -17 0 -27 46 -24 115 0 25 2 78 2 118 2 69 3
72 26 72 20 0 31 -13 63 -75z m376 -15 c27 -21 53 -83 42 -100 -3 -5 -37 -10
-74 -10 -37 0 -71 -3 -74 -6 -7 -8 11 -46 27 -56 18 -13 53 -9 66 7 16 19 40
19 40 1 0 -23 -41 -46 -80 -46 -81 1 -127 101 -80 178 32 53 89 66 133 32z
m160 11 c20 9 32 8 60 -6 33 -16 38 -16 52 -1 24 23 62 20 90 -9 23 -22 25
-32 25 -115 0 -83 -1 -90 -20 -90 -18 0 -20 7 -20 83 0 88 -8 107 -46 107 -34
0 -43 -20 -46 -105 -2 -63 -6 -80 -18 -80 -12 0 -16 17 -18 80 -3 85 -12 105
-46 105 -38 0 -46 -19 -46 -108 0 -74 -2 -83 -17 -80 -16 3 -18 17 -21 107 -3
105 6 134 34 110 8 -6 20 -6 37 2z m440 -31 c21 -23 27 -40 27 -73 0 -56 -17
-86 -62 -109 -34 -18 -39 -18 -67 -3 -44 22 -66 61 -64 112 4 102 100 145 166
73z m270 -38 c8 -26 18 -60 21 -76 4 -15 10 -26 13 -23 3 3 18 41 32 84 22 63
32 79 50 81 19 3 21 1 13 -15 -6 -10 -29 -72 -51 -138 -23 -65 -46 -124 -52
-132 -16 -18 -59 -17 -59 2 0 8 6 15 14 15 7 0 19 7 26 15 10 12 4 37 -29 132
-31 89 -38 119 -28 125 16 10 31 -11 50 -70z m-155 56 c9 -9 15 -9 24 0 7 7
23 12 36 12 34 0 25 -34 -10 -38 -39 -5 -47 -20 -50 -102 -2 -62 -6 -75 -20
-78 -16 -3 -18 7 -18 107 0 113 7 130 38 99z m-6026 -1628 c36 -39 45 -88 23
-133 -9 -19 -25 -37 -36 -40 -26 -7 -24 -21 8 -38 14 -8 32 -28 40 -46 48
-116 -58 -216 -202 -189 -34 7 -105 58 -105 77 0 5 11 15 25 21 22 10 28 9 41
-10 21 -30 88 -47 126 -31 60 25 77 91 33 134 -19 20 -34 25 -75 25 l-51 0 3
33 c3 28 6 32 29 29 42 -5 97 23 105 52 16 67 -35 115 -103 97 -20 -6 -47 -20
-60 -33 -22 -21 -24 -21 -41 -5 -13 13 -14 21 -6 34 47 75 186 88 246 23z
m-15117 24 c18 -8 41 -24 51 -35 18 -20 18 -21 -6 -39 -24 -18 -25 -18 -51 5
-39 32 -91 40 -134 19 -38 -18 -55 -55 -38 -83 12 -21 86 -58 142 -72 93 -23
131 -102 90 -186 -29 -59 -72 -83 -147 -83 -82 0 -170 49 -158 88 10 30 37 37
56 14 23 -30 57 -44 106 -45 117 -1 130 140 15 159 -125 20 -191 83 -171 165
13 55 19 64 58 87 45 26 138 30 187 6z m1805 -202 l-2 -207 61 -3 c57 -3 61
-4 61 -27 l0 -25 -160 0 c-152 0 -160 1 -160 19 0 27 9 31 74 32 l56 2 0 185
0 186 -54 -53 c-47 -46 -57 -52 -70 -41 -25 20 -20 32 37 87 45 45 58 52 97
55 25 2 49 2 53 0 4 -2 7 -97 7 -210z m4865 202 c43 -20 67 -47 60 -67 -11
-26 -44 -27 -69 -2 -35 35 -92 43 -136 19 -29 -16 -36 -25 -38 -56 -3 -34 0
-39 35 -56 21 -11 64 -27 95 -36 90 -26 126 -75 115 -156 -10 -77 -67 -120
-158 -120 -57 0 -123 26 -155 61 -18 20 -18 21 6 39 25 19 25 19 52 -7 35 -33
124 -44 162 -20 29 19 39 57 26 92 -11 29 -83 65 -130 65 -35 0 -92 47 -110
90 -24 59 15 138 80 163 32 12 133 7 165 -9z m1836 -1 c38 -22 59 -70 59 -130
-1 -69 -46 -134 -151 -219 -33 -26 -59 -51 -59 -56 0 -5 12 -8 28 -7 15 1 69
1 120 1 91 -2 92 -2 92 -27 l0 -24 -157 -3 c-87 -2 -161 -1 -165 2 -4 3 -3 21
3 40 7 23 35 57 82 100 88 79 133 135 140 175 7 38 -15 90 -44 105 -34 19 -96
-3 -117 -41 -21 -36 -55 -36 -60 -1 -4 26 18 56 63 83 39 24 126 25 166 2z
m4754 1 c18 -8 41 -24 51 -35 17 -19 17 -21 -4 -41 l-22 -22 -22 21 c-78 71
-206 36 -184 -51 4 -18 20 -31 52 -46 26 -11 53 -20 60 -20 33 0 91 -33 112
-63 45 -67 19 -167 -52 -201 -70 -33 -192 -11 -241 43 l-19 23 24 18 c25 19
25 19 52 -7 35 -34 124 -44 162 -20 29 19 42 67 26 96 -14 26 -61 51 -97 51
-34 0 -103 31 -122 54 -8 9 -18 39 -22 67 -10 60 11 103 63 131 42 22 139 23
183 2z m6593 2 c15 -8 36 -24 47 -36 l20 -22 -24 -19 c-23 -19 -23 -19 -52 6
-80 67 -203 18 -170 -68 9 -23 60 -48 126 -62 112 -22 159 -142 88 -225 -50
-60 -177 -67 -252 -13 -45 31 -52 57 -20 74 18 9 25 7 49 -16 30 -29 96 -43
143 -31 40 10 65 99 35 124 -14 11 -96 38 -142 47 -16 4 -44 21 -63 40 -28 28
-33 40 -33 82 0 87 55 133 158 133 35 0 75 -6 90 -14z m1860 -153 l2 -162 33
-3 c26 -2 32 -7 32 -28 0 -21 -6 -26 -33 -28 -31 -3 -32 -5 -32 -48 0 -45 0
-45 -32 -42 -32 3 -33 4 -30 46 l4 42 -116 0 -116 0 0 29 c0 17 5 33 10 36 6
4 17 23 26 43 8 20 25 53 38 72 12 19 44 72 71 117 42 71 53 83 79 86 64 8 61
16 64 -160z m-14812 80 c-5 -36 -3 -42 12 -41 48 4 62 -2 62 -27 0 -22 -4 -25
-37 -25 l-38 0 0 -123 1 -122 37 -3 c32 -3 37 -7 37 -28 0 -23 -3 -24 -59 -24
-33 0 -63 5 -66 10 -6 9 -12 123 -14 253 -1 33 -4 37 -26 37 -20 0 -25 5 -25
25 0 17 5 25 18 25 28 0 42 21 42 61 0 28 5 39 18 41 31 8 45 -13 38 -59z
m6582 9 l3 -51 37 2 c34 2 37 -1 40 -25 3 -27 1 -28 -37 -28 l-41 0 0 -125 0
-125 40 0 c36 0 40 -2 40 -25 0 -27 -8 -29 -80 -25 -58 3 -60 9 -60 161 l0
139 -30 0 c-23 0 -29 4 -27 18 4 27 17 42 37 42 19 0 36 42 24 61 -11 18 4 36
28 34 20 -1 23 -7 26 -53z m-13253 -2 c0 -45 0 -45 38 -48 31 -3 37 -7 37 -27
0 -20 -6 -24 -36 -27 l-37 -3 2 -114 c1 -63 4 -118 7 -123 3 -4 18 -8 35 -8
24 0 29 -4 29 -25 0 -24 -3 -25 -55 -25 -73 0 -78 11 -81 170 -3 123 -3 125
-26 125 -13 0 -23 6 -22 13 1 6 2 19 3 27 0 8 10 15 20 15 22 0 31 19 31 66 0
33 2 35 28 32 25 -3 27 -6 27 -48z m19855 0 c0 -35 4 -50 13 -49 6 1 24 1 40
0 22 -1 27 -6 27 -26 0 -23 -4 -25 -40 -25 l-41 0 3 -122 3 -123 33 -3 c26 -3
32 -8 32 -26 0 -28 -36 -37 -88 -24 -39 10 -41 19 -45 173 -2 116 -3 120 -24
123 -33 5 -32 48 2 56 22 6 25 12 25 51 0 43 1 45 30 45 29 0 30 -1 30 -50z
m-19075 -25 c0 -26 -4 -30 -27 -30 -33 1 -35 -8 -8 -42 22 -29 25 -71 7 -122
-16 -45 -65 -71 -133 -71 -39 0 -53 -4 -58 -17 -10 -25 12 -33 89 -33 113 0
169 -48 149 -128 -7 -30 -17 -41 -54 -59 -68 -35 -196 -27 -242 15 -25 21 -23
77 3 114 16 22 19 32 10 41 -18 18 -13 56 9 69 11 7 20 16 20 20 0 5 -9 17
-20 28 -19 19 -24 45 -20 100 4 61 63 103 137 99 34 -2 47 1 55 15 11 19 45
36 68 33 10 -1 15 -13 15 -32z m6679 19 c12 -32 6 -43 -29 -50 l-35 -6 20 -28
c22 -30 26 -92 11 -133 -14 -37 -70 -67 -127 -67 -57 0 -79 -11 -71 -34 5 -13
23 -16 95 -16 80 0 92 -2 115 -24 35 -32 43 -68 25 -114 -11 -31 -21 -40 -63
-54 -63 -21 -130 -22 -186 -3 -52 19 -59 28 -59 82 0 32 5 46 20 55 21 13 27
34 11 40 -4 2 -11 13 -15 24 -5 17 1 28 24 47 l30 26 -28 19 c-23 18 -27 27
-26 70 1 88 60 140 149 130 35 -4 45 -2 45 9 0 13 51 42 76 43 7 0 15 -7 18
-16z m6594 -16 c3 -26 1 -28 -32 -28 -42 0 -43 -4 -16 -45 22 -34 26 -91 8
-129 -17 -38 -54 -57 -119 -63 -58 -6 -87 -22 -74 -43 3 -6 44 -10 93 -10 83
0 89 -2 120 -29 25 -23 32 -38 32 -66 0 -48 -13 -70 -52 -90 -46 -23 -158 -31
-200 -15 -79 31 -100 87 -53 138 16 17 21 30 15 36 -20 20 -11 65 16 82 l25
17 -25 21 c-35 29 -43 89 -19 136 24 47 75 72 134 67 42 -3 47 -1 62 25 14 24
22 29 49 26 28 -2 34 -8 36 -30z m6592 -3 c0 -21 -5 -25 -28 -25 -40 0 -43 -7
-21 -43 30 -50 26 -119 -9 -158 -25 -28 -35 -32 -101 -37 -66 -4 -72 -6 -69
-26 3 -19 10 -21 90 -24 80 -3 89 -5 117 -31 33 -31 42 -82 20 -123 -30 -56
-178 -77 -259 -35 -40 20 -45 26 -48 61 -3 31 2 44 24 67 25 26 25 29 10 44
-22 23 -20 38 9 65 l24 23 -25 30 c-23 27 -26 38 -22 85 4 41 11 59 32 80 23
24 34 27 91 27 40 0 65 4 65 10 0 21 25 35 62 35 34 0 38 -3 38 -25z m-20300
-33 c51 -25 60 -51 60 -179 0 -90 3 -113 14 -113 14 0 28 -34 18 -44 -3 -3
-20 -6 -39 -6 -22 0 -33 5 -33 14 0 26 -18 27 -44 1 -20 -19 -35 -25 -71 -25
-76 0 -124 38 -125 97 0 79 47 113 156 113 61 0 64 1 64 24 0 37 -10 55 -39
70 -33 17 -79 10 -109 -17 -21 -19 -24 -20 -39 -5 -56 57 99 115 187 70z m720
-3 c20 -11 44 -34 54 -49 23 -40 36 -117 22 -129 -6 -5 -45 -9 -86 -10 -171 0
-158 2 -152 -28 12 -69 86 -101 146 -64 19 12 37 27 39 34 3 8 12 5 27 -9 l22
-22 -32 -31 c-78 -74 -230 -41 -258 57 -15 54 -8 155 14 196 37 72 129 97 204
55z m5936 11 c56 -20 69 -53 70 -175 2 -101 4 -111 23 -120 12 -6 21 -19 21
-32 0 -20 -5 -23 -40 -23 -30 0 -42 5 -51 22 l-12 22 -19 -24 c-38 -47 -159
-34 -188 19 -11 22 -13 80 -4 106 11 27 66 49 139 55 l70 5 -3 30 c-7 70 -86
93 -140 42 l-29 -27 -18 20 c-18 20 -18 21 6 46 13 14 33 30 44 34 29 12 97
12 131 0z m739 -8 c57 -35 100 -170 59 -186 -9 -3 -65 -6 -126 -6 l-110 0 7
-27 c8 -35 21 -51 58 -69 35 -19 65 -13 107 22 29 25 33 26 48 11 13 -14 14
-20 2 -41 -28 -54 -133 -73 -200 -37 -112 60 -104 294 12 341 39 15 111 11
143 -8z m5860 4 c55 -23 68 -61 64 -185 -4 -104 -3 -106 19 -109 16 -3 22 -10
22 -28 0 -21 -4 -24 -40 -24 -29 0 -42 5 -50 21 -11 20 -12 20 -35 -5 -19 -21
-34 -26 -69 -26 -25 0 -56 4 -70 10 -53 20 -74 117 -35 159 29 31 61 41 130
41 70 0 81 13 56 66 -16 32 -20 34 -66 34 -42 0 -52 -4 -69 -27 -18 -25 -21
-26 -36 -11 -60 61 79 125 179 84z m732 -6 c42 -25 65 -72 67 -134 l1 -51
-123 -3 c-122 -3 -123 -3 -117 -25 12 -38 35 -68 62 -78 34 -13 93 4 115 33
16 22 18 22 35 5 22 -21 12 -41 -37 -74 -66 -45 -169 -24 -211 43 -32 53 -35
181 -4 232 40 67 145 93 212 52z m5854 10 c54 -15 69 -56 69 -186 0 -97 2
-106 20 -111 13 -3 20 -14 20 -29 0 -21 -5 -24 -40 -24 -22 0 -40 3 -40 8 0 4
-4 14 -9 21 -8 12 -13 11 -29 -9 -14 -18 -31 -24 -75 -28 -52 -4 -58 -2 -87
26 -42 43 -44 111 -4 152 21 22 35 25 104 28 70 4 80 7 80 22 0 36 -20 70 -46
80 -34 13 -90 -4 -105 -32 l-11 -20 -22 21 -21 22 37 35 c41 37 86 44 159 24z
m748 -19 c34 -25 55 -65 66 -129 6 -39 5 -42 -20 -48 -15 -4 -71 -4 -126 -2
l-99 5 0 -32 c0 -78 128 -110 174 -43 12 17 17 18 35 6 30 -19 26 -32 -21 -67
-33 -25 -52 -31 -91 -31 -122 0 -179 83 -158 232 7 53 38 99 86 127 31 18 117
8 154 -18z m-20240 -643 c-1 -13 -1 -56 -1 -97 l2 -74 23 21 c18 17 36 22 76
22 47 0 57 -4 86 -33 46 -46 60 -103 47 -192 -9 -61 -15 -74 -46 -102 -31 -28
-43 -33 -88 -33 -40 0 -57 5 -75 22 -24 22 -24 22 -29 2 -4 -15 -14 -21 -35
-21 l-29 0 0 254 0 253 35 0 c31 0 35 -3 34 -22z m1129 -128 c-1 -83 -2 -150
-1 -150 2 0 35 33 75 74 52 53 82 76 106 80 46 8 41 -8 -28 -80 -63 -65 -70
-81 -45 -91 9 -3 22 -20 31 -37 8 -17 30 -53 49 -81 44 -62 44 -75 3 -75 -25
0 -37 7 -50 28 -32 50 -43 66 -60 86 -10 11 -20 28 -24 38 -14 45 -47 -8 -54
-87 -5 -59 -6 -60 -35 -60 l-30 0 -1 253 -1 252 35 0 34 0 -4 -150z m6346 128
c16 -26 -4 -53 -40 -53 -25 0 -29 4 -32 32 -2 23 1 33 15 36 29 8 45 3 57 -15z
m-2325 -8 c19 -5 47 -21 62 -36 23 -22 26 -29 16 -45 -15 -25 -35 -24 -64 2
-34 33 -110 37 -145 9 -19 -14 -28 -31 -28 -49 0 -45 22 -59 143 -92 26 -8 60
-26 75 -42 24 -25 27 -36 27 -92 0 -60 -3 -67 -32 -97 -30 -30 -39 -33 -106
-36 -60 -3 -81 0 -122 20 -39 18 -51 29 -53 50 -5 40 32 48 68 13 22 -21 38
-27 82 -28 63 -1 76 5 93 48 25 58 -3 96 -81 111 -54 10 -116 38 -137 62 -28
31 -33 92 -11 137 29 63 123 91 213 65z m433 -2 c67 -20 115 -98 125 -204 8
-88 -29 -224 -62 -224 -7 0 -15 -7 -18 -15 -4 -8 -21 -18 -39 -23 -26 -6 -34
-14 -36 -35 -3 -25 -1 -27 36 -27 35 0 40 -3 45 -27 7 -36 2 -43 -33 -43 -63
0 -120 43 -120 90 0 21 -5 30 -16 30 -31 0 -94 44 -121 83 -27 38 -28 46 -28
156 0 120 2 129 55 195 39 48 133 68 212 44z m283 -204 l0 -209 98 -3 97 -3 0
-30 0 -30 -132 3 -132 3 -1 238 c0 131 1 239 2 240 1 1 16 2 35 1 l33 -1 0
-209z m586 206 l129 0 0 -30 0 -30 -110 0 -110 0 0 -75 0 -75 105 0 105 0 0
-31 0 -31 -105 4 -105 3 0 -77 0 -78 109 0 c108 0 109 0 113 -25 3 -13 3 -27
0 -30 -3 -3 -70 -5 -149 -5 l-143 0 0 246 c1 217 3 245 16 240 9 -3 74 -6 145
-6z m4786 -5 c30 -7 90 -61 110 -98 8 -17 18 -65 20 -108 5 -65 2 -88 -17
-139 -39 -103 -90 -130 -247 -130 l-93 0 0 243 0 242 102 -3 c57 -1 113 -5
125 -7z m1555 6 c36 -14 88 -67 88 -90 0 -24 -41 -52 -48 -32 -13 38 -50 64
-98 68 -43 5 -54 2 -81 -21 -69 -58 -71 -278 -2 -332 19 -15 68 -23 100 -17
26 5 58 31 82 66 11 16 14 16 34 2 22 -15 22 -17 5 -51 -42 -90 -217 -102
-285 -20 -94 114 -63 361 53 418 38 19 115 23 152 9z m5291 -39 c8 -21 25 -66
36 -102 32 -103 80 -242 96 -277 24 -50 20 -61 -22 -59 -26 1 -37 6 -39 18 -1
9 -10 40 -19 68 l-17 50 -92 0 -92 0 -24 -70 c-24 -68 -25 -70 -58 -70 -28 0
-33 3 -29 18 3 9 28 82 56 162 29 80 61 172 73 205 11 33 24 69 28 80 7 17 15
20 47 17 35 -3 42 -8 56 -40z m1987 29 c19 -10 45 -33 58 -52 l23 -34 -21 -17
c-29 -24 -34 -23 -50 8 -20 37 -65 57 -113 51 -74 -10 -106 -67 -107 -191 0
-122 40 -178 127 -180 41 -1 49 3 82 40 31 36 39 40 59 31 27 -12 27 -13 -6
-62 -37 -54 -110 -80 -180 -64 -63 14 -86 30 -119 86 -26 44 -28 56 -27 148 1
141 27 199 109 236 52 24 121 24 165 0z m555 -3 c98 -37 147 -185 105 -319
-35 -116 -92 -149 -257 -149 l-93 0 0 243 0 243 108 -4 c59 -2 121 -8 137 -14z
m-21995 -63 c25 -42 57 -95 72 -118 15 -23 42 -71 60 -107 l33 -65 3 183 2
182 33 0 32 0 0 -240 0 -240 -35 0 c-39 1 -44 7 -130 160 -37 66 -90 154 -119
200 -7 10 -10 -47 -10 -172 l-1 -188 -30 0 -30 0 0 240 0 240 38 0 c36 0 39
-3 82 -75z m790 5 l0 -50 40 0 c36 0 40 -2 40 -25 0 -22 -4 -25 -40 -25 l-40
0 0 -124 0 -125 33 -3 c27 -2 32 -7 32 -28 0 -22 -5 -25 -38 -28 -23 -2 -48 3
-62 12 -24 16 -25 21 -27 154 l-3 137 -27 3 c-22 3 -28 9 -28 27 0 18 7 25 30
30 28 6 30 10 30 51 0 42 1 44 30 44 29 0 30 -1 30 -50z m12460 0 l0 -50 40 0
c36 0 40 -3 40 -24 0 -21 -5 -25 -37 -28 l-38 -3 0 -120 0 -120 33 -3 c28 -3
32 -7 32 -33 0 -28 -2 -29 -45 -29 -77 0 -85 15 -85 175 l0 135 -25 0 c-38 0
-35 42 5 57 27 10 30 16 30 52 0 37 2 41 25 41 23 0 25 -3 25 -50z m1910 0 l0
-50 41 0 c38 0 40 -1 37 -27 -3 -25 -7 -28 -38 -28 l-35 0 -3 -122 -3 -123 36
0 c32 0 35 -2 35 -30 0 -28 -1 -29 -47 -29 -79 2 -83 11 -83 166 l0 134 -30 6
c-43 8 -38 43 8 57 18 6 22 15 22 45 0 44 5 51 37 51 21 0 23 -4 23 -50z
m1163 -2 l-3 -48 40 0 c38 0 40 -2 40 -30 0 -28 -3 -30 -37 -30 l-38 0 0 -123
0 -122 35 0 c31 0 35 -3 35 -25 0 -23 -4 -25 -47 -28 -75 -5 -83 11 -83 166
l0 127 -27 3 c-23 3 -28 8 -28 32 0 24 5 29 28 32 25 3 27 7 30 51 3 46 4 48
30 45 25 -3 27 -6 25 -50z m6305 0 c3 -47 4 -48 38 -48 30 0 34 -3 34 -25 0
-21 -5 -25 -30 -25 -16 0 -33 -6 -37 -14 -4 -8 -7 -64 -5 -125 l3 -111 35 0
c33 0 35 -2 32 -27 -3 -25 -8 -28 -44 -31 -29 -2 -47 3 -68 19 -27 21 -27 22
-26 143 1 66 1 127 1 133 -1 7 -11 12 -23 10 -17 -1 -24 4 -26 21 -3 18 3 25
27 33 27 10 31 16 31 48 0 44 7 53 35 49 16 -2 21 -12 23 -50z m-13920 -20
c-2 -18 -11 -24 -35 -26 -37 -4 -40 -8 -17 -33 21 -24 29 -89 15 -131 -15 -44
-59 -70 -135 -77 -52 -5 -61 -9 -64 -27 -3 -20 2 -22 90 -26 99 -4 129 -16
147 -55 41 -90 -25 -153 -160 -153 -76 0 -103 8 -137 40 -18 17 -22 28 -17 53
4 18 15 40 26 49 19 16 19 19 4 41 -18 28 -12 54 19 79 l21 17 -28 25 c-45 42
-34 129 23 181 16 14 36 19 80 20 51 0 60 3 69 23 9 18 19 22 56 22 42 0 46
-2 43 -22z m-7558 -43 c37 -19 69 -79 72 -137 l3 -43 -122 -3 c-133 -3 -135
-4 -111 -57 27 -59 112 -68 163 -18 20 21 27 23 40 13 8 -7 15 -18 15 -24 0
-22 -50 -65 -87 -75 -52 -15 -57 -14 -114 10 -58 25 -84 65 -95 147 -20 151
109 253 236 187z m763 -7 c92 -66 92 -251 -2 -317 -36 -26 -141 -30 -161 -6
-7 8 -19 15 -26 15 -22 0 -52 59 -60 116 -9 78 17 155 65 187 20 14 43 27 51
30 26 11 104 -4 133 -25z m381 -5 c39 -29 56 -76 56 -153 0 -83 -18 -126 -67
-160 -44 -30 -115 -33 -165 -6 -100 54 -110 248 -16 320 52 39 138 39 192 -1z
m5981 13 c37 -24 50 -87 47 -223 l-3 -123 -30 0 -29 0 0 130 c0 126 -1 132
-25 155 -31 31 -66 32 -102 1 -27 -24 -27 -24 -28 -152 l0 -129 -30 0 -30 0 0
175 0 175 33 3 c28 3 32 0 32 -20 l0 -23 18 22 c9 11 26 24 37 26 30 8 84 0
110 -17z m896 3 c38 -20 53 -78 51 -209 0 -69 -1 -128 -1 -132 -1 -5 -14 -8
-31 -8 l-30 0 0 129 c0 122 -1 129 -25 155 -27 29 -70 34 -101 12 -17 -13 -20
-31 -24 -153 l-5 -138 -32 -3 -33 -3 0 180 0 181 35 0 c30 0 35 -4 35 -22 1
-21 2 -22 14 -6 26 35 96 43 147 17z m368 -8 c43 -30 62 -65 68 -125 l6 -57
-124 1 -124 2 2 -27 c3 -34 36 -71 70 -78 37 -7 91 11 103 33 13 24 24 25 44
4 38 -38 -40 -94 -132 -94 -54 0 -65 4 -96 31 -52 45 -71 140 -46 230 25 91
152 135 229 80z m3489 0 c34 -18 42 -51 42 -168 0 -97 1 -105 21 -110 15 -4
19 -12 17 -32 -2 -21 -9 -27 -35 -29 -27 -3 -35 1 -44 22 l-12 26 -22 -24
c-50 -54 -172 -38 -194 27 -17 47 -13 73 15 106 28 34 76 51 147 51 45 0 47 1
47 30 0 67 -88 94 -142 43 -23 -22 -30 -24 -43 -13 -22 18 -19 33 13 62 39 38
129 42 190 9z m572 9 c46 -19 55 -46 57 -165 1 -60 2 -113 2 -117 1 -5 10 -8
21 -8 15 0 20 -7 20 -24 0 -32 -12 -38 -54 -31 -23 5 -36 14 -40 28 -5 20 -6
20 -31 -7 -24 -26 -30 -28 -91 -24 -77 5 -94 19 -101 82 -10 83 43 126 157
126 58 0 60 1 60 25 0 67 -91 98 -148 50 -29 -24 -30 -24 -47 -5 -15 17 -16
22 -4 36 38 46 132 62 199 34z m923 6 c43 -18 73 -53 92 -105 30 -86 -10 -214
-75 -241 -43 -18 -144 -9 -171 16 -53 47 -75 165 -45 239 36 86 120 125 199
91z m412 -14 c13 -9 28 -27 34 -38 11 -24 18 -280 8 -291 -4 -3 -18 -8 -32 -9
l-25 -3 0 127 c0 144 -8 167 -65 178 -24 4 -40 1 -59 -13 -24 -17 -25 -22 -28
-153 l-3 -135 -30 0 -30 0 0 175 0 175 33 3 c27 3 32 0 32 -17 0 -26 16 -27
23 -2 8 33 99 35 142 3z m435 2 l10 -25 26 20 c15 12 41 21 60 21 31 0 34 -3
34 -30 0 -27 -3 -30 -32 -30 -18 0 -48 -9 -65 -20 l-33 -20 0 -129 0 -130 -30
1 -30 1 0 178 c0 161 2 178 18 182 30 8 32 7 42 -19z m379 2 c46 -24 54 -49
53 -156 -2 -105 3 -130 24 -130 9 0 14 -11 14 -30 0 -28 -3 -30 -35 -30 -27 0
-37 6 -48 27 -14 26 -15 26 -25 6 -8 -13 -29 -25 -61 -33 -43 -10 -55 -9 -86
6 -75 35 -84 121 -18 171 29 22 49 28 104 31 l69 4 0 34 c0 63 -82 87 -138 39
-26 -21 -31 -23 -48 -10 -19 13 -19 14 2 42 38 51 124 64 193 29z m346 14 c14
0 75 -59 75 -72 0 -4 -9 -12 -21 -19 -18 -9 -25 -7 -48 15 -37 35 -92 36 -126
1 -22 -21 -25 -33 -25 -98 0 -60 4 -79 20 -100 37 -46 135 -44 147 3 7 25 25
26 47 1 17 -18 16 -21 -12 -53 -30 -32 -32 -33 -110 -33 -90 0 -112 12 -138
74 -19 45 -18 154 2 197 33 69 80 97 148 88 16 -2 34 -4 41 -4z m578 -15 c17
-10 27 -26 27 -41 0 -31 -17 -40 -39 -20 -28 26 -86 32 -116 12 -48 -32 -19
-86 46 -86 81 0 128 -40 129 -108 0 -52 -29 -85 -88 -102 -52 -13 -121 2 -157
36 -29 27 -31 37 -10 54 12 10 19 8 40 -8 60 -47 155 -33 155 23 0 29 -17 39
-94 55 -74 15 -106 46 -106 101 0 88 130 139 213 84z m3691 -5 c43 -26 66 -81
66 -161 0 -78 -19 -122 -67 -152 -53 -35 -89 -39 -147 -19 -68 24 -96 76 -96
174 0 74 13 108 53 146 49 46 125 50 191 12z m1998 20 c64 -18 78 -47 78 -166
0 -111 4 -134 27 -134 10 0 13 -9 11 -27 -2 -22 -9 -27 -35 -30 -27 -3 -35 0
-44 21 l-12 26 -23 -25 c-19 -21 -32 -25 -82 -25 -51 0 -62 4 -85 28 -38 40
-38 100 2 144 27 30 34 33 105 36 75 4 76 5 76 31 0 66 -81 94 -137 47 -25
-21 -31 -22 -48 -10 -19 14 -19 15 1 42 34 44 98 61 166 42z m625 -17 c32 -21
43 -65 43 -175 0 -91 2 -100 20 -105 14 -4 20 -14 20 -33 0 -25 -3 -28 -35
-28 -27 0 -40 6 -52 24 -15 24 -16 24 -30 5 -21 -31 -85 -47 -125 -31 -48 19
-67 38 -74 75 -8 46 19 99 61 119 19 9 59 16 94 16 60 0 61 0 61 28 0 33 -8
45 -37 61 -35 18 -69 13 -103 -15 -30 -26 -31 -26 -45 -8 -19 25 -19 27 9 53
43 41 141 47 193 14z m-22428 0 c18 -10 41 -37 52 -61 28 -56 23 -178 -8 -220
-35 -47 -67 -64 -122 -64 -66 0 -110 26 -138 82 -43 83 -26 191 38 251 27 25
39 29 89 29 37 0 70 -6 89 -17z m8279 -166 l2 -178 -32 3 -33 3 -2 165 c-1 91
0 171 2 178 3 8 16 12 32 10 l28 -3 3 -178z m10882 156 l0 -27 29 28 c22 21
36 27 62 24 29 -2 34 -7 34 -28 0 -21 -6 -26 -45 -33 -78 -15 -82 -23 -78
-164 l3 -123 -32 0 -33 0 0 175 0 175 30 0 c26 0 30 -4 30 -27z m240 1 l0 -26
31 27 c43 36 93 32 97 -7 3 -26 0 -28 -30 -28 -18 0 -47 -9 -65 -20 l-32 -19
-3 -128 -3 -127 -25 0 -25 0 -3 177 -2 177 30 0 c26 0 30 -4 30 -26z m591 -44
c10 -36 23 -96 30 -133 7 -37 16 -70 20 -73 7 -4 24 45 34 98 5 25 36 129 46
156 7 18 16 23 36 20 25 -3 28 -10 60 -133 19 -71 38 -134 43 -139 5 -5 11 9
15 30 3 22 10 56 16 77 24 95 28 114 34 140 4 22 11 27 35 27 35 0 36 -3 9
-95 -11 -38 -27 -97 -35 -130 -36 -146 -31 -136 -71 -133 l-36 3 -28 95 c-15
52 -30 107 -33 123 -4 15 -10 27 -14 27 -4 0 -23 -56 -41 -124 l-33 -124 -37
2 -36 1 -23 90 c-13 50 -30 115 -39 145 -8 30 -17 70 -20 88 -5 32 -4 33 22
30 25 -3 30 -10 46 -68z m-6631 -555 c0 -3 -9 -16 -21 -28 -91 -96 -125 -271
-78 -410 22 -67 55 -127 76 -140 22 -14 15 -37 -11 -37 -39 0 -95 78 -133 184
-9 25 -14 78 -14 138 0 86 4 105 30 162 45 100 76 136 117 136 19 0 34 -2 34
-5z m1322 -22 c62 -65 104 -203 95 -313 -9 -128 -92 -280 -153 -280 -13 0 -24
2 -24 5 0 3 15 25 34 50 108 141 111 362 7 505 -14 19 -29 37 -33 38 -19 8 -6
22 20 22 18 0 38 -10 54 -27z m-14522 -71 c0 -49 3 -92 6 -95 4 -3 18 3 32 13
36 29 112 27 140 -2 35 -38 42 -74 42 -209 l0 -129 -30 0 -30 0 0 130 c0 126
-1 132 -25 155 -32 33 -78 33 -110 0 -24 -23 -25 -29 -25 -155 l0 -130 -30 0
-30 0 0 255 0 255 30 0 30 0 0 -88z m1080 -68 l0 -156 73 76 c52 55 81 78 105
82 46 9 41 -6 -23 -76 -30 -33 -55 -63 -55 -68 0 -4 29 -52 65 -107 36 -54 65
-101 65 -103 0 -2 -17 -2 -37 0 -35 3 -42 9 -92 86 l-54 83 -23 -22 c-20 -19
-24 -32 -24 -86 l0 -63 -30 0 -30 0 0 255 0 255 30 0 30 0 0 -156z m5590 61
c0 -52 3 -95 6 -95 3 0 20 12 37 26 25 21 37 24 66 19 90 -17 115 -74 109
-255 l-3 -105 -32 -3 -33 -3 0 135 c0 123 -2 138 -20 156 -27 27 -77 26 -107
-2 -22 -20 -23 -28 -23 -155 l0 -134 -32 3 c-18 2 -32 6 -30 11 1 4 2 117 2
252 l0 245 30 0 30 0 0 -95z m1075 -58 c0 -81 3 -147 7 -147 4 0 24 19 45 42
76 85 102 105 138 106 19 1 35 0 35 -3 0 -2 -27 -32 -60 -67 -33 -34 -60 -70
-60 -79 0 -10 9 -28 20 -41 23 -28 110 -156 110 -163 0 -3 -18 -5 -40 -5 -34
0 -42 4 -56 33 -9 17 -32 56 -51 86 l-34 53 -25 -23 c-20 -19 -24 -32 -24 -86
l0 -63 -35 0 -35 0 0 248 c0 137 3 252 7 256 4 4 19 6 33 4 l25 -3 0 -148z
m12975 123 c0 -28 -3 -30 -35 -30 -35 0 -35 0 -35 -45 0 -45 0 -45 35 -45 32
0 35 -2 35 -30 0 -19 -5 -30 -12 -29 -7 1 -23 1 -35 0 -23 -1 -23 -2 -23 -151
l0 -150 -30 0 -29 0 -3 147 -3 147 -25 6 c-18 4 -25 13 -25 30 0 17 7 26 25
30 22 5 26 13 30 57 7 68 30 93 87 93 41 0 43 -1 43 -30z m-20940 -10 c69 -35
103 -89 64 -104 -28 -11 -43 -6 -49 14 -8 26 -55 50 -99 50 -45 0 -92 -39
-106 -88 -13 -50 -13 -156 2 -204 28 -94 148 -111 208 -30 19 26 25 29 41 19
26 -16 24 -33 -10 -76 -51 -65 -151 -78 -228 -31 -74 45 -111 176 -84 301 29
137 150 206 261 149z m6682 -4 c13 -9 35 -30 48 -48 l23 -31 -22 -18 c-22 -18
-23 -18 -55 16 -39 41 -75 51 -125 36 -58 -17 -82 -68 -83 -178 -2 -132 29
-183 114 -186 50 -1 97 21 104 49 7 26 32 32 52 12 19 -19 14 -34 -19 -68 -82
-81 -206 -75 -281 15 -34 41 -50 197 -28 276 15 54 50 101 95 127 33 19 50 22
96 19 31 -3 67 -12 81 -21z m7487 4 c35 -17 81 -69 81 -91 0 -3 -11 -11 -24
-17 -22 -10 -27 -7 -50 23 -48 62 -145 56 -186 -11 -26 -42 -37 -160 -21 -220
29 -106 152 -133 217 -49 25 34 28 35 45 19 25 -23 24 -37 -6 -73 -36 -42
-102 -65 -162 -56 -71 10 -108 37 -140 102 -23 49 -27 68 -26 143 1 64 6 99
21 131 47 104 153 146 251 99z m-479 4 c49 -10 107 -75 126 -142 23 -78 14
-176 -22 -242 -39 -72 -83 -90 -219 -90 l-105 0 0 240 0 240 94 0 c51 0 108
-3 126 -6z m938 -21 l-3 -28 -113 0 -112 0 0 -77 0 -78 106 0 105 0 -3 -27 -3
-28 -102 -3 -101 -3 -4 -67 c-2 -37 -2 -70 0 -74 2 -5 52 -8 113 -8 l109 0 0
-30 0 -30 -145 0 -145 0 0 240 0 240 151 0 150 0 -3 -27z m4854 22 c3 -3 3
-17 0 -30 -3 -20 -10 -25 -33 -25 l-29 0 0 -180 0 -180 29 0 c34 0 45 -12 36
-40 -6 -18 -15 -20 -101 -20 l-94 0 0 29 c0 26 4 30 33 33 31 3 32 4 31 48 -1
25 -2 107 -3 183 l-1 138 -27 -3 c-24 -3 -28 1 -31 25 l-3 27 94 0 c51 0 96
-2 99 -5z m548 -70 c5 -49 5 -50 38 -47 30 2 32 0 32 -28 0 -28 -3 -30 -35
-30 l-35 0 0 -120 0 -120 36 0 c33 0 35 -2 32 -27 -3 -25 -7 -28 -48 -31 -73
-5 -85 11 -86 110 -4 207 -1 188 -30 188 -22 0 -25 4 -22 27 2 20 10 29 28 33
22 5 25 12 28 54 3 45 5 47 30 44 25 -3 27 -8 32 -53z m-19280 -63 c35 -26 68
-78 76 -118 11 -62 8 -64 -126 -64 -132 0 -135 -2 -105 -60 29 -57 93 -67 145
-24 27 24 34 25 57 15 l27 -12 -36 -35 c-75 -76 -203 -63 -248 25 -11 22 -22
57 -26 79 -8 52 18 141 51 172 53 50 134 60 185 22z m373 -4 c36 -26 50 -51
35 -66 -18 -18 -38 -14 -56 9 -10 12 -34 23 -59 26 -35 5 -45 2 -66 -19 -41
-41 -47 -149 -11 -205 28 -44 125 -36 152 13 7 13 13 14 31 5 27 -15 27 -23
-5 -60 -50 -60 -147 -64 -209 -10 -55 49 -71 150 -37 238 35 91 145 124 225
69z m665 0 c36 -22 36 -22 22 -49 -13 -23 -33 -25 -50 -4 -7 8 -27 17 -46 21
-60 11 -110 -42 -70 -75 8 -6 40 -16 72 -21 77 -12 114 -49 114 -113 0 -53
-25 -81 -90 -98 -53 -13 -111 -1 -154 32 -31 25 -33 40 -5 57 18 12 24 11 44
-8 47 -44 145 -31 145 19 0 27 -20 40 -81 51 -91 17 -129 61 -115 131 15 78
128 108 214 57z m5612 10 c52 -27 90 -89 90 -150 l0 -38 -118 0 c-65 0 -121
-3 -125 -6 -8 -9 12 -60 32 -78 10 -9 33 -18 52 -20 35 -4 89 17 89 34 0 15
36 12 49 -4 17 -20 -20 -61 -75 -82 -40 -15 -53 -16 -93 -5 -83 22 -121 78
-121 178 1 80 32 139 90 170 54 29 74 29 130 1z m367 3 c49 -23 71 -55 52 -77
-17 -21 -39 -17 -61 11 -22 28 -60 33 -102 13 -31 -13 -46 -59 -46 -136 0 -46
4 -58 29 -83 46 -46 108 -38 139 17 7 12 14 13 35 5 27 -11 27 -11 12 -41 -20
-38 -96 -74 -140 -67 -56 10 -84 26 -110 66 -22 33 -27 51 -26 107 1 111 23
155 96 189 41 19 72 18 122 -4z m686 -13 c30 -22 34 -40 12 -58 -13 -10 -19
-10 -34 4 -11 10 -37 20 -59 23 -32 4 -44 1 -62 -17 -19 -19 -20 -24 -7 -43
10 -15 32 -26 68 -33 70 -14 95 -28 114 -64 31 -60 7 -117 -62 -145 -45 -19
-70 -19 -123 0 -65 23 -89 64 -50 85 16 9 24 7 42 -10 43 -40 129 -34 141 10
8 33 -23 57 -84 65 -73 10 -109 43 -109 101 0 26 7 51 19 65 39 49 136 57 194
17z m11349 0 c38 -26 43 -51 43 -203 l0 -130 -32 -3 -31 -3 -1 133 c-1 130 -1
134 -26 156 -15 12 -33 22 -42 22 -9 0 -32 -10 -50 -22 l-33 -23 0 -133 0
-133 -27 3 -28 3 0 175 0 175 26 3 c20 2 28 -2 32 -19 6 -22 6 -22 38 5 27 23
38 26 68 21 19 -4 48 -16 63 -27z m590 1 c34 -25 68 -95 68 -142 l0 -37 -120
0 c-120 0 -120 0 -120 -24 0 -32 35 -73 68 -81 33 -7 78 8 108 36 20 19 21 19
39 -1 18 -20 18 -21 -10 -50 -58 -61 -162 -62 -221 -4 -97 98 -54 297 69 322
52 10 84 5 119 -19z m814 -1 c19 -13 36 -30 40 -38 3 -8 9 -66 11 -127 4 -81
9 -113 18 -113 13 0 27 -45 17 -55 -3 -3 -20 -5 -39 -5 -27 0 -35 5 -44 27
l-10 27 -22 -26 c-31 -38 -93 -46 -145 -19 -45 23 -52 36 -52 92 0 28 7 47 28
70 25 28 35 32 107 38 l80 6 -3 30 c-5 39 -20 54 -63 61 -26 4 -43 0 -71 -19
-35 -25 -37 -25 -53 -7 -16 18 -16 20 11 45 53 49 129 55 190 13z m366 6 c15
-8 34 -24 43 -36 14 -21 14 -24 -2 -35 -25 -19 -39 -16 -67 12 -32 32 -76 33
-111 3 -35 -31 -47 -137 -21 -186 30 -59 116 -67 154 -15 16 22 22 24 40 14
29 -16 28 -23 -11 -64 -66 -70 -183 -56 -232 28 -45 76 -28 214 33 268 42 38
113 42 174 11z m343 -8 c38 -25 56 -59 62 -120 l6 -56 -122 0 -121 0 0 -28 c0
-69 96 -101 160 -53 34 25 60 22 60 -7 0 -42 -101 -92 -153 -76 -86 26 -121
66 -133 152 -12 95 37 193 105 208 14 3 31 7 36 8 18 5 75 -12 100 -28z
m-1313 -2 l3 -25 24 22 c35 33 80 34 92 2 13 -34 4 -43 -39 -43 -21 0 -48 -7
-60 -16 -21 -14 -22 -22 -22 -145 l0 -129 -30 0 -30 0 0 180 0 180 29 0 c24 0
30 -5 33 -26z m-18035 -705 c18 -6 42 -23 53 -39 18 -25 20 -44 20 -187 0
-176 -4 -188 -64 -217 -31 -15 -188 -16 -1801 -16 -1547 0 -1770 2 -1795 15
-56 29 -60 45 -60 218 0 93 4 167 11 178 5 11 25 29 42 40 31 19 66 19 1797
18 1165 0 1776 -4 1797 -10z m6685 -15 c52 -33 61 -71 57 -236 -4 -119 -7
-139 -24 -158 -48 -53 62 -50 -1849 -50 l-1775 0 -42 40 -41 39 4 162 4 161
37 34 37 34 1778 -1 1777 -1 37 -24z m6582 12 c61 -25 66 -42 66 -221 0 -132
-3 -165 -16 -184 -38 -54 56 -51 -1849 -51 -1547 0 -1770 2 -1795 15 -56 29
-60 44 -60 220 1 172 3 181 57 217 27 17 102 18 1796 18 1489 0 1773 -2 1801
-14z m6612 -5 c47 -31 54 -59 54 -220 l0 -151 -34 -38 -34 -37 -1797 0 -1797
0 -34 37 -34 38 0 151 c0 124 3 156 17 180 37 63 -97 59 1858 56 1517 -2 1783
-4 1801 -16z m954 -104 c34 -114 120 -234 216 -303 62 -44 154 -94 173 -94 5
0 21 -4 35 -10 37 -14 23 -34 -37 -53 -119 -38 -251 -141 -321 -252 -28 -44
-62 -120 -80 -178 -10 -31 -28 -14 -50 48 -58 160 -160 275 -309 349 -51 25
-100 46 -109 46 -9 0 -19 4 -22 8 -9 15 9 29 58 45 80 27 167 82 230 144 86
85 120 143 171 290 8 24 32 2 45 -40z"/>
<path d="M4954 13701 c-2 -2 -4 -107 -4 -233 l0 -228 73 0 c96 0 139 14 176
55 41 47 54 97 49 191 -4 93 -26 144 -78 185 -31 24 -45 28 -123 31 -49 2 -91
1 -93 -1z"/>
<path d="M14735 13700 c-5 -8 -7 -68 -6 -157 l1 -83 84 0 c76 0 88 3 115 26
56 47 61 133 10 184 -27 26 -36 29 -115 32 -47 2 -87 1 -89 -2z"/>
<path d="M17997 13703 c-4 -3 -7 -60 -7 -125 l0 -118 83 0 c76 0 85 2 116 28
30 24 35 35 38 83 7 100 -40 139 -168 139 -31 0 -59 -3 -62 -7z"/>
<path d="M11938 13520 l-87 -145 86 -3 c47 -2 87 -1 90 1 2 2 2 69 1 148 l-3
144 -87 -145z"/>
<path d="M5806 13365 c-75 -13 -106 -37 -106 -80 0 -59 112 -84 163 -37 26 24
49 94 40 118 -6 16 -5 16 -97 -1z"/>
<path d="M6230 13547 c-13 -7 -35 -28 -47 -46 -29 -42 -32 -144 -7 -197 30
-62 101 -81 162 -44 41 25 52 55 54 139 1 83 -19 125 -68 146 -44 18 -61 19
-94 2z"/>
<path d="M7075 13369 c-84 -14 -94 -18 -110 -50 -15 -28 -15 -33 0 -55 22 -34
57 -48 99 -40 58 11 88 44 94 104 5 58 9 57 -83 41z"/>
<path d="M11214 13541 c-39 -24 -64 -58 -64 -88 0 -23 2 -23 115 -23 109 0
115 1 115 20 0 37 -30 81 -65 96 -45 19 -64 18 -101 -5z"/>
<path d="M13577 13543 c-28 -18 -70 -90 -61 -105 3 -4 57 -8 121 -8 l116 0 -7
33 c-15 74 -108 119 -169 80z"/>
<path d="M14073 13546 c-43 -20 -63 -70 -63 -158 0 -72 8 -97 43 -135 23 -26
92 -32 129 -12 50 27 75 166 44 240 -28 67 -90 93 -153 65z"/>
<path d="M15503 13544 c-44 -22 -63 -68 -63 -151 1 -93 26 -148 74 -161 40
-11 104 0 118 20 40 60 47 97 34 188 -14 102 -81 144 -163 104z"/>
<path d="M15966 13530 c-33 -30 -60 -82 -49 -94 4 -3 57 -6 120 -6 126 0 128
1 97 66 -32 68 -111 84 -168 34z"/>
<path d="M17344 13546 c-38 -17 -74 -61 -74 -92 0 -24 1 -24 114 -24 63 0 117
3 119 8 8 11 -34 92 -52 101 -33 17 -77 20 -107 7z"/>
<path d="M18843 13544 c-60 -30 -93 -150 -62 -231 15 -39 57 -81 89 -88 39 -9
96 18 119 56 53 86 28 227 -45 263 -43 20 -60 20 -101 0z"/>
<path d="M19313 13539 c-81 -51 -85 -217 -7 -278 23 -18 38 -22 72 -18 75 8
112 63 112 164 0 63 -23 113 -60 133 -38 21 -83 20 -117 -1z"/>
<path d="M20130 13553 c-43 -17 -100 -97 -82 -115 5 -5 58 -7 118 -6 l109 3
-2 29 c-4 57 -90 111 -143 89z"/>
<path d="M21645 13551 c-68 -28 -107 -161 -71 -244 18 -44 48 -68 95 -77 83
-15 141 50 141 156 0 67 -27 136 -58 153 -29 15 -84 21 -107 12z"/>
<path d="M8154 10771 c-2 -2 -4 -19 -4 -38 l0 -33 373 -1 372 0 40 -49 c22
-27 43 -49 48 -49 4 -1 7 39 7 88 l0 89 -416 -1 c-229 -1 -418 -4 -420 -6z"/>
<path d="M9030 10661 l0 -81 75 0 c41 0 75 1 75 3 0 1 -34 38 -75 80 l-75 78
0 -80z"/>
<path d="M8040 10623 l0 -38 366 1 367 2 42 -39 c23 -22 45 -39 49 -39 3 0 6
34 6 75 l0 75 -415 0 -415 0 0 -37z"/>
<path d="M8902 10543 l3 -78 83 -3 83 -3 -81 81 c-45 44 -83 80 -86 80 -3 0
-4 -35 -2 -77z"/>
<path d="M7937 10544 c-4 -4 -7 -313 -7 -686 l0 -678 535 0 535 0 -2 563 -3
562 -104 1 c-124 1 -134 8 -130 94 1 30 1 76 1 101 l-2 46 -408 2 c-225 1
-411 -2 -415 -5z m553 -212 c0 -4 -42 -32 -92 -61 -51 -30 -132 -78 -179 -107
-90 -56 -105 -62 -111 -42 -5 14 62 57 212 135 58 31 114 62 125 69 21 15 45
18 45 6z m60 -29 c0 -5 -55 -42 -122 -83 -67 -41 -151 -94 -186 -118 -41 -28
-69 -41 -80 -37 -14 6 -12 10 13 31 25 20 172 111 198 123 4 1 40 23 80 47 69
42 97 53 97 37z m60 -30 c0 -5 -14 -17 -30 -28 -16 -11 -30 -25 -30 -32 0 -7
-7 -10 -15 -7 -18 7 -75 -32 -75 -53 0 -9 -6 -13 -14 -10 -14 6 -121 -67 -178
-120 -26 -25 -58 -28 -65 -6 -6 16 171 144 257 186 8 4 40 23 70 41 55 34 80
43 80 29z m64 -42 c5 -8 -12 -22 -65 -56 -24 -15 -100 -72 -134 -100 -16 -14
-62 -52 -101 -85 -40 -33 -76 -60 -81 -60 -4 0 -14 10 -22 22 -15 25 -10 30
109 115 36 25 70 51 75 57 6 6 28 20 50 31 22 11 45 24 50 28 63 50 107 68
119 48z m60 -37 c13 -5 12 -10 -6 -35 -12 -16 -27 -29 -34 -29 -7 0 -23 -12
-36 -28 -12 -15 -36 -37 -53 -50 -16 -13 -74 -66 -128 -119 l-98 -97 -30 31
-31 30 71 58 c40 32 76 66 82 76 5 11 18 19 29 19 11 0 27 11 36 25 9 14 22
25 28 25 6 0 26 14 44 30 18 17 36 30 40 30 4 0 18 9 32 20 28 22 31 23 54 14z
m79 -87 c-160 -176 -326 -352 -340 -360 -9 -5 -22 2 -38 20 -13 15 -25 31 -25
34 0 3 64 66 142 140 253 241 226 219 260 207 l29 -10 -28 -31z m-716 -495
c12 -9 25 -28 28 -42 8 -32 -27 -67 -70 -72 -26 -3 -30 -7 -28 -30 1 -19 -3
-28 -13 -28 -11 0 -14 19 -14 95 l0 95 38 0 c20 0 47 -8 59 -18z m820 -18 l28
-25 -21 -17 c-14 -12 -20 -27 -19 -47 3 -44 4 -45 20 -45 8 0 15 -4 15 -9 0
-13 -27 -21 -45 -15 -17 7 -30 48 -20 64 3 6 1 26 -5 45 -8 25 -8 40 0 55 13
25 13 25 47 -6z m-424 -16 l27 1 0 -84 c0 -47 0 -88 0 -92 0 -20 -25 -5 -28
16 -3 19 -8 22 -29 18 -19 -3 -33 2 -50 19 -28 28 -29 59 -3 102 16 26 25 32
38 26 9 -4 29 -7 45 -6z m324 -12 c6 -6 15 -23 18 -38 7 -28 6 -28 -40 -28
-39 0 -46 -3 -43 -17 2 -13 13 -18 35 -18 42 0 52 -12 19 -25 -38 -14 -44 -13
-71 15 -33 32 -33 78 0 111 26 26 55 26 82 0z m-567 -5 c5 -11 10 -42 10 -69
l0 -50 -40 -4 c-30 -3 -46 1 -60 15 -23 21 -23 22 -10 48 8 13 21 19 46 19 28
0 35 4 32 18 -2 11 -14 18 -36 20 -46 5 -40 22 8 22 29 0 42 -5 50 -19z m120
3 c0 -7 -9 -18 -19 -24 -15 -7 -21 -23 -23 -58 -5 -72 -23 -56 -26 24 l-3 70
36 1 c23 1 35 -3 35 -13z m224 -14 c-10 -48 3 -80 31 -80 24 0 25 3 25 55 0
43 3 55 15 55 13 0 15 -12 13 -71 l-3 -71 -43 -3 c-58 -5 -72 12 -72 86 0 52
2 59 20 59 16 0 19 -5 14 -30z"/>
<path d="M8470 9974 c0 -8 5 -12 10 -9 6 3 10 10 10 16 0 5 -4 9 -10 9 -5 0
-10 -7 -10 -16z"/>
<path d="M8697 10033 c-4 -3 -7 -11 -7 -17 0 -6 5 -5 12 2 6 6 9 14 7 17 -3 3
-9 2 -12 -2z"/>
<path d="M8030 9565 c0 -34 2 -36 28 -33 23 3 27 8 27 33 0 25 -4 30 -27 33
-26 3 -28 1 -28 -33z"/>
<path d="M8430 9535 c-11 -29 3 -75 23 -75 38 0 52 71 18 90 -27 14 -30 13
-41 -15z"/>
<path d="M8752 9548 c-20 -20 -14 -28 19 -28 24 0 30 4 27 17 -4 22 -29 28
-46 11z"/>
<path d="M8187 9503 c-4 -3 -7 -15 -7 -25 0 -23 38 -25 47 -2 8 21 -24 43 -40
27z"/>
<path d="M9060 10533 c0 -3 20 -25 45 -49 l45 -42 0 -517 0 -516 36 3 37 3 1
560 1 559 -83 3 c-45 1 -82 0 -82 -4z"/>
<path d="M8800 10427 l0 -87 80 0 c44 0 80 3 80 6 0 4 -36 43 -80 87 l-80 81
0 -87z"/>
<path d="M8993 10375 l47 -44 0 -521 0 -521 33 3 32 3 3 563 2 562 -82 0 -83
0 48 -45z"/>
<path d="M23330 9773 c-17 -6 -40 -32 -40 -45 0 -4 25 -8 55 -8 49 0 55 2 55
20 0 13 -10 24 -26 30 -14 6 -26 10 -27 9 -1 0 -9 -3 -17 -6z"/>
<path d="M23899 9761 c-18 -15 -23 -28 -23 -64 0 -25 6 -52 13 -61 19 -23 78
-21 91 3 14 27 13 106 -2 119 -27 21 -55 22 -79 3z"/>
<path d="M21983 8895 c-45 -32 -16 -111 38 -103 12 2 31 15 42 31 l21 27 -21
28 c-24 33 -50 38 -80 17z"/>
<path d="M17509 9068 c4 -148 13 -177 64 -208 27 -17 51 -20 160 -20 70 0 127
2 127 4 0 3 -351 356 -354 356 0 0 1 -60 3 -132z"/>
<path d="M23183 9333 c-10 -4 -13 -127 -13 -574 l0 -569 490 0 490 0 0 564 c0
439 -3 566 -12 574 -13 10 -927 14 -955 5z"/>
<path d="M22942 9132 l-123 -3 3 -142 3 -142 145 0 145 0 0 145 0 145 -25 0
c-14 0 -80 -1 -148 -3z"/>
<path d="M24207 9134 c-4 -4 -7 -70 -7 -146 0 -124 2 -138 18 -139 16 -1 224
-1 265 1 15 0 17 14 17 140 l0 140 -129 0 c-71 0 -136 2 -143 5 -8 3 -17 2
-21 -1z"/>
<path d="M22822 8663 l3 -138 148 -3 147 -3 0 141 0 140 -150 0 -151 0 3 -137z"/>
<path d="M24200 8660 l0 -140 150 0 151 0 -3 138 -3 137 -147 3 -148 3 0 -141z"/>
<path d="M22824 8471 c-2 -2 -4 -64 -4 -138 l0 -133 150 0 151 0 -3 136 -3
136 -143 2 c-79 0 -146 -1 -148 -3z"/>
<path d="M24205 8471 c-3 -2 -5 -64 -5 -138 l0 -133 150 0 151 0 -3 138 -3
137 -143 1 c-78 0 -145 -2 -147 -5z"/>
<path d="M22820 8010 l0 -140 150 0 151 0 -3 138 -3 137 -147 3 -148 3 0 -141z"/>
<path d="M23648 8142 l-478 -2 0 -460 0 -460 490 0 490 0 0 459 c0 359 -3 460
-12 462 -7 2 -228 3 -490 1z"/>
<path d="M24200 8010 l0 -140 150 0 151 0 -3 138 -3 137 -147 3 -148 3 0 -141z"/>
<path d="M22957 7822 l-138 -3 3 -137 3 -137 148 -1 148 -2 -3 141 c-2 84 -7
141 -13 141 -5 1 -72 0 -148 -2z"/>
<path d="M24203 7814 c-2 -5 -2 -68 -1 -140 l3 -129 145 0 145 0 0 138 0 139
-144 1 c-93 1 -145 -2 -148 -9z"/>
<path d="M22827 7493 c-4 -3 -7 -66 -7 -139 0 -96 3 -133 13 -136 10 -4 257
-3 280 1 4 0 7 64 7 141 l0 140 -143 0 c-79 0 -147 -3 -150 -7z"/>
<path d="M24204 7487 c-2 -7 -3 -71 -2 -143 l3 -129 135 2 c74 1 141 2 148 2
9 1 12 36 12 141 l0 140 -145 0 c-110 0 -147 -3 -151 -13z"/>
<path d="M22822 7033 l3 -138 138 -5 c75 -3 142 -3 147 -2 6 2 10 61 10 143
l0 139 -150 0 -151 0 3 -137z"/>
<path d="M23170 6606 c0 -439 3 -566 13 -573 15 -12 936 -12 955 0 9 6 12 132
12 573 l0 564 -490 0 -490 0 0 -564z"/>
<path d="M24207 7164 c-4 -4 -7 -67 -7 -141 l0 -133 150 0 151 0 -3 138 -3
137 -141 3 c-77 1 -143 -1 -147 -4z"/>
<path d="M22823 6834 c-2 -5 -2 -67 -1 -137 l3 -127 145 -2 145 -2 0 140 0
139 -144 0 c-91 0 -145 -4 -148 -11z"/>
<path d="M24209 6834 c-5 -7 -8 -69 -7 -139 l3 -128 148 -1 148 -1 -3 138 -3
138 -138 2 c-94 1 -142 -2 -148 -9z"/>
<path d="M22820 6386 c0 -125 2 -136 20 -146 12 -6 71 -9 147 -8 l128 3 0 140
0 140 -147 3 -148 3 0 -135z"/>
<path d="M24207 6513 c-4 -3 -7 -69 -7 -145 l0 -138 131 0 c72 0 139 5 150 10
17 10 19 22 19 145 l0 135 -143 0 c-79 0 -147 -3 -150 -7z"/>
<path d="M10935 8967 c-90 -44 -170 -117 -238 -220 -92 -139 -104 -173 -64
-181 100 -21 190 -45 291 -79 102 -34 122 -38 139 -27 57 35 331 110 404 110
23 0 44 4 47 8 6 10 -42 109 -71 148 -13 16 -43 57 -68 91 -49 66 -141 138
-213 166 -70 28 -146 22 -227 -16z"/>
<path d="M11519 8546 c-2 -3 -41 -9 -86 -16 -133 -18 -346 -76 -341 -92 2 -6
35 -25 74 -42 97 -43 302 -166 405 -242 91 -68 105 -75 94 -46 -3 9 -11 40
-16 67 -12 65 -55 224 -81 297 -19 53 -39 84 -49 74z"/>
<path d="M11588 8545 c-3 -4 0 -25 8 -47 22 -62 82 -295 94 -368 13 -70 25
-100 41 -100 16 0 158 -133 213 -200 48 -57 66 -71 66 -50 0 5 15 33 33 62 18
29 41 71 51 93 9 22 21 49 26 60 33 71 39 215 13 296 -34 106 -172 206 -325
235 -92 17 -211 28 -220 19z"/>
<path d="M11715 7953 c3 -32 6 -154 6 -271 l0 -213 37 32 c35 31 96 95 176
184 19 22 36 47 36 56 0 18 -209 243 -242 260 -19 10 -19 8 -13 -48z"/>
<path d="M12032 7616 c-14 -30 -251 -276 -267 -276 -6 0 -25 -15 -43 -33 -25
-26 -35 -49 -48 -112 -9 -44 -29 -127 -45 -184 -16 -58 -29 -111 -29 -119 0
-12 23 -14 148 -10 l149 4 86 41 c96 46 159 103 191 173 24 53 27 178 7 272
-13 60 -108 259 -127 265 -6 2 -16 -7 -22 -21z"/>
<path d="M11572 7194 c-35 -24 -70 -51 -79 -59 -8 -8 -20 -15 -27 -15 -7 0
-31 -12 -52 -26 -58 -40 -103 -64 -118 -64 -7 0 -19 -6 -25 -14 -7 -8 -26 -18
-42 -21 -37 -8 -38 -33 -1 -41 15 -3 50 -13 77 -21 70 -20 238 -53 246 -47 29
17 116 356 92 353 -4 0 -37 -20 -71 -45z"/>
<path d="M11370 7180 c0 -5 5 -10 10 -10 6 0 10 5 10 10 0 6 -4 10 -10 10 -5
0 -10 -4 -10 -10z"/>
<path d="M11348 7164 c-5 -5 -28 -11 -50 -13 -5 -1 -8 -8 -8 -17 0 -9 5 -12
12 -8 7 4 8 3 4 -4 -5 -9 -13 -9 -27 -2 -10 6 -19 7 -19 2 0 -5 -17 -17 -37
-25 l-38 -17 40 5 c48 6 59 7 105 3 30 -3 35 0 38 20 2 15 9 22 17 18 10 -3
12 0 8 12 -10 26 -33 39 -45 26z m2 -24 c0 -5 -4 -10 -10 -10 -5 0 -10 5 -10
10 0 6 5 10 10 10 6 0 10 -4 10 -10z"/>
<path d="M25515 8189 c-55 -6 -115 -23 -115 -32 0 -2 23 2 52 9 168 44 352
-10 483 -142 77 -77 87 -71 15 8 -101 112 -277 175 -435 157z"/>
<path d="M25255 8078 c-77 -64 -157 -169 -141 -185 3 -3 9 3 12 13 15 41 120
159 170 191 11 6 14 12 9 12 -6 1 -28 -14 -50 -31z"/>
<path d="M25484 7907 c-38 -15 -94 -55 -94 -68 0 -6 17 4 39 21 29 24 54 33
106 41 84 12 120 2 180 -47 25 -20 48 -34 51 -32 8 8 -57 59 -101 79 -46 21
-134 24 -181 6z"/>
<path d="M25362 7799 c-19 -30 -8 -34 12 -4 9 14 13 25 9 25 -5 0 -14 -9 -21
-21z"/>
<path d="M16320 7546 c0 -6 68 -137 121 -233 26 -47 29 -62 29 -143 l0 -91 52
3 52 3 -3 86 c-2 82 -1 89 34 155 20 38 54 98 75 134 21 36 39 71 39 78 1 8
-16 12 -54 12 l-55 0 -31 -66 c-16 -37 -33 -80 -36 -96 -3 -15 -9 -31 -13 -33
-9 -6 -7 -9 -54 105 l-34 85 -61 3 c-34 2 -61 1 -61 -2z"/>
<path d="M16820 7524 c-6 -14 -10 -29 -10 -33 0 -4 -14 -49 -30 -101 -17 -52
-40 -126 -51 -165 -12 -38 -27 -85 -35 -103 -8 -18 -14 -35 -14 -37 0 -3 26
-5 58 -5 l58 0 15 58 15 57 65 3 c76 3 86 -4 97 -69 l7 -44 64 -3 c58 -3 63
-1 56 15 -8 21 -92 276 -125 381 l-23 72 -69 0 c-64 0 -69 -2 -78 -26z m100
-140 c10 -38 22 -77 25 -86 6 -16 0 -18 -50 -18 -31 0 -55 3 -53 8 22 44 29
65 38 115 7 32 14 57 16 54 3 -2 13 -35 24 -73z"/>
<path d="M17189 7498 c0 -29 -2 -64 -4 -78 -1 -14 -5 -70 -9 -125 -4 -55 -9
-126 -12 -157 l-5 -58 50 0 c27 0 52 4 55 8 2 4 6 81 8 170 1 89 6 162 9 162
3 0 18 -48 33 -107 15 -60 35 -135 45 -168 l19 -60 42 -1 c23 0 43 4 45 10 1
6 21 72 43 146 22 74 44 149 48 165 7 26 9 21 15 -35 4 -36 7 -116 8 -177 l1
-113 56 0 55 0 -6 108 c-4 59 -10 163 -13 232 l-7 125 -70 3 -70 2 -37 -117
c-20 -65 -40 -135 -44 -156 -3 -20 -10 -39 -14 -42 -4 -3 -18 37 -30 87 -12
51 -32 122 -44 158 l-22 65 -72 3 -72 3 -1 -53z"/>
<path d="M17770 7315 l0 -235 150 0 150 0 0 45 0 44 -96 3 -96 3 2 188 1 187
-56 0 -55 0 0 -235z"/>
<path d="M18080 6735 c-147 -79 -326 -147 -455 -173 l-40 -8 -3 -139 c-4 -189
26 -364 83 -490 7 -16 20 -47 29 -68 20 -48 81 -143 120 -185 105 -114 184
-173 337 -248 3 -2 28 9 55 23 216 114 383 303 454 513 46 137 63 249 64 423
l1 169 -90 23 c-155 40 -359 123 -437 177 -35 24 -43 23 -118 -17z m403 -358
c7 -7 22 -26 34 -43 l22 -31 -93 -100 c-171 -184 -362 -373 -377 -373 -20 0
-259 243 -259 264 0 9 15 33 34 53 32 35 34 36 57 21 13 -8 56 -48 95 -87 l72
-71 188 190 c104 104 195 190 202 190 7 0 19 -6 25 -13z"/>
<path d="M8154 6526 c-3 -8 -4 -25 -2 -37 l3 -23 363 3 363 2 55 -47 c30 -25
56 -45 58 -43 2 2 1 39 -1 82 l-6 77 -414 0 c-349 0 -414 -2 -419 -14z"/>
<path d="M9030 6447 c0 -98 7 -107 85 -107 57 0 65 2 65 19 0 11 -15 28 -35
41 -19 12 -53 42 -75 68 l-40 47 0 -68z"/>
<path d="M8098 6422 l-58 -3 0 -35 0 -35 353 1 c193 0 358 1 365 0 7 0 35 -21
63 -47 l50 -47 -3 84 -3 84 -355 1 c-195 0 -381 -1 -412 -3z"/>
<path d="M8903 6379 c4 -13 7 -52 7 -86 l0 -63 80 0 c76 0 103 11 61 25 -11 3
-45 36 -76 73 -64 75 -81 87 -72 51z"/>
<path d="M7935 6298 c-3 -7 -4 -317 -3 -688 l3 -675 530 0 530 0 1 555 c0 305
-4 560 -8 566 -6 8 -38 10 -97 7 -81 -4 -92 -2 -110 16 -19 19 -21 33 -21 126
l0 105 -410 0 c-319 0 -412 -3 -415 -12z m565 -218 c0 -4 -9 -10 -19 -13 -21
-5 -174 -93 -276 -159 -33 -21 -68 -38 -77 -38 -26 0 -22 33 5 46 12 7 42 22
67 35 25 13 49 29 53 36 4 7 15 13 23 13 9 0 41 14 72 32 96 53 126 66 139 61
7 -3 13 -9 13 -13z m54 -31 c-3 -5 -9 -9 -13 -9 -5 0 -55 -29 -112 -65 -57
-36 -117 -73 -132 -83 -16 -9 -49 -32 -73 -50 -42 -32 -64 -35 -64 -8 0 6 29
29 64 49 36 21 66 41 68 45 2 4 29 21 61 37 33 17 61 36 64 43 3 6 13 12 23
12 9 0 28 8 41 19 13 10 31 20 39 23 20 7 41 -2 34 -13z m56 -26 c0 -7 -31
-29 -85 -60 -12 -7 -32 -23 -46 -35 -14 -13 -37 -29 -52 -35 -15 -7 -30 -20
-33 -28 -4 -8 -12 -15 -18 -15 -7 0 -41 -23 -76 -50 -60 -49 -63 -50 -82 -33
-22 20 -25 16 57 73 20 14 42 30 48 35 7 6 26 16 42 24 17 7 37 19 45 27 8 9
49 35 90 59 70 41 110 55 110 38z m60 -37 c0 -8 -8 -17 -19 -21 -10 -3 -31
-17 -46 -31 -27 -25 -60 -29 -60 -7 0 15 84 71 108 72 9 1 17 -5 17 -13z m79
-44 c4 -2 -35 -38 -85 -77 -14 -11 -82 -75 -151 -142 -70 -68 -129 -123 -133
-123 -4 0 -17 11 -30 25 l-23 25 61 57 c34 31 62 62 62 69 0 6 10 14 23 17 12
4 47 29 77 56 30 28 58 51 62 51 3 0 25 16 48 35 42 35 43 35 89 7z m74 -66
c-10 -11 -36 -38 -58 -61 -22 -22 -74 -78 -115 -124 -41 -47 -99 -110 -128
-140 l-53 -56 -29 35 -29 35 132 128 c73 70 141 136 152 147 11 10 38 32 59
48 34 25 44 28 63 19 22 -10 22 -11 6 -31z m-284 20 c10 -12 4 -19 -33 -41
-25 -14 -48 -35 -51 -46 -4 -10 -12 -19 -19 -19 -7 0 -35 -21 -62 -46 -68 -63
-76 -66 -96 -39 -17 22 -16 23 42 70 33 25 60 51 60 56 0 5 8 9 19 9 10 0 29
10 43 23 54 48 78 56 97 33z m-427 -533 c11 -9 18 -30 18 -50 0 -34 -15 -46
-83 -67 -13 -4 -17 -12 -12 -27 5 -16 3 -20 -10 -17 -9 1 -16 6 -16 11 1 4 1
43 1 87 l0 80 42 0 c24 0 49 -7 60 -17z m818 -45 c0 -5 -7 -8 -15 -8 -11 0
-15 -11 -15 -40 0 -27 5 -43 15 -46 25 -10 17 -26 -12 -22 -27 3 -28 6 -35 72
-4 43 -3 77 4 89 10 19 11 18 34 -9 13 -16 23 -32 24 -36z m-686 6 c18 -18 17
-14 20 -76 l1 -46 -43 -4 c-56 -4 -81 19 -64 57 9 19 19 25 43 25 38 0 35 24
-4 28 -15 2 -27 10 -27 18 0 19 54 18 74 -2z m136 5 c0 -3 -12 -19 -26 -34
-21 -23 -25 -35 -21 -62 5 -28 3 -33 -14 -33 -17 0 -19 7 -19 68 l0 67 40 0
c22 0 40 -2 40 -6z m140 -86 c0 -71 -3 -94 -12 -91 -7 3 -14 15 -16 27 -3 19
-9 22 -33 19 -34 -5 -54 13 -62 57 -5 29 6 64 25 76 5 3 29 6 53 6 l45 0 0
-94z m71 40 c-2 -36 2 -52 12 -56 28 -10 40 10 38 62 -1 40 2 51 14 51 12 0
15 -12 15 -54 0 -30 3 -62 7 -72 5 -14 2 -16 -21 -10 -14 3 -35 2 -46 -4 -30
-16 -50 12 -50 74 0 29 3 56 7 60 17 16 27 -4 24 -51z m223 35 c27 -38 21 -58
-16 -58 -41 0 -60 -11 -49 -29 6 -9 18 -11 40 -6 36 8 44 -11 9 -24 -68 -25
-120 68 -66 119 29 26 63 26 82 -2z"/>
<path d="M8364 5659 c-3 -6 -1 -16 4 -21 13 -13 45 8 36 23 -7 12 -31 11 -40
-2z"/>
<path d="M8465 5540 c3 -5 8 -10 11 -10 2 0 4 5 4 10 0 6 -5 10 -11 10 -5 0
-7 -4 -4 -10z"/>
<path d="M8039 5343 c0 -5 -2 -16 -4 -26 -5 -26 30 -41 49 -21 19 19 20 26 4
42 -13 13 -48 16 -49 5z"/>
<path d="M8187 5253 c-16 -15 -6 -33 18 -33 18 0 25 5 25 20 0 20 -28 28 -43
13z"/>
<path d="M8437 5304 c-11 -11 -8 -72 3 -79 6 -3 19 -3 31 0 29 9 24 79 -6 83
-12 2 -24 0 -28 -4z"/>
<path d="M8744 5299 c-11 -18 33 -39 49 -23 3 3 3 12 0 20 -6 17 -39 19 -49 3z"/>
<path d="M9131 6300 l-73 -5 46 -38 46 -39 2 -521 3 -522 35 0 35 0 2 556 c2
433 0 559 -10 565 -6 5 -45 7 -86 4z"/>
<path d="M8802 6189 l3 -84 64 2 c36 2 67 6 71 10 3 5 -27 41 -67 82 l-74 74
3 -84z"/>
<path d="M8988 6137 l52 -53 0 -511 c0 -349 3 -514 11 -518 5 -4 21 -4 35 -1
l24 6 0 565 0 565 -87 0 -87 0 52 -53z"/>
<path d="M4480 6390 c-18 -18 -20 -33 -20 -154 0 -105 3 -136 15 -146 11 -9
151 -12 563 -13 536 -2 550 -1 572 18 21 19 22 26 18 153 -3 118 -5 135 -22
148 -17 12 -110 14 -563 14 -530 0 -543 0 -563 -20z m205 -73 c28 -14 35 -27
35 -67 -1 -69 -71 -115 -130 -85 -39 20 -54 53 -46 100 12 63 74 86 141 52z
m849 -56 c4 -5 3 -16 0 -25 -5 -14 -28 -16 -154 -16 -150 0 -165 4 -152 38 5
14 297 18 306 3z"/>
<path d="M4594 6266 c-13 -33 0 -51 36 -51 38 0 52 24 30 50 -16 19 -59 19
-66 1z"/>
<path d="M4476 6004 c-23 -22 -23 -242 -1 -285 l16 -30 497 5 c273 2 527 7
563 11 64 6 67 8 73 37 3 17 6 79 6 138 0 91 -3 109 -18 123 -17 15 -71 17
-570 17 -487 0 -552 -2 -566 -16z m219 -84 c42 -39 33 -110 -16 -135 -53 -28
-102 -16 -127 32 -48 90 68 173 143 103z m839 -49 c4 -5 3 -16 0 -25 -5 -14
-28 -16 -148 -16 -143 0 -171 6 -159 36 4 11 37 14 153 14 82 0 151 -4 154 -9z"/>
<path d="M4607 5888 c-40 -22 -1 -77 43 -63 20 6 26 31 12 51 -11 17 -37 23
-55 12z"/>
<path d="M5490 5643 c-115 -46 -173 -100 -209 -193 -62 -164 20 -348 183 -409
167 -62 347 15 409 177 24 61 22 184 -4 241 -30 67 -81 123 -140 156 -46 25
-67 29 -139 32 -47 1 -92 0 -100 -4z m120 -273 l0 -140 28 0 c36 0 56 -14 49
-34 -5 -13 -24 -16 -106 -16 -55 0 -102 4 -105 9 -12 19 7 42 33 41 14 -1 31
-2 38 -1 8 1 12 37 12 118 l1 117 -32 -30 c-18 -16 -36 -33 -40 -39 -5 -6 -12
-4 -18 5 -15 23 -13 28 30 70 32 31 49 40 75 40 l35 0 0 -140z"/>
<path d="M4471 5622 c-12 -22 -16 -269 -6 -295 4 -9 17 -20 29 -22 11 -3 176
-4 366 -3 l344 3 1 50 c2 76 39 165 97 229 l50 56 -436 0 c-412 0 -436 -1
-445 -18z m223 -87 c39 -36 37 -94 -5 -129 -44 -37 -90 -35 -123 5 -15 17 -26
43 -26 59 0 16 11 42 26 59 34 40 88 43 128 6z"/>
<path d="M4599 5494 c-29 -35 27 -70 62 -38 18 16 18 18 3 36 -21 22 -47 23
-65 2z"/>
<path d="M21977 5652 c-52 -57 29 -126 83 -72 25 25 25 31 -1 64 -24 30 -59
34 -82 8z"/>
<path d="M23314 5645 c-14 -14 -23 -29 -20 -34 3 -5 28 -9 56 -10 42 0 50 2
50 18 0 20 -14 34 -43 44 -12 5 -27 -2 -43 -18z"/>
<path d="M23890 5645 c-6 -8 -14 -31 -17 -52 -6 -44 25 -93 58 -93 53 0 83
105 41 143 -23 21 -65 22 -82 2z"/>
<path d="M24570 3933 c-59 -106 -90 -163 -90 -169 0 -2 34 -4 75 -4 l76 0 -3
125 c-2 69 -5 125 -9 125 -3 0 -25 -35 -49 -77z"/>
<path d="M3792 3903 c-38 -33 -30 -102 14 -122 50 -22 104 12 104 66 0 63 -71
96 -118 56z"/>
<path d="M3750 3590 c-25 -47 8 -73 95 -74 63 -1 94 11 101 39 11 44 -9 55
-102 55 -74 0 -85 -2 -94 -20z"/>
<path d="M10463 3905 c-43 -30 -38 -88 12 -121 65 -43 141 60 85 116 -24 24
-67 26 -97 5z"/>
<path d="M10433 3605 c-28 -19 -29 -46 -5 -68 27 -25 153 -24 175 1 22 24 22
49 0 60 -10 5 -47 13 -83 16 -51 5 -70 3 -87 -9z"/>
<path d="M17049 3902 c-33 -27 -30 -78 6 -109 47 -41 115 -9 115 54 0 64 -70
96 -121 55z"/>
<path d="M17012 3598 c-17 -17 -15 -42 6 -61 23 -21 148 -23 175 -3 20 15 22
47 5 64 -16 16 -170 16 -186 0z"/>
<path d="M23640 3900 c-25 -25 -26 -71 -2 -101 23 -28 90 -29 109 -2 19 26 16
87 -5 106 -25 23 -78 21 -102 -3z"/>
<path d="M23638 3612 c-31 -4 -48 -43 -31 -71 21 -32 147 -35 179 -4 17 18 18
47 2 61 -14 11 -104 19 -150 14z"/>
<path d="M3473 3763 c-40 -3 -56 -9 -68 -26 -20 -29 -19 -43 5 -67 49 -49 145
-5 138 62 -3 35 -3 35 -75 31z"/>
<path d="M4153 3905 c-17 -12 -53 -67 -53 -82 0 -1 43 -3 95 -3 52 0 95 2 95
3 0 11 -32 66 -44 76 -24 20 -70 23 -93 6z"/>
<path d="M10142 3760 c-63 -5 -82 -17 -82 -52 0 -24 39 -58 66 -58 45 0 74 22
85 63 6 22 7 42 2 46 -4 4 -36 4 -71 1z"/>
<path d="M10805 3887 c-58 -58 -50 -67 60 -67 52 0 95 2 95 3 0 11 -32 66 -44
76 -7 6 -27 14 -44 17 -27 5 -37 1 -67 -29z"/>
<path d="M16725 3762 c-62 -9 -65 -11 -65 -49 0 -93 124 -82 144 13 7 30 5 32
-26 36 -18 2 -42 2 -53 0z"/>
<path d="M17417 3908 c-25 -9 -65 -73 -53 -85 7 -7 186 -8 186 -1 0 27 -37 79
-63 88 -35 12 -33 12 -70 -2z"/>
<path d="M23301 3760 c-39 -9 -51 -24 -51 -62 0 -32 24 -48 70 -48 43 0 80 39
80 85 0 33 -2 35 -32 34 -18 -1 -48 -5 -67 -9z"/>
<path d="M23995 3898 c-15 -14 -27 -35 -28 -53 l-2 -30 85 4 c47 1 86 4 88 6
2 2 -6 21 -17 43 -29 56 -81 68 -126 30z"/>
<path d="M3926 3099 c-24 -19 -26 -26 -26 -104 0 -103 15 -127 79 -129 35 -1
47 4 67 27 20 23 24 39 24 92 0 79 -14 111 -53 125 -43 15 -61 13 -91 -11z"/>
<path d="M9343 3221 c-18 -11 -39 -37 -48 -57 -18 -43 -20 -177 -4 -220 16
-45 61 -74 116 -77 60 -2 97 19 118 69 33 79 9 248 -41 280 -39 26 -104 28
-141 5z"/>
<path d="M14978 3073 c-1 -90 -2 -171 -2 -180 -1 -15 9 -18 61 -21 78 -4 116
14 143 68 38 75 22 211 -31 261 -25 23 -39 28 -99 31 l-70 3 -2 -162z"/>
<path d="M21891 3123 c-18 -54 -35 -104 -38 -111 -4 -9 13 -12 71 -11 77 1 83
5 67 37 -12 21 -51 153 -51 170 0 35 -19 1 -49 -85z"/>
<path d="M24350 3054 l0 -184 60 0 c123 0 163 46 162 187 -1 134 -30 164 -164
176 l-58 6 0 -185z"/>
<path d="M11025 3105 c-14 -13 -25 -36 -25 -50 0 -33 42 -75 75 -75 14 0 37
11 52 26 20 20 24 31 19 57 -12 64 -77 87 -121 42z"/>
<path d="M10996 2804 c-19 -18 -21 -45 -4 -62 7 -7 42 -12 88 -12 62 0 80 4
93 18 20 22 22 43 5 60 -19 19 -163 16 -182 -4z"/>
<path d="M3541 3094 c-19 -16 -31 -35 -31 -50 0 -24 2 -24 90 -24 97 0 102 3
79 53 -23 51 -91 61 -138 21z"/>
<path d="M4293 3096 c-26 -23 -28 -29 -28 -104 0 -92 14 -117 72 -128 68 -13
113 37 113 126 0 112 -84 168 -157 106z"/>
<path d="M4682 3110 c-47 -19 -69 -139 -37 -201 29 -56 115 -63 155 -12 25 32
28 129 4 178 -20 43 -68 56 -122 35z"/>
<path d="M11937 3109 c-21 -12 -50 -66 -42 -79 7 -11 168 -14 178 -4 10 10
-14 64 -36 79 -25 17 -74 19 -100 4z"/>
<path d="M15408 2959 c-25 -14 -24 -75 1 -89 57 -30 131 7 131 66 l0 34 -57 0
c-32 0 -66 -5 -75 -11z"/>
<path d="M15993 2958 c-32 -42 -18 -84 30 -93 57 -11 106 25 107 78 0 27 -1
27 -64 27 -39 0 -67 -5 -73 -12z"/>
<path d="M16936 3095 c-24 -22 -26 -31 -26 -99 0 -65 3 -79 24 -103 31 -36 95
-39 128 -5 30 29 38 134 14 180 -30 57 -94 70 -140 27z"/>
<path d="M18138 2959 c-19 -11 -24 -54 -9 -77 4 -8 26 -16 48 -19 32 -4 44 -1
66 18 25 24 31 36 28 72 -1 14 -11 17 -58 17 -32 0 -66 -5 -75 -11z"/>
<path d="M22739 3089 c-25 -27 -29 -39 -29 -93 0 -108 53 -156 134 -122 46 19
59 52 54 135 -4 55 -8 67 -32 87 -40 35 -90 32 -127 -7z"/>
<path d="M24840 2972 c-72 -5 -105 -56 -62 -95 42 -38 123 -6 138 55 7 33 -14
44 -76 40z"/>
<path d="M25368 2959 c-24 -13 -23 -61 0 -82 46 -42 132 -1 132 63 0 30 0 30
-57 30 -32 0 -66 -5 -75 -11z"/>
<path d="M2963 3110 c-29 -12 -42 -39 -48 -102 -5 -54 7 -109 29 -127 6 -5 31
-13 54 -17 38 -6 44 -4 72 26 27 29 30 38 30 102 0 64 -3 72 -29 99 -30 30
-65 36 -108 19z"/>
<path d="M16570 2289 c0 -92 -3 -174 -6 -183 -5 -14 5 -16 71 -16 74 0 78 1
110 33 29 29 33 41 39 102 4 44 2 90 -7 125 -11 48 -17 57 -52 76 -22 12 -65
24 -97 26 l-58 5 0 -168z"/>
<path d="M3646 2318 c-14 -13 -28 -35 -32 -50 l-6 -28 91 0 c83 0 91 2 91 19
0 11 -12 33 -26 50 -32 39 -81 42 -118 9z"/>
<path d="M10317 2329 c-16 -9 -47 -65 -47 -84 0 -3 41 -5 90 -5 90 0 90 0 90
25 0 57 -80 95 -133 64z"/>
<path d="M23297 2333 c-18 -5 -47 -52 -47 -78 0 -12 15 -15 90 -15 l90 0 -6
28 c-12 55 -64 81 -127 65z"/>
<path d="M24092 2170 c-29 -27 -25 -60 9 -79 37 -20 107 -1 114 32 13 63 14
62 -45 65 -45 2 -60 -1 -78 -18z"/>
<path d="M24818 2329 c-17 -7 -32 -24 -41 -47 l-15 -37 90 -3 c50 -1 93 -1 96
2 9 9 -20 66 -42 81 -23 17 -49 18 -88 4z"/>
<path d="M2002 1606 c-18 -23 -20 -40 -18 -169 1 -118 4 -148 19 -170 l17 -27
1457 0 c801 0 1454 2 1452 4 -3 3 -464 13 -926 19 -112 1 -118 3 -113 37 1 10
-3 9 -13 -5 -9 -11 -13 -23 -11 -26 2 -4 -22 -5 -53 -3 -32 2 -59 8 -61 14 -3
8 -8 8 -17 0 -11 -9 -12 -7 -8 8 4 18 28 23 50 9 17 -10 28 13 13 26 -10 9
-11 9 -6 0 12 -22 -12 -14 -28 9 -18 25 -13 38 15 38 13 0 18 -4 13 -12 -5 -7
-3 -8 5 -3 9 5 9 11 3 17 -6 6 -8 17 -5 24 3 8 0 14 -6 14 -6 0 -11 -8 -12
-17 0 -14 -3 -13 -11 5 -6 12 -21 25 -33 28 -20 5 -32 34 -13 34 19 0 6 21
-18 31 -33 12 -25 22 20 23 22 1 32 -2 26 -9 -15 -14 -12 -25 5 -19 8 4 12 10
9 15 -3 5 1 9 8 9 10 0 9 3 -2 9 -8 6 -19 7 -25 3 -5 -3 -4 2 4 11 10 13 10
17 1 17 -7 0 -10 7 -6 18 5 15 5 15 -8 -1 -14 -18 -14 -18 -21 2 -5 17 -10 19
-25 11 -13 -7 -21 -7 -25 0 -3 5 -5 10 -3 11 7 2 111 6 262 10 88 1 173 5 190
8 61 11 -225 16 -1145 19 l-937 3 -20 -25z m1618 -21 c7 -9 8 -15 2 -15 -5 0
-12 7 -16 15 -3 8 -4 15 -2 15 2 0 9 -7 16 -15z m80 -29 c0 -2 -8 -10 -17 -17
-16 -13 -17 -12 -4 4 13 16 21 21 21 13z m-70 -56 c0 -5 -5 -10 -11 -10 -5 0
-7 5 -4 10 3 6 8 10 11 10 2 0 4 -4 4 -10z m-11 -44 c-3 -3 -11 5 -18 17 -13
21 -12 21 5 5 10 -10 16 -20 13 -22z m54 7 c-6 -15 -19 -17 -27 -4 -7 11 0 18
18 18 8 0 12 -6 9 -14z m-39 -32 c3 -5 -1 -11 -9 -14 -9 -4 -12 -1 -8 9 6 16
10 17 17 5z m56 1 c0 -4 -4 -12 -9 -17 -5 -6 -11 -18 -13 -28 -3 -16 -4 -15
-16 4 -9 14 -10 19 -2 14 9 -5 10 -1 5 14 -5 17 -2 21 14 21 12 0 21 -4 21 -8z
m-135 -42 c4 -6 11 -7 17 -4 6 4 8 2 5 -4 -8 -12 -47 -4 -47 9 0 12 17 11 25
-1z m55 0 c0 -5 -2 -10 -4 -10 -3 0 -8 5 -11 10 -3 6 -1 10 4 10 6 0 11 -4 11
-10z m102 -8 c-10 -3 -10 -7 0 -19 7 -8 13 -21 14 -27 2 -18 -42 -8 -58 12
-11 13 -11 14 2 7 17 -11 40 -15 40 -8 0 2 -7 12 -16 20 -12 13 -13 18 -3 24
7 4 18 5 23 2 6 -4 5 -8 -2 -11z m38 2 c0 -8 -5 -12 -10 -9 -6 4 -8 11 -5 16
9 14 15 11 15 -7z m-102 -21 c-2 -21 -9 -29 -27 -31 -16 -3 -21 0 -16 8 4 7 1
16 -6 21 -9 6 -10 9 -2 9 6 0 15 -5 18 -10 9 -15 25 -2 18 15 -3 8 0 15 7 15
6 0 10 -11 8 -27z m-98 -23 c0 -5 -4 -10 -10 -10 -5 0 -10 5 -10 10 0 6 5 10
10 10 6 0 10 -4 10 -10z m-7 -45 c-3 -9 -8 -14 -10 -11 -3 3 -2 9 2 15 9 16
15 13 8 -4z m64 -2 c0 -8 -4 -10 -12 -3 -7 5 -16 6 -20 2 -5 -4 -5 -2 -2 4 9
15 34 13 34 -3z m72 3 c9 -11 5 -13 -19 -12 -31 1 -39 11 -17 19 20 9 24 8 36
-7z"/>
<path d="M4153 1613 c9 -2 23 -2 30 0 6 3 -1 5 -18 5 -16 0 -22 -2 -12 -5z"/>
<path d="M3775 1540 c-3 -5 -1 -10 4 -10 6 0 11 5 11 10 0 6 -2 10 -4 10 -3 0
-8 -4 -11 -10z"/>
<path d="M3871 1541 c-7 -5 -12 -14 -10 -20 2 -6 10 -2 17 9 14 22 13 23 -7
11z"/>
<path d="M3887 1484 c3 -8 -1 -22 -8 -32 -7 -9 -9 -14 -5 -10 5 4 15 3 23 -4
11 -9 13 -5 11 20 -1 17 -8 34 -15 36 -7 3 -10 -1 -6 -10z"/>
<path d="M3836 1474 c-8 -21 -8 -24 3 -24 5 0 11 9 14 20 6 24 -8 27 -17 4z"/>
<path d="M3733 1454 c-12 -12 -7 -24 8 -24 5 0 13 8 18 18 12 22 -8 26 -26 6z"/>
<path d="M3816 1417 c3 -10 9 -15 12 -12 3 3 0 11 -7 18 -10 9 -11 8 -5 -6z"/>
<path d="M3878 1406 c3 -11 7 -15 10 -8 2 7 8 10 13 6 5 -3 9 -1 9 4 0 5 -8
12 -19 15 -15 3 -17 0 -13 -17z"/>
<path d="M3813 1315 c0 -8 4 -15 9 -15 4 0 8 4 8 9 0 6 -4 12 -8 15 -5 3 -9
-1 -9 -9z"/>
<path d="M3857 1303 c-4 -3 -7 -11 -7 -17 0 -6 5 -5 12 2 6 6 9 14 7 17 -3 3
-9 2 -12 -2z"/>
<path d="M8675 1616 c-18 -13 -20 -29 -23 -168 -3 -144 -2 -155 18 -181 l21
-27 1451 0 c798 0 1449 2 1447 4 -3 3 -881 19 -1066 20 -29 0 -53 4 -53 8 0 5
5 6 10 3 6 -3 10 -1 10 4 0 6 -7 11 -15 11 -8 0 -15 -6 -15 -13 0 -8 -6 -14
-14 -14 -10 0 -14 13 -13 45 0 25 -5 47 -12 52 -8 4 -10 16 -7 28 4 13 1 22
-9 26 -8 3 -15 11 -15 18 0 9 3 8 10 -2 5 -8 10 -10 10 -5 0 6 5 2 11 -8 5 -9
7 -23 3 -30 -6 -9 -4 -9 6 0 17 15 22 43 9 43 -6 0 -7 5 -4 10 3 6 1 10 -5 10
-6 0 -5 11 5 30 9 17 11 30 5 30 -5 0 -10 5 -10 11 0 5 4 8 8 5 4 -2 13 4 20
14 17 27 -3 35 -28 10 -21 -21 -26 -40 -10 -40 13 0 13 -27 -1 -36 -6 -3 -15
-2 -21 4 -8 8 -5 23 9 51 11 23 17 41 12 41 -5 0 -9 6 -9 13 0 9 16 14 53 14
134 3 278 11 283 16 3 3 -22 4 -55 3 -34 -1 -61 1 -61 4 0 8 -63 6 -77 -3 -6
-4 -14 -3 -18 2 -3 6 -346 10 -923 11 -784 0 -920 -2 -937 -14z m1710 -36 c-3
-5 -12 -7 -20 -3 -21 7 -19 13 6 13 11 0 18 -4 14 -10z m-25 -172 c0 -6 -6 -5
-15 2 -8 7 -15 14 -15 16 0 2 7 1 15 -2 8 -4 15 -11 15 -16z m55 -68 c3 -5 2
-10 -4 -10 -5 0 -13 5 -16 10 -3 6 -2 10 4 10 5 0 13 -4 16 -10z m-12 -31 c14
14 27 14 27 1 0 -5 -7 -10 -16 -10 -8 0 -13 -4 -9 -9 3 -5 0 -13 -6 -17 -8 -4
-9 -3 -5 4 4 7 3 12 -2 12 -6 0 -12 -7 -16 -15 -3 -8 -11 -15 -18 -15 -10 0
-10 2 0 9 9 5 11 17 6 37 -7 28 -7 28 11 11 12 -13 21 -15 28 -8z m-73 -29 c0
-5 -5 -10 -11 -10 -5 0 -7 5 -4 10 3 6 8 10 11 10 2 0 4 -4 4 -10z"/>
<path d="M10490 1540 c0 -5 5 -10 10 -10 6 0 10 5 10 10 0 6 -4 10 -10 10 -5
0 -10 -4 -10 -10z"/>
<path d="M10540 1459 c0 -5 5 -7 10 -4 6 3 10 8 10 11 0 2 -4 4 -10 4 -5 0
-10 -5 -10 -11z"/>
<path d="M10465 1341 c-3 -5 0 -13 6 -17 7 -4 9 -3 5 4 -3 5 0 13 6 15 9 4 10
6 1 6 -6 1 -14 -3 -18 -8z"/>
<path d="M11613 1243 c9 -2 23 -2 30 0 6 3 -1 5 -18 5 -16 0 -22 -2 -12 -5z"/>
<path d="M15265 1611 c-15 -18 -17 -40 -17 -176 0 -135 2 -159 18 -176 17 -19
44 -19 1392 -19 757 0 1373 3 1370 6 -4 3 -192 8 -418 10 -228 3 -424 10 -438
15 -14 5 -28 6 -31 2 -3 -4 -27 -8 -54 -8 -37 -1 -48 3 -53 18 -8 25 0 31 24
16 17 -10 23 -10 36 0 9 8 16 21 16 30 -1 13 -3 12 -13 -4 -18 -30 -35 -28
-30 3 4 21 2 24 -6 12 -9 -13 -11 -12 -11 3 0 10 -5 15 -11 12 -6 -4 -8 -13
-5 -21 3 -8 0 -11 -9 -8 -22 9 -24 41 -5 59 18 16 17 51 0 40 -4 -3 -7 6 -6
19 0 13 3 23 6 21 3 -2 11 3 18 11 7 8 9 14 5 14 -5 0 -13 8 -19 18 -10 15 -8
18 8 19 22 2 40 -12 51 -40 6 -15 10 -16 28 -7 11 7 24 9 27 5 8 -8 -19 -25
-30 -19 -4 3 -8 0 -8 -6 0 -8 -6 -8 -21 0 -23 13 -49 7 -49 -11 0 -7 3 -10 6
-6 4 3 13 -1 22 -9 9 -9 11 -19 6 -22 -12 -9 -12 -28 0 -39 5 -4 6 -3 2 4 -3
6 -2 14 4 18 5 3 10 1 10 -4 0 -6 4 -11 10 -11 5 0 7 13 4 29 -5 23 -2 29 15
34 12 3 21 1 21 -4 0 -5 5 -9 10 -9 6 0 10 9 10 21 0 13 4 18 13 13 9 -6 9 -4
-1 8 -9 11 -10 23 -2 42 14 37 13 53 -5 53 -19 0 -29 -28 -13 -38 7 -4 9 -11
5 -15 -3 -4 -14 -1 -23 7 -16 13 -17 12 -12 -8 4 -16 2 -23 -8 -23 -19 0 -18
19 3 42 15 17 15 18 -1 18 -9 0 -15 4 -12 9 8 12 -46 11 -62 -2 -20 -16 -26 0
-7 20 14 13 37 18 99 20 113 3 161 8 159 16 -2 4 -3 9 -3 12 0 3 -9 1 -19 -5
-13 -6 -22 -7 -26 0 -4 6 -363 9 -979 10 -957 0 -973 0 -991 -19z m1705 -31
c0 -5 -5 -10 -11 -10 -5 0 -7 5 -4 10 3 6 8 10 11 10 2 0 4 -4 4 -10z m96 -29
c-3 -5 1 -12 10 -15 9 -4 14 -9 11 -13 -8 -7 -37 15 -37 28 0 5 5 9 11 9 5 0
8 -4 5 -9z m-69 -67 c2 -13 1 -15 -4 -4 -3 8 -11 19 -17 23 -7 6 -6 7 4 4 8
-2 16 -12 17 -23z m-51 -71 c-10 -10 -19 5 -10 18 6 11 8 11 12 0 2 -7 1 -15
-2 -18z m28 -59 c9 -24 7 -31 -5 -11 -6 9 -15 14 -21 11 -7 -4 -8 -2 -4 4 10
17 23 15 30 -4z m-17 -74 c3 -10 2 -11 -4 -4 -4 6 -15 14 -23 17 -11 5 -9 6 4
4 11 -1 21 -9 23 -17z"/>
<path d="M17324 1611 c3 -5 15 -7 26 -4 28 7 25 13 -6 13 -14 0 -23 -4 -20 -9z"/>
<path d="M17388 1613 c7 -3 16 -2 19 1 4 3 -2 6 -13 5 -11 0 -14 -3 -6 -6z"/>
<path d="M17433 1613 c9 -2 23 -2 30 0 6 3 -1 5 -18 5 -16 0 -22 -2 -12 -5z"/>
<path d="M17170 1499 c0 -5 5 -7 10 -4 6 3 10 8 10 11 0 2 -4 4 -10 4 -5 0
-10 -5 -10 -11z"/>
<path d="M17194 1456 c-10 -8 -17 -16 -14 -19 3 -2 14 4 24 14 23 22 18 25
-10 5z"/>
<path d="M17110 1410 c0 -5 5 -10 11 -10 5 0 7 5 4 10 -3 6 -8 10 -11 10 -2 0
-4 -4 -4 -10z"/>
<path d="M17148 1363 c7 -3 16 -2 19 1 4 3 -2 6 -13 5 -11 0 -14 -3 -6 -6z"/>
<path d="M17142 1315 c-7 -8 -9 -15 -4 -15 5 0 15 7 22 15 16 19 -1 19 -18 0z"/>
<path d="M18048 1243 c6 -2 18 -2 25 0 6 3 1 5 -13 5 -14 0 -19 -2 -12 -5z"/>
<path d="M21857 1612 c-24 -26 -25 -315 -1 -350 l15 -22 1416 0 c779 0 1414 2
1412 4 -4 3 -715 18 -836 18 -29 -1 -55 4 -58 9 -4 5 -14 5 -26 -1 -13 -7 -25
-7 -38 0 -23 12 -34 13 -27 2 2 -4 -4 -8 -14 -8 -10 0 -16 4 -13 9 3 5 -3 6
-14 3 -12 -4 -25 -1 -32 7 -6 9 -22 12 -37 9 -24 -4 -25 -3 -13 16 7 11 18 18
25 15 16 -6 23 25 13 54 -9 23 5 43 14 21 3 -8 6 -6 6 5 1 24 -9 21 -43 -10
-19 -17 -31 -23 -34 -15 -6 20 -31 14 -59 -15 -17 -18 -24 -22 -20 -10 4 9 2
17 -3 17 -6 0 -10 7 -10 15 0 13 4 14 20 5 11 -6 20 -7 20 -2 0 13 49 21 53 9
2 -7 10 -6 23 1 10 6 13 12 7 12 -7 0 -13 4 -13 10 0 5 7 7 15 4 8 -4 15 -1
15 5 0 6 7 8 17 4 12 -5 14 -3 8 8 -7 11 -6 12 7 2 8 -7 18 -10 22 -6 3 4 5
-4 4 -17 -2 -19 2 -25 17 -25 13 0 20 -7 20 -19 0 -11 6 -21 14 -24 10 -3 12
0 7 14 -13 32 -12 39 6 38 10 -1 14 4 11 13 -5 12 -8 11 -23 -2 -19 -17 -21
-16 -47 33 -7 12 -8 20 -3 17 6 -4 10 -1 10 4 0 15 -5 14 -43 -5 -21 -12 -32
-13 -35 -5 -5 15 -32 14 -32 -1 0 -10 -3 -9 -9 1 -7 11 -9 11 -14 0 -3 -8 -5
-5 -4 7 1 15 7 20 24 18 16 -2 27 6 38 28 21 43 20 70 -1 39 -15 -21 -18 -21
-26 -7 -6 11 -17 14 -32 10 -13 -3 -27 -1 -30 4 -4 6 2 8 14 5 15 -4 20 0 20
13 0 15 -2 16 -9 5 -6 -9 -14 -10 -27 -3 -11 5 -26 7 -34 5 -11 -3 -10 -1 2 7
18 11 160 16 177 5 6 -3 11 -2 11 4 0 5 13 7 30 5 16 -3 38 0 47 6 15 10 14
11 -10 7 -15 -2 -29 -1 -32 3 -2 4 -417 8 -922 9 -891 2 -919 2 -936 -17z
m1665 -123 c5 -3 1 -8 -10 -11 -16 -4 -18 -1 -14 21 4 17 7 21 10 11 3 -8 9
-18 14 -21z m63 11 c-3 -5 -12 -7 -20 -3 -21 7 -19 13 6 13 11 0 18 -4 14 -10z
m-40 -78 c-3 -3 -11 0 -18 7 -9 10 -8 11 6 5 10 -3 15 -9 12 -12z m70 -72 c3
-5 -1 -10 -10 -10 -9 0 -13 5 -10 10 3 6 8 10 10 10 2 0 7 -4 10 -10z m-55
-31 c0 -10 -5 -19 -11 -19 -6 0 -8 9 -4 21 5 16 4 19 -5 14 -9 -5 -11 -4 -6 4
10 16 26 4 26 -20z m10 -39 c0 -5 -5 -10 -11 -10 -5 0 -7 5 -4 10 3 6 8 10 11
10 2 0 4 -4 4 -10z"/>
<path d="M23806 1614 c-3 -8 3 -12 15 -11 10 1 19 6 19 12 0 16 -28 15 -34 -1z"/>
<path d="M23898 1613 c7 -3 16 -2 19 1 4 3 -2 6 -13 5 -11 0 -14 -3 -6 -6z"/>
<path d="M23978 1613 c7 -3 16 -2 19 1 4 3 -2 6 -13 5 -11 0 -14 -3 -6 -6z"/>
<path d="M23570 1580 c0 -5 7 -10 16 -10 8 0 12 5 9 10 -3 6 -10 10 -16 10 -5
0 -9 -4 -9 -10z"/>
<path d="M23624 1500 c0 -11 5 -20 11 -20 6 0 11 9 11 20 0 11 -5 20 -11 20
-6 0 -11 -9 -11 -20z"/>
<path d="M23706 1511 c-3 -5 0 -14 8 -20 10 -8 16 -8 25 3 9 11 8 15 -5 20
-20 8 -22 8 -28 -3z"/>
<path d="M23780 1460 c0 -6 4 -9 9 -5 5 3 12 -2 14 -10 4 -12 5 -12 3 1 -1 19
-26 32 -26 14z"/>
<path d="M23707 1443 c3 -7 9 -10 14 -7 14 8 11 21 -5 21 -8 0 -12 -6 -9 -14z"/>
<path d="M23770 1415 c0 -8 7 -15 16 -15 14 0 14 3 4 15 -7 8 -14 15 -16 15
-2 0 -4 -7 -4 -15z"/>
<path d="M23668 1363 c7 -3 16 -2 19 1 4 3 -2 6 -13 5 -11 0 -14 -3 -6 -6z"/>
<path d="M23635 1322 c-3 -8 0 -20 6 -26 9 -8 10 -7 4 4 -7 13 -6 13 7 2 13
-10 16 -9 21 7 6 24 -29 37 -38 13z"/>
<path d="M23736 1325 c-3 -8 -1 -15 5 -15 6 0 7 -4 4 -10 -3 -5 -2 -10 3 -10
16 0 20 24 7 37 -10 9 -14 9 -19 -2z"/>
<path d="M24738 1243 c7 -3 16 -2 19 1 4 3 -2 6 -13 5 -11 0 -14 -3 -6 -6z"/>
<path d="M24778 1243 c7 -3 16 -2 19 1 4 3 -2 6 -13 5 -11 0 -14 -3 -6 -6z"/>
</g>
</svg>
