<svg xmlns="http://www.w3.org/2000/svg" width="1200" height="900" viewBox="0 0 1200 900" fill="none">
  <rect width="1200" height="900" rx="40" fill="#F2F6F8"/>
  <rect x="70" y="84" width="220" height="92" rx="24" fill="#D7F0FF" stroke="#8BC6E8"/><text x="128" y="138" fill="#0F2C3A" font-size="34" font-family="IBM Plex Sans, sans-serif">WebSocket</text>
  <rect x="70" y="206" width="220" height="92" rx="24" fill="#DDF7E8" stroke="#8ED3A8"/><text x="152" y="260" fill="#133221" font-size="34" font-family="IBM Plex Sans, sans-serif">SSE</text>
  <rect x="70" y="328" width="220" height="92" rx="24" fill="#FCE8D1" stroke="#E8BC7D"/><text x="145" y="382" fill="#3A2610" font-size="34" font-family="IBM Plex Sans, sans-serif">REST</text>
  <rect x="70" y="450" width="220" height="92" rx="24" fill="#F8DDF1" stroke="#D79CC5"/><text x="116" y="504" fill="#341728" font-size="34" font-family="IBM Plex Sans, sans-serif">Webhook</text>
  <rect x="70" y="572" width="220" height="92" rx="24" fill="#E5E9FF" stroke="#A0AFE8"/><text x="143" y="626" fill="#1E2447" font-size="34" font-family="IBM Plex Sans, sans-serif">gRPC</text>
  <rect x="418" y="212" width="364" height="320" rx="32" fill="#0E1E28"/>
  <text x="474" y="282" fill="#E9F8FF" font-size="40" font-family="Space Grotesk, sans-serif">Pipeline</text>
  <text x="474" y="344" fill="#8FD3F4" font-size="28" font-family="IBM Plex Mono, monospace">filter  →  transform  →  dedup</text>
  <text x="474" y="392" fill="#8FD3F4" font-size="28" font-family="IBM Plex Mono, monospace">enrich  →  threshold  →  batch</text>
  <text x="474" y="470" fill="#B8D9EA" font-size="24" font-family="IBM Plex Sans, sans-serif">configurable at runtime through the REST API</text>
  <rect x="898" y="274" width="232" height="192" rx="28" fill="#102733" stroke="#2E5B70" stroke-width="2"/>
  <text x="956" y="352" fill="#CFF5FF" font-size="36" font-family="Space Grotesk, sans-serif">JetStream</text>
  <text x="958" y="404" fill="#8FD3F4" font-size="24" font-family="IBM Plex Sans, sans-serif">events + configs</text>
  <path d="M290 374H394" stroke="#38647A" stroke-width="10" stroke-linecap="round"/>
  <path d="M782 374H874" stroke="#38647A" stroke-width="10" stroke-linecap="round"/>
  <polygon points="394,374 366,358 366,390" fill="#38647A"/>
  <polygon points="874,374 846,358 846,390" fill="#38647A"/>
</svg>