<svg xmlns="http://www.w3.org/2000/svg" width="1200" height="900" viewBox="0 0 1200 900" fill="none">
  <rect width="1200" height="900" rx="40" fill="#F4ECE0"/>
  <rect x="48" y="48" width="1104" height="804" rx="34" fill="#FBF7F1" stroke="#DCCDB8" stroke-width="2"/>
  <text x="84" y="110" fill="#1E2B4A" font-size="24" font-weight="700" letter-spacing="4" font-family="IBM Plex Sans, sans-serif">TOOL SURFACE</text>
  <text x="84" y="178" fill="#1A2340" font-size="58" font-weight="700" font-family="Space Grotesk, sans-serif">A deliberately narrow agent toolkit</text>
  <rect x="92" y="252" width="456" height="116" rx="28" fill="#FFF9F0" stroke="#E0CBA7"/>
  <text x="126" y="306" fill="#A56A24" font-size="18" font-weight="700" letter-spacing="3" font-family="IBM Plex Sans, sans-serif">ORIENT</text>
  <text x="126" y="348" fill="#1B2746" font-size="30" font-weight="700" font-family="Space Grotesk, sans-serif">ListFiles + FindFiles</text>
  <rect x="652" y="252" width="456" height="116" rx="28" fill="#F5F8FB" stroke="#C9D8E6"/>
  <text x="686" y="306" fill="#2F6E95" font-size="18" font-weight="700" letter-spacing="3" font-family="IBM Plex Sans, sans-serif">UNDERSTAND</text>
  <text x="686" y="348" fill="#1B2746" font-size="30" font-weight="700" font-family="Space Grotesk, sans-serif">ReadPreview</text>
  <rect x="92" y="410" width="456" height="116" rx="28" fill="#F7FBF6" stroke="#C6D8C9"/>
  <text x="126" y="464" fill="#3A6C49" font-size="18" font-weight="700" letter-spacing="3" font-family="IBM Plex Sans, sans-serif">TARGET</text>
  <text x="126" y="506" fill="#1B2746" font-size="30" font-weight="700" font-family="Space Grotesk, sans-serif">GrepSearch</text>
  <rect x="652" y="410" width="456" height="116" rx="28" fill="#FFF3EE" stroke="#E0C0B5"/>
  <text x="686" y="464" fill="#9C5E49" font-size="18" font-weight="700" letter-spacing="3" font-family="IBM Plex Sans, sans-serif">ESCALATE</text>
  <text x="686" y="506" fill="#1B2746" font-size="30" font-weight="700" font-family="Space Grotesk, sans-serif">GrepRecursive</text>
  <path d="M548 468H630" stroke="#C79A57" stroke-width="8" stroke-linecap="round"/>
  <polygon points="630,468 604,452 604,484" fill="#C79A57"/>
  <rect x="92" y="606" width="1016" height="172" rx="30" fill="#1E2B4A"/>
  <text x="132" y="668" fill="#F7F3EA" font-size="22" font-weight="700" letter-spacing="3" font-family="IBM Plex Sans, sans-serif">LIMITS</text>
  <text x="132" y="720" fill="#E2E7F0" font-size="28" font-family="IBM Plex Sans, sans-serif">30 entries · 20 file results · 3 matches per file · 10 files total</text>
  <text x="132" y="760" fill="#C8CFDA" font-size="24" font-family="IBM Plex Sans, sans-serif">The strategy stays surgical by default and only widens scope when the first local question fails.</text>
</svg>