<!-- Generated by scripts/generate-og-images.mjs -->
<svg xmlns="http://www.w3.org/2000/svg" viewBox="0 0 1200 630" fill="none">
  <rect width="1200" height="630" rx="42" fill="#f7faf6"/>
  <circle cx="244" cy="82" r="156" fill="#2dd4bf" fill-opacity="0.13"/>
  <circle cx="1028" cy="560" r="180" fill="#2dd4bf" fill-opacity="0.11"/>
  <rect x="28" y="28" width="1144" height="574" rx="34" fill="#ffffff" stroke="#d7e4dd" stroke-width="2"/>
  <path d="M72 150H732M72 310H732M72 470H732" stroke="#e7f0eb" stroke-width="2" stroke-linecap="round"/>
  <rect x="822" y="56" width="320" height="518" rx="30" fill="#007f6d"/>
  <circle cx="982" cy="210" r="114" fill="#2dd4bf" fill-opacity="0.2"/>
  <path d="M0 0H340V160C278 188 242 246 222 320C204 384 174 446 118 498H0V0Z" transform="translate(822 56)" fill="#2dd4bf" fill-opacity="0.16"/>
  <path d="M862 366H1102" stroke="#f6fffb" stroke-opacity="0.18" stroke-width="2"/>
  <g transform="translate(884 118) scale(1.72)">
    <rect x="8" y="8" width="128" height="128" rx="34" fill="#f6fffb" fill-opacity="0.1"/>
    <path d="M34 92L72 38L110 92" stroke="#f6fffb" stroke-width="9" stroke-linecap="round" stroke-linejoin="round"/>
    <path d="M52 92H98" stroke="#2dd4bf" stroke-width="9" stroke-linecap="round"/>
    <circle cx="34" cy="92" r="10" fill="#2dd4bf"/>
    <circle cx="72" cy="38" r="10" fill="#f6fffb"/>
    <circle cx="110" cy="92" r="10" fill="#2dd4bf"/>
    <text x="40" y="122" fill="#f6fffb" fill-opacity="0.92" font-size="34" font-weight="700" font-family="Noto Sans">AB</text>
  </g>
  <text x="88" y="112" fill="#007f6d" font-size="22" font-weight="700" font-family="Noto Sans" letter-spacing="4">BLOG POST</text>
  <text x="88" y="198" fill="#10201c" font-size="64" font-weight="700" font-family="Noto Sans">FinOps for AI Data</text>
<text x="88" y="274" fill="#10201c" font-size="64" font-weight="700" font-family="Noto Sans">Platforms in 2026:…</text>
  <text x="88" y="386" fill="#425e56" font-size="30" font-weight="400" font-family="Noto Sans">A FinOps-first comparison of Databricks, AWS</text>
<text x="88" y="424" fill="#425e56" font-size="30" font-weight="400" font-family="Noto Sans">Glue/Athena with Iceberg, and a DIY Iceberg</text>
<text x="88" y="462" fill="#425e56" font-size="30" font-weight="400" font-family="Noto Sans">stack for adding AI/ML and streaming on top of…</text>
  <rect x="88" y="500" width="209.1912" height="44" rx="18" fill="#e7f8f2" stroke="#a7dbc7"/>
<text x="106" y="529" fill="#0b5f53" font-size="21" font-weight="600" font-family="Noto Sans">Data Engineering</text>
<rect x="311.1912" y="500" width="107.00184" height="44" rx="18" fill="#e7f8f2" stroke="#a7dbc7"/>
<text x="329.1912" y="529" fill="#0b5f53" font-size="21" font-weight="600" font-family="Noto Sans">FinOps</text>
<rect x="432.19304" y="500" width="145.70232" height="44" rx="18" fill="#e7f8f2" stroke="#a7dbc7"/>
<text x="450.19304" y="529" fill="#0b5f53" font-size="21" font-weight="600" font-family="Noto Sans">Databricks</text>
<rect x="591.89536" y="500" width="104" height="44" rx="18" fill="#e7f8f2" stroke="#a7dbc7"/>
<text x="609.89536" y="529" fill="#0b5f53" font-size="21" font-weight="600" font-family="Noto Sans">AWS</text>
  <text x="88" y="570" fill="#6f8b82" font-size="22" font-weight="500" font-family="Noto Sans">andreabozzo.github.io/AndreaBozzo</text>
  <text x="860" y="458" fill="#f6fffb" font-size="20" font-weight="700" font-family="Noto Sans" letter-spacing="3">BLOG</text>
  <text x="860" y="494" fill="#f6fffb" font-size="34" font-weight="700" font-family="Noto Sans">Andrea</text>
  <text x="860" y="532" fill="#f6fffb" font-size="34" font-weight="700" font-family="Noto Sans">Bozzo</text>
</svg>