<!-- Generated by scripts/generate-og-images.mjs -->
<svg xmlns="http://www.w3.org/2000/svg" viewBox="0 0 1200 630" fill="none">
  <rect width="1200" height="630" rx="42" fill="#F5EFE2"/>
  <rect x="28" y="28" width="1144" height="574" rx="34" fill="#FFF9EF" stroke="#E0D0B4" stroke-width="2"/>
  <rect x="822" y="56" width="320" height="518" rx="30" fill="#4B495C"/>
  <circle cx="982" cy="210" r="114" fill="#C5C3D9" fill-opacity="0.18"/>
  <path d="M0 0H340V160C278 188 242 246 222 320C204 384 174 446 118 498H0V0Z" transform="translate(822 56)" fill="#C5C3D9" fill-opacity="0.16"/>
  <g transform="translate(882 124) scale(2.5)">
    <path d="M28 31L38 17L44 36L28 31Z" fill="#F1ECE2" fill-opacity="0.92"/>
    <path d="M68 31L58 17L52 36L68 31Z" fill="#F1ECE2" fill-opacity="0.92"/>
    <path d="M48 27C33.6 27 22 38.1 22 51.8C22 65.5 33.6 76 48 76C62.4 76 74 65.5 74 51.8C74 38.1 62.4 27 48 27Z" fill="#E4DED1" fill-opacity="0.98"/>
    <path d="M48 31C38.4 31 29.7 37.2 26 46.4C31 43.3 36.8 41.4 43 41H53C59.2 41.4 65 43.3 70 46.4C66.3 37.2 57.6 31 48 31Z" fill="#FFFFFF" fill-opacity="0.88"/>
    <path d="M31 44C34.4 41.8 38.4 40.6 42.6 40.6H43.5L39.8 57.4L28.3 49.6C28.6 47.4 29.5 45.5 31 44Z" fill="#FFFFFF" fill-opacity="0.9"/>
    <path d="M65 44C61.6 41.8 57.6 40.6 53.4 40.6H52.5L56.2 57.4L67.7 49.6C67.4 47.4 66.5 45.5 65 44Z" fill="#FFFFFF" fill-opacity="0.9"/>
    <path d="M48 44L58 59.2L52.2 68H43.8L38 59.2L48 44Z" fill="#F7F5EF"/>
    <circle cx="39.5" cy="51" r="3" fill="#19213A"/>
    <circle cx="56.5" cy="51" r="3" fill="#19213A"/>
    <path d="M42.8 61.4C45.6 59.3 50.4 59.3 53.2 61.4L48 66.4L42.8 61.4Z" fill="#19213A"/>
    <path d="M40.8 68.2C43 70.1 45.4 71 48 71C50.6 71 53 70.1 55.2 68.2" stroke="#19213A" stroke-width="2.8" stroke-linecap="round"/>
  </g>
  <text x="88" y="112" fill="#4B495C" font-size="22" font-weight="700" font-family="Segoe UI, Arial, sans-serif" letter-spacing="4">ARTICOLO</text>
  <text x="88" y="206" fill="#182035" font-size="72" font-weight="700" font-family="Segoe UI, Arial, sans-serif">Harvesting vs</text>
<text x="88" y="290" fill="#182035" font-size="72" font-weight="700" font-family="Segoe UI, Arial, sans-serif">Scraping: Costruire…</text>
  <text x="88" y="386" fill="#4C5568" font-size="30" font-weight="400" font-family="Segoe UI, Arial, sans-serif">Come aver costruito uno scraper web (Ares) e</text>
<text x="88" y="424" fill="#4C5568" font-size="30" font-weight="400" font-family="Segoe UI, Arial, sans-serif">un harvester di open data (Ceres) ha chiarito</text>
<text x="88" y="462" fill="#4C5568" font-size="30" font-weight="400" font-family="Segoe UI, Arial, sans-serif">il confine tra scraping come tecnica e…</text>
  <rect x="88" y="500" width="104" height="44" rx="18" fill="#F1F0F8" stroke="#DCCDB8"/>
<text x="106" y="529" fill="#22304D" font-size="21" font-weight="600" font-family="Segoe UI, Arial, sans-serif">Rust</text>
<rect x="206" y="500" width="258" height="44" rx="18" fill="#F1F0F8" stroke="#DCCDB8"/>
<text x="224" y="529" fill="#22304D" font-size="21" font-weight="600" font-family="Segoe UI, Arial, sans-serif">Data Engineering</text>
<rect x="478" y="500" width="202" height="44" rx="18" fill="#F1F0F8" stroke="#DCCDB8"/>
<text x="496" y="529" fill="#22304D" font-size="21" font-weight="600" font-family="Segoe UI, Arial, sans-serif">Web Scraping</text>
<rect x="694" y="500" width="160" height="44" rx="18" fill="#F1F0F8" stroke="#DCCDB8"/>
<text x="712" y="529" fill="#22304D" font-size="21" font-weight="600" font-family="Segoe UI, Arial, sans-serif">Open Data</text>
  <text x="88" y="570" fill="#6A7284" font-size="22" font-weight="500" font-family="Segoe UI, Arial, sans-serif">andreabozzo.github.io/AndreaBozzo</text>
  <text x="860" y="458" fill="#F7F5FA" font-size="20" font-weight="700" font-family="Segoe UI, Arial, sans-serif" letter-spacing="3">BLOG</text>
  <text x="860" y="494" fill="#F7F5FA" font-size="34" font-weight="700" font-family="Segoe UI, Arial, sans-serif">Andrea</text>
  <text x="860" y="532" fill="#F7F5FA" font-size="34" font-weight="700" font-family="Segoe UI, Arial, sans-serif">Bozzo</text>
</svg>